<svg width="140" height="119" viewBox="0 0 140 119" fill="none" xmlns="http://www.w3.org/2000/svg">
<path d="M70.5376 113.063C97.5532 113.063 119.454 111.503 119.454 109.578C119.454 107.653 97.5532 106.093 70.5376 106.093C43.522 106.093 21.6211 107.653 21.6211 109.578C21.6211 111.503 43.522 113.063 70.5376 113.063Z" fill="#ABA7A7"/>
<path d="M76.8449 106.053C77.7594 109.482 79.2716 113.467 82.1659 113.067C83.293 112.913 87.8239 106.242 88.7457 103.397C89.843 100.004 90.1797 97.08 89.9707 94.6039C89.1507 84.8409 79.8341 82.0628 75.0963 85.176L67.7002 76.6032C66.2011 79.1833 64.8837 82.931 64.3284 86.8989C63.1382 95.3682 65.4237 104.833 76.8449 106.053Z" fill="#5E5E5E"/>
<path d="M76.8449 106.053C77.7594 109.482 79.2716 113.467 82.1659 113.067C83.293 112.913 87.8239 106.242 88.7457 103.397C89.843 100.004 90.1797 97.08 89.9707 94.6039C88.2735 94.2966 86.0748 94.6648 83.3912 96.6398C75.4886 102.459 71.263 100.275 68.7922 98.6368C65.8979 96.7175 64.7687 91.039 64.3284 86.8989C63.1382 95.3682 65.4241 104.833 76.8449 106.053Z" fill="#1C1D1E"/>
<path d="M75.3054 85.4951C79.0531 83.9391 83.4457 84.7623 86.2438 87.7274C88.1537 89.6991 89.0763 92.5123 89.2199 95.2429C89.3439 98.0611 88.7764 100.939 87.8616 103.589C86.6157 106.422 84.8515 109.106 82.8749 111.492C82.5971 111.798 82.3348 112.103 82.0006 112.321C81.9957 112.324 81.9793 112.335 82.0088 112.32C82.0186 112.316 82.0292 112.313 82.0399 112.312C82.0472 112.311 82.0722 112.312 82.0497 112.313C81.8877 112.336 81.7019 112.336 81.5395 112.317C79.2385 111.953 78.1465 107.825 77.5814 105.856C77.4967 105.543 77.2296 105.327 76.9252 105.294C75.4502 105.116 73.9973 104.806 72.6349 104.278C63.4537 100.792 63.7454 88.8955 66.5243 81.069C67.0239 79.6489 67.627 78.2643 68.3638 76.9776C68.8389 76.1057 67.5762 75.3496 67.0394 76.2202C64.0457 81.6463 62.635 88.4589 63.5912 94.6059C64.7662 101.822 69.5634 106.057 76.7635 106.811L76.1073 106.25C76.8908 108.997 78.1759 113.612 81.6148 113.854C81.8598 113.856 82.1135 113.857 82.3565 113.805C82.71 113.728 82.9833 113.508 83.2476 113.289C84.7173 111.894 85.8216 110.188 86.9238 108.513C87.8706 106.99 88.8128 105.445 89.4335 103.739C90.3311 100.989 90.9056 98.0746 90.7988 95.1689C90.6265 89.5182 87.2102 84.4289 81.4278 83.3704C80.2949 83.165 79.1173 83.1315 77.9775 83.3622C76.845 83.5971 75.737 84.0774 74.8864 84.8577C74.5648 85.1543 74.9175 85.671 75.3054 85.4951Z" fill="#1C1D1E"/>
<path d="M80.0464 109.714C79.978 110.187 79.566 112.475 81.4251 113.795C84.6752 116.104 93.3902 114.883 97.4489 108.27C100.318 103.594 100.206 98.0341 94.866 96.2666C91.2262 95.062 86.6075 98.5589 84.6365 102.795C84.6365 102.795 83.7366 104.106 82.1887 105.956C80.3614 108.14 80.0464 109.714 80.0464 109.714Z" fill="white"/>
<path d="M81.4288 113.255C84.1592 115.233 90.7364 114.676 95.1895 110.471C90.9459 113.019 85.9393 113.213 83.9763 111.327C80.9379 108.405 86.9715 98.5962 87.1231 98.3493C86.1174 99.4198 85.2559 100.68 84.6501 102.012C84.6501 102.012 83.7476 103.354 82.1936 105.244C80.3603 107.476 80.045 109.085 80.045 109.085C79.9779 109.569 79.5642 111.906 81.4288 113.255Z" fill="#F3F3F3"/>
<path d="M79.7078 109.349C77.9945 115.264 84.9547 116.684 90.2667 114.963C95.0845 113.503 98.5757 109.874 100.082 105.805C101.483 102.243 101.29 97.4586 97.1893 95.2066C96.0176 94.5574 94.585 94.0981 93.1798 94.2474C89.9269 94.5734 87.2537 96.8263 85.6909 99.098C85.0886 100.018 84.6197 101.001 84.3928 102.03C84.3411 102.265 84.5229 102.491 84.7998 102.535C85.0139 102.569 85.2214 102.484 85.329 102.335C87.1203 99.8837 91.0497 94.861 94.9964 96.2831C97.904 97.3267 98.8849 99.975 98.5821 102.506C98.0487 107.072 94.6931 111.612 89.5257 113.279C86.4707 114.335 81.3565 114.368 80.836 110.85C80.7456 110.401 80.7096 109.946 80.7032 109.45C80.7005 109.213 80.4714 109.023 80.1923 109.025C79.9584 109.027 79.7626 109.165 79.7078 109.349Z" fill="#1C1D1E"/>
<path d="M87.3922 105.875C86.0547 107.239 85.4718 109.235 86.422 110.487C87.7374 112.219 90.4363 111.208 91.7107 109.909C92.9851 108.609 93.9016 105.934 92.0704 104.727C90.7475 103.855 88.7297 104.511 87.3922 105.875Z" fill="#5E5E5E"/>
<path d="M93.4183 101.124C92.9186 101.902 92.7419 102.901 93.1548 103.488C93.5673 104.076 94.5894 103.849 95.2608 102.803C95.9326 101.757 95.8481 100.523 95.2641 100.202C94.68 99.8816 93.9179 100.346 93.4183 101.124Z" fill="#5E5E5E"/>
<path d="M90.7572 100.304C90.4078 101.072 90.3898 101.993 90.8582 102.463C91.3263 102.933 92.2405 102.588 92.71 101.554C93.1798 100.521 92.9213 99.4249 92.3332 99.2185C91.7451 99.0121 91.1067 99.5353 90.7572 100.304Z" fill="#5E5E5E"/>
<path d="M93.7173 104.947C93.3053 105.451 93.1902 106.117 93.5833 106.531C93.9768 106.945 94.8785 106.837 95.4327 106.16C95.9868 105.483 95.8584 104.646 95.3239 104.404C94.7893 104.163 94.1294 104.444 93.7173 104.947Z" fill="#5E5E5E"/>
<path d="M87.0066 102.164C86.8076 102.815 86.937 103.525 87.4415 103.801C87.9466 104.077 88.7314 103.649 88.999 102.773C89.2666 101.898 88.8549 101.104 88.282 101.051C87.709 100.998 87.2055 101.513 87.0066 102.164Z" fill="#5E5E5E"/>
<path d="M85.416 91.7759C85.596 91.7759 85.7122 91.645 85.7535 91.332C85.8959 90.2543 84.7699 88.0269 82.9979 86.8928C82.7623 87.781 82.5172 88.6738 82.2554 89.5698C83.7033 90.5378 84.8624 91.7759 85.416 91.7759Z" fill="#5E5E5E"/>
<path d="M96.4798 86.8863C96.4798 86.8863 98.0668 90.3079 101.406 89.9532C103.193 89.7626 105.483 88.6276 105.793 85.3205C105.85 84.7141 105.84 84.0354 105.749 83.2764C104.94 76.5554 98.1867 72.8727 90.1102 75.7089C90.1102 75.7089 90.1004 75.6668 90.0816 75.5849C89.9327 74.8849 89.2367 71.3282 89.767 67.4814L78.9554 75.6553C78.9554 75.6553 75.021 93.3344 96.4798 86.8863Z" fill="#38393A"/>
<path d="M96.4801 86.8863C96.4801 86.8863 98.0671 90.3079 101.407 89.9532C103.193 89.7626 105.484 88.6276 105.793 85.3205C104.961 85.8945 103.271 86.669 100.869 85.8663C97.3348 84.6896 96.8291 82.4332 96.8291 82.4332C96.8291 82.4332 88.8594 87.4738 86.2789 83.5452C83.6338 79.5192 88.0353 76.6491 90.0819 75.5849C89.9329 74.8849 89.237 71.3282 89.7672 67.4814L78.9556 75.6553C78.9556 75.6553 75.0213 93.3344 96.4801 86.8863Z" fill="#5E5E5E"/>
<path d="M100.909 90.7419C101.096 90.7419 101.288 90.7321 101.486 90.7113C102.392 90.6147 104.094 90.2252 105.311 88.697C106.383 87.3518 106.785 85.4967 106.506 83.1838C106.121 79.9905 104.462 77.3315 101.834 75.6961C98.8294 73.8271 94.8104 73.4822 90.6944 74.717C90.4665 73.3746 90.1142 70.5528 90.5225 67.5861C90.5798 67.1683 90.2881 66.7837 89.8708 66.7261C89.451 66.6688 89.0685 66.9605 89.0112 67.3778C88.4077 71.763 89.3283 75.7194 89.3679 75.8856C89.4179 76.0958 89.5545 76.2751 89.7444 76.379C89.9342 76.4825 90.1588 76.5005 90.3626 76.4293C94.3276 75.037 98.2148 75.2416 101.028 76.9915C103.255 78.3776 104.663 80.6414 104.991 83.3663C105.219 85.259 104.926 86.7323 104.118 87.7466C103.247 88.8402 101.994 89.123 101.325 89.1942C98.5831 89.4851 97.2276 86.6832 97.1711 86.5638C97.0103 86.2225 96.6245 86.0474 96.2608 86.1567C89.4158 88.213 84.5793 87.986 81.8859 85.482C78.3346 82.1802 79.6864 75.8843 79.7003 75.8213C79.7919 75.4097 79.533 75.0022 79.1218 74.9106C78.7094 74.8189 78.3031 75.0783 78.2114 75.4895C78.146 75.7824 76.6624 82.7088 80.8471 86.5994C83.8826 89.4212 89.0169 89.821 96.1127 87.79C96.7432 88.7956 98.3 90.7419 100.909 90.7419Z" fill="#1C1D1E"/>
<path d="M12.1619 50.9713C12.1461 51.122 12.1326 51.2761 12.1199 51.4248C12.0886 51.8584 12.0739 52.281 12.0875 52.6932C12.3825 61.9787 24.4587 63.9335 27.1176 54.4195C29.0088 47.6482 33.0544 46.3704 36.2298 47.6195C36.7214 47.8134 37.1915 48.0674 37.6306 48.3693C38.6126 49.0476 39.4353 49.9779 39.9714 51.0272C40.4216 51.9136 40.6669 52.889 40.6324 53.8774C40.5611 55.7525 39.9523 57.4932 38.965 59.1376C36.8866 62.6028 33.1197 65.6414 29.1299 68.5928C27.9883 69.4391 26.8296 70.2737 25.6863 71.1145C24.3882 72.0656 23.2871 73.0927 22.3703 74.1842C20.8077 76.0426 19.7765 78.0716 19.2384 80.1652C18.7683 82.0015 18.6758 83.8837 18.9366 85.7365C20.1784 94.6338 29.5105 102.861 43.7999 102.029L45.0539 91.2265C42.0412 92.1424 39.2601 92.0466 36.9476 91.3722C36.6768 91.2959 36.4115 91.2081 36.1537 91.1149L36.1508 91.1142C36.0608 91.0811 35.9708 91.0481 35.8867 91.0115C32.5106 89.7012 30.3531 87.1655 30.2618 85.0769C29.962 78.4897 42.0822 70.4276 46.5887 65.3112C54.9813 55.7782 52.9495 44.3532 43.8819 38.2845C42.6474 37.4579 41.2807 36.7297 39.7934 36.1205C38.9931 35.79 38.1517 35.4975 37.2795 35.2401C36.6427 35.0528 36.0157 34.8934 35.3997 34.7672C21.9745 31.9798 13.0998 42.8543 12.1619 50.9713Z" fill="#38393A"/>
<path d="M20.073 88.7983C22.3605 95.0165 35.878 103.095 45.0674 99.859L44.0928 91.8005C42.2782 93.0193 40.4469 93.4624 38.8255 93.3998C36.5621 96.6275 23.4488 94.2657 20.073 88.7983Z" fill="#1C1D1E"/>
<path d="M42.7159 59.5521C37.7545 66.3863 29.6772 69.5494 26.2454 70.6382C30.6688 67.6146 34.8992 64.4711 37.6283 60.7131C38.9239 58.9282 39.8818 57.0036 40.3576 54.886C40.6092 53.7683 40.5914 52.6442 40.3587 51.6032C39.9627 49.8169 38.937 48.276 37.5643 47.441C34.8345 45.7719 30.7264 46.8941 27.45 54.4168C22.8464 64.9848 11.8441 61.8024 13.6032 51.2565C13.6815 50.7893 13.7866 50.3095 13.9126 49.822C14.701 52.4222 17.3758 57.7838 21.5616 56.3847C27.4501 54.4168 27.304 44.3636 34.8224 42.1305C40.5502 40.4292 49.1496 50.6896 42.7159 59.5521Z" fill="#1C1D1E"/>
<path d="M32.9043 100.555C35.7747 101.365 38.9047 101.747 42.1784 101.636C42.7768 101.616 43.2189 101.152 43.1661 100.6C43.113 100.049 42.5851 99.6185 41.9865 99.6375C32.1613 99.9699 23.7923 95.5099 20.6643 88.2772C17.8929 81.8676 19.9658 75.2386 26.0753 70.9765C26.5 70.6807 26.9265 70.3848 27.3537 70.0886C34.0383 65.452 40.9506 60.6569 41.389 53.8921C41.6104 50.4685 38.7978 46.9718 35.2382 46.2593C33.7394 45.9584 28.6546 45.603 26.1738 53.6664C24.8029 58.1242 21.4611 59.2174 19.0161 58.7985C16.4452 58.3607 13.84 56.0835 13.8238 51.9925C13.8068 47.8178 16.6939 41.7398 22.2453 38.2008C25.3406 36.2276 30.4486 34.3346 37.2474 36.5354C43.3111 38.4993 47.7507 42.5433 49.4275 47.631C51.2559 53.1806 49.6111 59.2792 44.9149 64.3633C43.6686 65.7124 41.7745 67.3221 39.7695 69.0259C34.3782 73.6085 28.2674 78.8024 28.3556 83.8059C28.3892 85.7276 29.8161 87.885 32.0801 89.4358C35.3748 91.6938 39.7002 92.3118 43.9477 91.1322C44.5144 90.9754 44.8106 90.4189 44.6098 89.8895C44.409 89.3597 43.7874 89.0581 43.2212 89.2156C39.642 90.2091 36.0342 89.7129 33.3211 87.8546C31.6484 86.7085 30.553 85.1472 30.5308 83.8771C30.4579 79.7337 36.4642 74.6287 41.291 70.5262C43.3417 68.7834 45.2786 67.1371 46.6032 65.7029C51.765 60.1151 53.5522 53.3501 51.5071 47.1435C49.6138 41.3981 44.6447 36.8454 37.874 34.6531C30.2249 32.1719 24.4405 34.3096 20.9434 36.5385C15.4479 40.042 11.6253 46.3573 11.6478 51.8962C11.6696 57.1889 15.2242 60.1648 18.726 60.7642C22.2987 61.376 26.636 59.6147 28.2703 54.3014C29.616 49.9282 32.0866 47.6516 34.8803 48.2125C37.346 48.7074 39.3728 51.2581 39.2171 53.6709C38.8357 59.5574 32.3038 64.0878 25.9865 68.4698C25.5584 68.7669 25.1303 69.064 24.7041 69.361C17.9281 74.0879 15.5507 81.7697 18.6481 88.9313C21.0837 94.5633 26.3072 98.6926 32.9043 100.555Z" fill="#1C1D1E"/>
<path d="M47.5223 101.168C52.3574 105.094 58.9823 107.096 65.0113 106.509C70.5822 105.966 75.6426 103.211 78.3101 97.7193C82.767 88.5351 83.0145 79.1072 86.9532 71.2851C87.7875 69.6263 88.7863 68.0409 90.0273 66.5456L66.4338 61.1263L65.5389 60.9197C62.3779 62.2657 59.5594 63.8714 57.0643 65.6671C49.448 71.1455 44.8381 78.3805 42.6531 85.3537C40.6345 91.7932 43.7123 98.0751 47.5223 101.168Z" fill="#38393A"/>
<path d="M73.4561 86.1269C73.4561 86.1269 58.0886 75.1778 57.6398 75.7936C58.024 86.1269 51.7166 88.9132 52.3034 89.1603C52.8901 89.407 69.9022 97.4274 69.4534 96.3866C69.005 95.3461 73.4561 86.1269 73.4561 86.1269Z" fill="#1C1D1E"/>
<path d="M56.8404 66.7928C60.8967 71.124 68.0964 74.0035 76.3026 74.0035C80.155 74.0035 83.7862 73.3685 86.973 72.2454C87.8142 70.6359 88.8211 69.0967 90.0723 67.6455L66.2863 62.3855L65.3842 62.185C62.1973 63.4914 59.3559 65.0499 56.8404 66.7928Z" fill="#1C1D1E"/>
<path d="M69.1241 73.2388C71.3822 73.7347 73.7966 74.0035 76.3026 74.0035C80.155 74.0035 83.7862 73.3685 86.973 72.2454C87.0147 72.1669 87.0548 72.0871 87.099 72.009C87.1465 71.9173 87.196 71.8257 87.2475 71.734C87.3257 71.5912 87.4038 71.4501 87.4861 71.3089C87.5376 71.2193 87.5892 71.1297 87.6424 71.0418C87.6919 70.9562 87.7434 70.8724 87.795 70.7881C87.8711 70.6604 87.9513 70.5328 88.0315 70.4047C88.1059 70.2865 88.182 70.1703 88.2585 70.0541C88.3461 69.9187 88.4357 69.7853 88.5294 69.6515C88.6378 69.4915 88.7487 69.3332 88.8649 69.1748C88.9279 69.0873 88.9925 68.9993 89.0576 68.9118C89.2863 68.6045 89.5228 68.3013 89.7707 68.0018C89.8697 67.8819 89.9708 67.7637 90.0723 67.6455L66.2863 62.3855C67.999 65.3432 69.5951 69.291 69.1241 73.2388Z" fill="#E8E8E8"/>
<path d="M58.8199 101.628C60.3362 104.152 62.4567 105.645 64.8523 106.433C70.4686 105.906 75.5702 103.232 78.2595 97.902C79.4362 95.5678 80.3207 93.2161 81.0588 90.8819C83.7346 82.4143 84.465 74.1545 90.0723 67.6454L66.2863 62.3855C68.3803 66.0031 70.3029 71.1031 68.4756 75.8725C67.0166 79.6792 64.6002 82.6144 62.3479 85.2901C58.1256 90.3058 54.485 94.412 58.8199 101.628Z" fill="white"/>
<path d="M59.0294 105.531C60.6149 108.674 62.8323 110.533 65.3372 111.514C71.2099 110.858 78.439 109.634 81.2511 102.996C82.4815 100.089 83.1872 95.3808 82.2836 92.1481C76.8298 93.8535 67.81 94.8033 62.7185 85.1844C58.3034 91.4307 54.4966 96.5443 59.0294 105.531Z" fill="#E8E8E8"/>
<path d="M69.1241 73.2388C71.3822 73.7347 73.7966 74.0035 76.3026 74.0035C80.155 74.0035 83.7862 73.3685 86.973 72.2454C87.0131 72.1653 87.0548 72.0871 87.099 72.009C87.1465 71.9173 87.196 71.8257 87.2475 71.734C87.3257 71.5912 87.4059 71.4501 87.4861 71.3089C87.5376 71.2193 87.5892 71.1297 87.6424 71.0418C87.6919 70.9579 87.7414 70.8724 87.795 70.7881C87.8711 70.6604 87.9513 70.5328 88.0315 70.4047C88.1059 70.2865 88.182 70.1703 88.2585 70.0541C88.3461 69.9187 88.4357 69.7853 88.5294 69.6515C88.6378 69.4915 88.7487 69.3332 88.8649 69.1748C88.9279 69.0873 88.9925 68.9993 89.0576 68.9118C89.2863 68.6045 89.5228 68.3013 89.7707 68.0018C89.8697 67.8819 89.9708 67.7637 90.0723 67.6455L66.2863 62.3855C67.999 65.3432 69.5951 69.291 69.1241 73.2388Z" fill="#F3F3F3"/>
<path d="M64.3212 112.452C66.0742 112.338 67.7883 112.032 69.4174 111.523C74.7975 109.841 81.0376 107.817 83.0576 102.611C85.1746 97.1568 83.7621 90.1452 84.6485 84.9278C85.8328 77.9539 86.952 71.3669 90.8449 65.7515C91.1111 65.368 91.0379 64.8189 90.6807 64.5261C90.324 64.2332 89.8191 64.3072 89.5529 64.6912C85.4346 70.6315 84.2826 77.4129 83.0627 84.5931C82.192 89.7193 83.1176 96.5566 81.0682 101.838C78.7597 107.787 72.3744 108.773 68.9562 109.841C62.2644 111.933 54.0263 110.375 47.9691 105.873C43.9664 102.899 40.388 96.5342 41.9897 89.5874C43.6084 82.5685 48.6372 69.5794 64.1304 61.4433C64.5291 61.2337 64.6928 60.7112 64.4953 60.2759C64.2983 59.8411 63.8144 59.658 63.4157 59.8676C57.1069 63.1805 51.8559 67.6431 47.8085 73.1322C44.2962 77.8956 41.7433 83.4329 40.426 89.146C38.6361 96.907 42.614 104.004 47.0675 107.313C52.0383 111.007 58.3976 112.835 64.3212 112.452Z" fill="#1C1D1E"/>
<path d="M40.6377 53.8434C40.6209 53.8164 40.6062 53.7869 40.5894 53.7599C40.5874 53.7558 40.5833 53.7538 40.5812 53.7517L40.6377 53.8434Z" fill="#BDA4BE"/>
<path d="M108.344 45.7265C111.015 43.0184 114.408 41.0115 118.026 39.8545C118.702 39.6086 119.411 39.4629 120.102 39.2575C120.648 39.1454 121.236 39.0256 121.779 38.9032C122.242 38.7932 122.131 38.1066 121.652 38.1529C121.18 38.2052 120.646 38.2768 120.17 38.3394C119.043 38.5023 117.861 38.8128 116.768 39.1458C115.854 39.4662 114.845 39.8467 113.983 40.2788C111.576 41.48 109.345 43.0614 107.736 45.2654C107.461 45.6643 108.029 46.1021 108.344 45.7265Z" fill="#1C1D1E"/>
<path d="M109.934 47.3428C113.043 45.5682 116.83 44.4636 120.756 44.0742C121.493 43.9776 122.254 43.9664 123.002 43.9045C123.586 43.8958 124.217 43.8872 124.8 43.8699C125.298 43.8505 125.26 43.2834 124.753 43.2492C124.251 43.2209 123.683 43.1988 123.177 43.1782C121.976 43.141 120.702 43.2142 119.518 43.3186C118.523 43.4395 117.421 43.5944 116.468 43.8126C113.807 44.4178 111.288 45.3541 109.35 46.8825C109.016 47.1615 109.561 47.5972 109.934 47.3428Z" fill="#1C1D1E"/>
<path d="M109.038 50.7437C113.073 49.0028 117.794 47.957 122.013 49.6684C122.459 49.8448 122.76 49.2118 122.337 48.9778C119.138 47.2713 115.23 47.4067 111.868 48.5539C110.743 48.9418 109.673 49.425 108.657 50.0829C108.48 50.1975 108.429 50.434 108.544 50.6107C108.651 50.7776 108.867 50.8304 109.038 50.7437Z" fill="#1C1D1E"/>
<path d="M103.957 30.1211L93.8591 22.2103L82.1903 13.0713C88.4064 6.37116 100.794 -1.06747 104.702 1.18527C105.441 1.61323 106.034 2.61441 106.467 4.04355C108.094 9.40414 107.476 20.757 103.957 30.1211Z" fill="#38393A"/>
<path d="M100.343 32.7498L90.2458 24.839C92.7088 18.3013 98.902 3.34342 102.854 6.67221C104.48 12.0328 103.863 23.3857 100.343 32.7498Z" fill="#1C1D1E"/>
<path d="M102.44 4.95044C102.44 4.95044 102.44 4.95003 102.44 4.94962C102.44 4.95003 102.44 4.95044 102.44 4.95044ZM102.438 4.94718C102.221 4.67469 101.987 4.46315 101.735 4.31831C101.987 4.46356 102.221 4.6751 102.438 4.94718Z" fill="#F0F0F7"/>
<path d="M103.676 7.81079C103.621 7.59108 103.562 7.37955 103.501 7.17662C103.403 7.09438 103.303 7.02238 103.203 6.96223C103.372 7.2069 103.53 7.49043 103.676 7.81079Z" fill="#B6B8CF"/>
<path d="M103.967 30.8688C104.276 30.8688 104.567 30.6802 104.682 30.3741C106.774 24.8106 108.017 18.099 108.093 11.9611C108.129 9.059 107.91 2.13425 105.095 0.510357C100.526 -2.12616 87.7181 5.98878 81.6432 12.5371C81.3564 12.846 81.3748 13.3288 81.6837 13.6152C81.9926 13.902 82.4754 13.8836 82.7614 13.5747C89.4553 6.35988 101.147 -0.00434494 104.333 1.83189C105.499 2.50493 106.643 5.89223 106.568 11.9418C106.493 17.91 105.285 24.4325 103.254 29.8369C103.106 30.2313 103.305 30.6716 103.699 30.8197C103.788 30.8528 103.878 30.8688 103.967 30.8688Z" fill="#1C1D1E"/>
<path d="M100.031 24.1787C97.9097 21.4309 96.1434 19.564 94.6055 18.1729C93.2565 16.9565 92.0851 16.1084 91.0038 15.3617C91.2468 14.0594 99.2034 6.70339 100.536 8.93813C100.935 9.60626 101.225 10.6295 101.407 11.85C101.976 15.6313 101.513 21.3061 100.031 24.1787Z" fill="#5E5E5E"/>
<path d="M99.8949 8.92023C101.203 11.1128 101.294 18.2029 99.8479 22.2878C96.5547 18.1849 94.151 16.23 92.0062 14.7133C93.1424 13.1757 97.6581 9.07899 99.6192 8.87891C99.7079 8.86991 99.861 8.86336 99.8949 8.92064V8.92023ZM100.171 25.1841L100.721 24.1199C102.763 20.1668 103.035 11.2053 101.205 8.13877C100.984 7.76808 100.433 7.17932 99.2374 7.39289C96.4323 7.89532 90.5534 13.2776 90.2682 14.8148L90.1778 15.3008L90.5845 15.5815C92.9399 17.2078 95.5637 19.2155 99.4395 24.2361L100.171 25.1841Z" fill="#1C1D1E"/>
<path d="M66.7949 14.6268L53.087 29.2152L47.1626 35.5193C41.755 26.487 39.2886 14.691 40.4809 9.41555C40.7264 8.33051 41.1261 7.52286 41.687 7.06912C45.3427 4.11388 59.3068 9.16147 66.7949 14.6268Z" fill="#38393A"/>
<path d="M59.5674 33.7879L52.5733 40.5271C46.1893 30.8714 43.2777 18.2613 44.6852 12.6216C46.0681 10.8935 48.3861 9.59102 50.947 14.809C53.6022 20.2124 57.4035 28.8232 59.5674 33.7879Z" fill="#1C1D1E"/>
<path d="M47.6917 36.2654C47.825 36.2654 47.9601 36.2302 48.0828 36.157C48.4441 35.9405 48.5619 35.4716 48.3455 35.1104C45.3759 30.1516 43.0724 23.9354 42.0254 18.0561C40.9637 12.0948 41.5963 8.53161 42.694 7.645C44.135 6.48017 48.0243 6.76289 53.0973 8.39987C57.9857 9.97671 63.2641 12.5924 66.8731 15.226C67.2131 15.4744 67.6906 15.3999 67.9393 15.0591C68.1877 14.7191 68.1128 14.2416 67.7728 13.9933C64.0414 11.2708 58.5978 8.5713 53.5657 6.94782C50.2468 5.87668 44.2958 4.38904 41.735 6.45808C37.8538 9.59375 40.6777 25.275 47.0362 35.8943C47.1794 36.1328 47.4323 36.2654 47.6917 36.2654Z" fill="#1C1D1E"/>
<path d="M68.104 12.2654C69.6019 11.7069 71.0654 11.2945 72.427 11.0547C74.1855 10.7454 76.5209 10.4676 79.2217 10.4439C76.5201 10.4672 74.1843 10.7446 72.4254 11.0547C71.0646 11.2941 69.6015 11.7065 68.104 12.2654Z" fill="#F6F6FA"/>
<path d="M79.4882 70.9812C77.5132 71.0361 75.535 70.9792 73.5679 70.7967C57.0839 69.2657 49.7533 62.906 47.3111 58.0396C47.2399 57.8944 47.1703 57.7496 47.1016 57.6027C47.0627 57.5188 47.0272 57.4325 46.9903 57.349C46.8942 57.1322 46.8001 56.9145 46.7183 56.6915C46.6724 56.5667 46.6266 56.4419 46.5808 56.3171C46.5767 56.3073 46.5742 56.2983 46.5722 56.2889C46.566 56.268 46.5579 56.2464 46.5493 56.2271C46.5161 56.1253 46.4822 56.0258 46.4507 55.9248C46.4085 55.8037 46.3713 55.6817 46.3361 55.5598C46.3009 55.4473 46.2698 55.3352 46.2387 55.2231C46.2007 55.0856 46.1626 54.9481 46.1291 54.8095C46.0689 54.5664 46.0129 54.3177 45.9605 54.0697C45.9442 53.9895 45.9278 53.9093 45.9143 53.8255C45.8947 53.7404 45.8795 53.6536 45.8652 53.5652C45.8451 53.4626 45.828 53.3558 45.8108 53.2514C45.195 49.4288 45.6455 45.2228 46.5321 41.2284C47.4126 37.2588 48.7214 33.4972 49.8388 30.5297C49.8388 30.5297 51.5171 26.7001 55.728 21.6566C59.3203 17.3549 62.7448 14.9401 63.6748 14.3243C63.8347 14.2171 63.9211 14.1648 63.9211 14.1648C66.8121 12.6166 69.8074 11.5156 72.4263 11.0549C76.652 10.3115 84.2109 9.7497 92.1618 12.464C98.3869 14.5866 102.409 18.6907 105.068 23.141C108.931 29.6013 109.914 36.7879 110.581 39.6859C110.761 40.4588 112.317 42.4456 113.284 45.3578L113.283 45.3599C113.359 45.5825 113.427 45.8099 113.493 46.0431C113.524 46.1553 113.555 46.2674 113.583 46.3807C113.615 46.4993 113.645 46.6176 113.672 46.7371C113.673 46.7399 113.675 46.7424 113.674 46.7465C113.697 46.8479 113.721 46.9494 113.743 47.055C113.753 47.1118 113.766 47.1716 113.778 47.2313C113.817 47.4342 113.855 47.6396 113.885 47.8495C113.906 47.9768 113.922 48.1048 113.938 48.2353C113.952 48.3389 113.964 48.4465 113.974 48.5537C113.979 48.6003 113.985 48.6498 113.989 48.6989C113.999 48.8081 114.006 48.9166 114.014 49.0254C114.024 49.1612 114.03 49.2979 114.034 49.4337C114.045 49.705 114.046 49.9848 114.04 50.2671C114.036 50.4083 114.031 50.5466 114.024 50.6914L114.023 50.6935C114.016 50.8183 114.009 50.9435 113.997 51.0715C113.993 51.1079 113.991 51.1443 113.987 51.1828C113.976 51.3068 113.962 51.4348 113.948 51.5625C113.923 51.7642 113.896 51.9675 113.861 52.1738C112.828 58.4418 105.191 65.0613 92.2997 68.9474C88.1424 70.2006 83.8283 70.8605 79.4882 70.9812Z" fill="#38393A"/>
<path d="M109.264 59.9336C105.606 63.4473 99.8958 66.6451 92.3999 68.9175C88.2111 70.1875 83.8635 70.8597 79.4882 70.9812C77.5132 71.0361 75.535 70.9792 73.5679 70.7967C57.0839 69.2657 49.7533 62.906 47.3111 58.0396C47.2399 57.8944 47.1703 57.7496 47.1016 57.6027C47.0627 57.5188 47.0272 57.4325 46.9903 57.349C46.8942 57.1322 46.8001 56.9145 46.7182 56.6915C46.6724 56.5667 46.6266 56.4419 46.5808 56.3171C46.5767 56.3073 46.5742 56.2983 46.5722 56.2889C46.5304 56.1658 46.4883 56.0471 46.4507 55.9248C46.4085 55.8037 46.3713 55.6817 46.3361 55.5598C46.3009 55.4473 46.2698 55.3352 46.2387 55.2231C46.2007 55.0856 46.1626 54.9481 46.1291 54.8095C46.0689 54.5664 46.0129 54.3177 45.9605 54.0697C45.9441 53.9895 45.9278 53.9093 45.9143 53.8255C45.8946 53.7404 45.8795 53.6536 45.8652 53.5652C45.8451 53.4626 45.8279 53.3558 45.8108 53.2514C46.697 53.7743 47.694 54.3267 48.7914 54.8716C53.4986 57.2238 59.9974 59.4745 67.0257 58.7998C77.6785 57.7798 81.7004 50.9398 83.5452 48.8908C83.5452 17.166 89.691 46.6417 91.3971 48.7153C95.0225 53.1213 110.373 55.9751 113.283 45.3599C113.359 45.5825 113.427 45.8099 113.493 46.0431C113.524 46.1553 113.555 46.2674 113.583 46.3807C113.615 46.4993 113.645 46.6176 113.672 46.7371C113.673 46.7399 113.675 46.7424 113.674 46.7465C113.697 46.8479 113.721 46.9494 113.743 47.055C113.753 47.1118 113.766 47.1716 113.778 47.2313C113.817 47.4342 113.853 47.6392 113.885 47.8495C113.906 47.9768 113.922 48.1048 113.938 48.2353C113.952 48.3389 113.964 48.4465 113.974 48.5537C113.979 48.6003 113.985 48.6498 113.989 48.6989C113.999 48.8081 114.006 48.9166 114.014 49.0254C114.024 49.1612 114.03 49.2979 114.034 49.4337C114.045 49.705 114.046 49.9848 114.04 50.2671C114.036 50.4083 114.031 50.5466 114.024 50.6914L114.023 50.6935C114.016 50.8183 114.009 50.9435 113.997 51.0715C113.993 51.1079 113.991 51.1443 113.987 51.1828C113.976 51.3068 113.962 51.4348 113.948 51.5625C113.923 51.7642 113.896 51.9675 113.861 52.1738C113.434 54.7734 111.869 57.4329 109.264 59.9336Z" fill="white"/>
<path d="M46.1325 54.8172C46.1636 54.9547 46.2013 55.0889 46.2389 55.2231C46.27 55.3344 46.3011 55.4461 46.3371 55.5594C46.3715 55.6822 46.4079 55.8049 46.4512 55.9248C46.4881 56.0471 46.5314 56.1646 46.5728 56.2893C46.5736 56.2983 46.5769 56.3077 46.5801 56.3168C46.6264 56.4432 46.6726 56.5671 46.7188 56.6915C46.7994 56.9149 46.8935 57.133 46.9901 57.3502C47.0281 57.4333 47.0637 57.5188 47.1018 57.6039C47.1709 57.7492 47.2397 57.8948 47.3113 58.0401C49.7526 62.9052 57.0845 69.2645 73.5689 70.7955C75.5356 70.98 77.5138 71.0357 79.4871 70.9817C83.8637 70.8585 88.2117 70.1875 92.3988 68.9175C99.8968 66.6452 105.606 63.4469 109.265 59.9336C111.869 57.4321 113.433 54.7747 113.862 52.1725C113.897 51.9663 113.923 51.7634 113.947 51.5633C113.961 51.4361 113.975 51.3064 113.987 51.184C113.991 51.144 113.995 51.1088 113.998 51.0711C114.01 50.9439 114.017 50.8175 114.022 50.6931L114.025 50.6906C114.029 50.6088 114.031 50.527 114.035 50.4472C113.238 51.6992 106.953 63.8211 91.4474 66.5988C59.7236 72.2817 49.884 59.4647 46.1325 54.8172Z" fill="#F3F3F3"/>
<path d="M64.1018 14.501C67.0468 13.1259 70.0986 12.0351 73.305 11.619C81.404 10.5667 90.9158 11.4059 97.7452 16.2186C103.515 20.3387 106.715 27.0359 108.403 33.7655C108.833 35.4156 109.207 37.2972 109.553 38.9833C109.668 39.5684 109.794 40.1964 110.087 40.7021C110.706 41.8301 111.339 42.8661 111.847 44.0252C112.669 45.8393 113.156 47.7811 113.199 49.7655C113.301 53.6687 111.405 56.7483 108.651 59.3885C102.836 64.8031 95.035 67.6487 87.4209 69.5124C85.9729 69.7979 84.4783 70.1109 83.0349 70.3769C82.8274 70.4157 82.6904 70.6154 82.7292 70.8228C82.7644 71.0115 82.9326 71.1416 83.1187 71.135C86.1542 71.0008 89.1642 70.5864 92.0871 69.7705C101.049 67.2748 115.17 60.6569 114.885 49.7434C114.837 46.1552 113.483 43.1165 111.704 40.0954L111.603 39.9092L111.521 39.7402C111.347 39.3618 111.325 39.0373 111.232 38.6364L110.876 36.8771C109.45 29.7481 106.844 22.4679 101.53 17.2897C95.3259 11.144 86.0731 9.39451 77.6284 9.73942C75.1989 9.87852 72.7367 10.1698 70.3952 10.8515C68.0377 11.5478 65.8173 12.583 63.7417 13.8288C63.3444 14.0988 63.6505 14.6909 64.1018 14.501Z" fill="#1C1D1E"/>
<path d="M58.959 18.232C56.8372 20.2413 54.3606 22.787 51.101 28.6213C50.887 28.3472 50.6787 28.0375 50.4815 27.6995C49.0892 25.3441 48.0766 21.6049 47.773 18.4369C47.5828 16.4653 47.6642 14.7158 48.1003 13.6569C49.1085 11.2013 58.4979 16.9906 58.959 18.232Z" fill="#5E5E5E"/>
<path d="M58.959 18.232C56.8372 20.2413 54.3606 22.787 51.101 28.6213C50.887 28.3472 50.6787 28.0375 50.4815 27.6995C50.6039 25.4026 52.2392 22.8029 52.8051 20.8288C53.9793 16.7325 50.7516 14.4679 49.6358 14.9621C48.9747 15.2555 48.1179 17.4685 47.773 18.4369C47.5828 16.4653 47.6642 14.7158 48.1003 13.6569C49.1085 11.2013 58.4979 16.9906 58.959 18.232Z" fill="#5E5E5E"/>
<path d="M57.9268 18.1628C55.958 20.0678 53.7912 22.4588 51.0496 27.1713C48.8831 23.4211 47.8132 16.3626 48.8054 13.947C48.8422 13.8574 49.0403 13.8312 49.1552 13.8235C51.2701 13.6831 56.4989 16.8519 57.9268 18.1628ZM51.1011 29.3844C51.1203 29.3844 51.14 29.3836 51.1592 29.3824C51.4145 29.3627 51.6424 29.2171 51.7672 28.9937C54.9434 23.3078 57.3201 20.8337 59.4824 18.7868C59.7042 18.5765 59.7794 18.2541 59.6731 17.9673C59.2676 16.8744 56.0751 14.9867 55.4393 14.6196C53.9602 13.765 51.2005 12.3268 49.3369 12.2945C48.0448 12.2732 47.5624 12.9569 47.3943 13.3673C46.0085 16.7415 47.7494 25.5577 50.4993 29.0902C50.6445 29.2768 50.8671 29.3844 51.1011 29.3844Z" fill="#1C1D1E"/>
<path d="M80.6992 44.4068C81.0681 48.8836 78.4935 52.7978 74.9488 53.1502C71.4041 53.5021 68.2318 50.1589 67.8629 45.682C67.4935 41.2052 70.0681 37.291 73.6128 36.9386C77.1575 36.5867 80.3303 39.9305 80.6992 44.4068Z" fill="#1C1D1E"/>
<path d="M69.5134 45.6219C70.1164 45.6219 70.7817 44.8409 71.0591 43.7612C71.3627 42.5796 71.0873 41.488 70.4442 41.3227C70.3889 41.3084 70.3329 41.3014 70.276 41.3014C69.6729 41.3014 69.0077 42.0829 68.7303 43.1626C68.4267 44.3442 68.702 45.4358 69.3452 45.6011C69.4004 45.6154 69.4565 45.6219 69.5134 45.6219Z" fill="#747473"/>
<path d="M93.8996 42.0206C93.9348 46.4395 96.7939 50.0473 100.287 50.0778C103.779 50.1083 106.582 46.55 106.548 42.1311C106.512 37.7116 103.653 34.1043 100.16 34.0739C96.6677 34.0434 93.8649 37.6011 93.8996 42.0206Z" fill="#1C1D1E"/>
<path d="M103.471 41.1586C103.541 41.1586 103.61 41.1467 103.675 41.1213C104.244 40.9041 104.396 39.7941 104.014 38.6423C103.676 37.624 103.033 36.9133 102.496 36.9133C102.426 36.9133 102.358 36.9256 102.292 36.9505C101.723 37.1682 101.571 38.2778 101.953 39.4295C102.291 40.4483 102.933 41.1586 103.471 41.1586Z" fill="#747473"/>
<path d="M55.8938 52.7187C51.705 50.0637 45.8059 49.6791 41.0775 50.8591C40.7489 50.9377 40.4228 51.0228 40.0967 51.107C39.893 51.1598 39.7707 51.3677 39.823 51.5714C39.8725 51.7625 40.0583 51.882 40.2494 51.8529C40.8083 51.7678 41.4105 51.6647 41.9694 51.5694C42.991 51.4536 44.0965 51.3505 45.1288 51.319C46.0674 51.3145 47.1127 51.3366 48.0411 51.4278C50.6011 51.6888 53.1505 52.3001 55.4944 53.3688C55.9195 53.6012 56.3009 52.9973 55.8938 52.7187Z" fill="#1C1D1E"/>
<path d="M57.5595 55.1897C52.704 53.045 45.8661 52.7344 40.385 53.6875C40.0042 53.751 39.6262 53.8197 39.2482 53.8878C39.0121 53.9305 38.8703 54.0984 38.931 54.2629C38.9883 54.4173 39.2037 54.5138 39.4251 54.4903C40.073 54.4216 40.7711 54.3383 41.4189 54.2613C42.6032 54.1678 43.8846 54.0845 45.0812 54.059C46.1691 54.0554 47.3809 54.0732 48.457 54.1469C51.4244 54.3578 54.3796 54.8516 57.0966 55.7149C57.5894 55.9026 58.0314 55.4148 57.5595 55.1897Z" fill="#1C1D1E"/>
<path d="M56.7994 57.6222C52.1041 56.7499 46.6723 57.9225 43.4392 61.6114C43.1291 61.9763 43.6397 62.4677 43.9916 62.1379C45.6498 60.5857 47.714 59.5538 49.9045 59.0023C52.1069 58.4483 54.4386 58.2895 56.7049 58.3771C57.168 58.3931 57.2564 57.7225 56.7994 57.6222Z" fill="#1C1D1E"/>
<path d="M83.8318 53.4237C83.8318 53.4237 83.8892 55.9613 84.4464 58.4227C85.0162 60.9311 86.1073 63.3584 88.191 62.9369C89.7206 62.6302 90.6095 60.9113 91.1237 58.9653C91.8925 56.0652 91.8329 52.6595 91.8329 52.6595L83.8318 53.4237Z" fill="#5E5E5E"/>
<path d="M84.3484 57.4968C84.8991 60.5143 85.9536 63.4342 87.9674 62.9272C89.4457 62.5583 90.3048 60.4905 90.8018 58.1495C90.4768 57.9669 90.1276 57.849 89.7602 57.8056C88.9899 57.7157 88.2568 57.9686 87.6403 58.4726C87.0948 57.833 86.4029 57.4134 85.6352 57.3236C85.1898 57.2718 84.7552 57.3349 84.3484 57.4968Z" fill="#ED1D24"/>
<path d="M87.471 64.0173C87.6765 64.0178 87.8848 63.9981 88.096 63.9591C92.6642 63.1149 92.6251 54.1863 92.6056 53.1713C92.5975 52.743 92.2509 52.4013 91.8286 52.4013C91.8233 52.4013 91.8186 52.4013 91.8133 52.4018C91.3838 52.41 91.0425 52.768 91.0506 53.2016C91.0949 55.5897 90.5996 61.9002 87.8161 62.4147C87.2841 62.5129 86.8446 62.4002 86.4299 62.06C84.6461 60.5969 84.1408 55.6807 84.0959 53.9101C84.0855 53.4832 83.7394 53.1444 83.3189 53.1444C83.3122 53.1444 83.306 53.1444 83.2994 53.1449C82.8699 53.1554 82.5304 53.5154 82.5414 53.9491C82.5591 54.6739 82.7907 61.0969 85.4484 63.2781C86.0442 63.7671 86.7345 64.0173 87.471 64.0173Z" fill="#1C1D1E"/>
<path d="M94.4128 52.1099C94.4128 52.1099 94.531 55.3002 93.0436 56.1435C90.7762 57.4281 88.7389 55.9658 87.6826 54.6374C87.6826 54.6374 85.9452 58.2865 82.5854 57.0503C80.6205 56.3273 79.7014 53.7171 79.7014 53.7171L88.0062 50.0781L94.4128 52.1099Z" fill="white"/>
<path d="M87.5752 50.3145C87.6329 51.2519 87.5159 52.2551 87.1239 53.1123C86.7635 54.0561 88.1918 54.5037 88.4332 53.521C88.6116 52.6773 88.5891 51.8173 88.441 50.9786C88.391 50.7049 88.3329 50.4483 88.2487 50.1681C88.1938 49.9856 88.0011 49.8821 87.8187 49.9369C87.6525 49.9864 87.5539 50.1496 87.5752 50.3145Z" fill="#000072"/>
<path d="M96.6098 52.4013C96.3681 53.7642 96.1627 54.1127 95.19 54.9827C91.5761 57.2476 88.8657 53.0797 87.9623 50.4739L87.1786 53.0797C86.1553 57.3971 80.7345 58.0803 78.6694 53.0797C78.5142 52.7039 77.9901 52.522 77.6369 52.7117C77.3323 52.8738 77.3787 53.1757 77.3787 53.4339C77.7949 54.6924 77.9284 55.2877 78.7984 56.2734C81.9664 59.7761 87.2491 58.2942 89.2212 54.1521L87.3271 54.3812C88.1116 55.4056 89.1103 56.2693 90.3383 56.8298C92.7957 58.0503 96.6858 57.1676 97.4415 54.1965C97.8159 52.919 97.8305 52.5335 97.6423 51.2397C97.58 50.8513 97.3741 50.4104 96.9969 50.4739C96.6745 50.5274 96.6406 52.0841 96.6098 52.4013Z" fill="#1C1D1E"/>
<path d="M84.5142 94.3134H122.098C123.392 94.3134 124.44 93.2647 124.44 91.971V90.2493H89.0957L84.5142 94.3134Z" fill="#D01910"/>
<path d="M84.5148 94.3125H122.098C123.392 94.3125 124.44 93.2639 124.44 91.9706V90.2485H124.419C124.269 91.3949 123.287 92.2815 122.098 92.2815H86.8031L84.5148 94.3125Z" fill="#D01910"/>
<path d="M123.677 91.0124V91.971C123.677 93.0575 123.326 94.09 122.098 93.5503H86.5235L89.3851 91.0124H123.677ZM84.5134 95.0764H122.098C124.617 94.8644 124.44 94.09 125.203 91.971V90.2493C125.203 89.8279 124.862 89.4863 124.44 89.4863H89.0954C88.9088 89.4863 88.7288 89.555 88.5893 89.6786L84.0073 93.7426C83.7704 93.9529 83.6877 94.2876 83.8003 94.5838C83.9128 94.8804 84.1967 95.0764 84.5134 95.0764Z" fill="#1C1D1E"/>
<path d="M89.0951 90.2487L95.5375 89.9934L122.779 88.9099H122.794C124.419 88.9099 125.909 88.0041 126.654 86.5586L138.192 64.1457C138.122 63.0284 137.624 62.0309 136.863 61.3137C136.104 60.5968 135.08 60.1562 133.959 60.1521L104.316 60.0208C101.661 60.0093 99.2546 61.5788 98.1961 64.0144L91.6564 79.0463L88.3268 86.7014C87.7945 87.9276 88.1034 89.3543 89.0951 90.2487Z" fill="#FF9CA0"/>
<path d="M89.0957 90.2487L95.5381 89.9934C94.7979 86.4784 93.404 80.1772 93.404 80.1772C93.404 80.1772 91.8742 81.306 91.657 79.0463L88.3269 86.7014C87.7951 87.9276 88.104 89.3543 89.0957 90.2487Z" fill="#D01910"/>
<path d="M122.779 88.146C122.769 88.146 122.759 88.1464 122.749 88.1468L89.4019 89.4741C88.8176 88.7986 88.6633 87.8412 89.0267 87.0061L98.8956 64.3175C99.8305 62.1679 101.945 60.7829 104.288 60.7829C104.296 60.7829 104.305 60.7829 104.314 60.7829L133.955 60.9143C135.722 60.922 137.204 62.2595 137.413 63.9943L125.977 86.2099C125.361 87.405 124.144 88.1464 122.799 88.1464C122.792 88.1464 122.786 88.146 122.779 88.146ZM89.0958 91.0125C89.106 91.0125 89.1163 91.012 89.1261 91.0116L122.794 89.6721H122.799C124.717 89.6721 126.453 88.6149 127.333 86.9092L138.871 64.4955C138.933 64.3732 138.962 64.2361 138.954 64.099C138.789 61.4691 136.596 59.4004 133.962 59.3886L104.32 59.2572C104.31 59.2572 104.298 59.2572 104.288 59.2572C101.337 59.2572 98.6739 61.0014 97.4963 63.7091L87.6274 86.3977C86.9629 87.9251 87.3479 89.7007 88.5852 90.8161C88.7255 90.9429 88.9076 91.0125 89.0958 91.0125Z" fill="#1C1D1E"/>
<path d="M89.0952 90.0808L124.44 90.2371H124.461C126.084 90.2371 127.572 89.3312 128.315 87.8874L129.917 84.1421L137.967 65.326C138.744 63.5086 137.416 61.487 135.44 61.4796L106.124 61.3499C103.38 61.3364 100.893 62.9595 99.798 65.4749L93.4035 80.177L89.0952 90.0808Z" fill="#ED1D24"/>
<path d="M89.0958 90.0808L124.441 90.2371H124.462C126.085 90.2371 127.572 89.3312 128.316 87.8878L129.918 84.1421C127.45 85.6829 122.394 87.5482 112.58 87.1894C100.115 86.7336 94.7792 81.7449 93.4041 80.1771L89.0958 90.0808Z" fill="#D01910"/>
<path d="M106.125 61.0631C103.345 60.6568 100.162 62.5295 99.5368 65.3612C99.4709 65.6652 99.8874 65.844 100.062 65.5895C101.155 64.063 102.5 62.7345 104.29 62.097C104.872 61.8769 105.488 61.7329 106.128 61.6347C106.451 61.5856 106.449 61.1089 106.125 61.0631Z" fill="#1C1D1E"/>
<path d="M95.2474 74.9826C92.8789 79.8821 90.4605 84.766 88.3873 89.7997C88.1848 90.2841 88.5669 90.852 89.0927 90.8438L124.437 91.0005C125.371 91.0153 126.765 91.0872 127.572 90.6052C128.394 90.1138 128.631 89.0665 129.06 88.2061C130.866 84.1114 132.796 79.5298 134.579 75.3966C135.472 73.2617 137.292 68.9612 138.187 66.8263C138.332 66.4417 138.783 65.5027 138.868 65.0891C139.318 63.3785 139.192 61.8286 136.596 60.926C136.151 60.7714 135.671 60.728 135.206 60.7452C132.878 60.7923 130.555 60.8618 128.231 61.066C127.767 61.1151 127.775 61.7807 128.228 61.8286C130.55 62.0532 132.872 62.1437 135.2 62.2112C136.558 62.1117 137.705 63.3699 137.351 64.7098C137.294 64.9729 136.837 65.9291 136.73 66.2036C135.8 68.3307 133.952 72.6054 133.024 74.7318C131.252 78.8768 129.301 83.4338 127.572 87.5694C127.111 88.5371 125.785 89.5055 124.444 89.4748L89.0992 89.3181L89.7956 90.3852C90.0861 89.771 90.3664 89.1524 90.6364 88.5293C91.9923 85.4149 93.223 82.2477 94.477 79.0908C94.9774 77.8273 95.4651 76.5582 95.9471 75.287C96.114 74.8336 95.4631 74.5587 95.2474 74.9826Z" fill="#1C1D1E"/>
<path d="M68.666 94.3134H86.7534C88.0471 94.3134 89.0957 93.2647 89.0957 91.971V90.2493H65.6035C65.3269 90.2493 65.1027 90.4735 65.1027 90.7501C65.1027 92.7181 66.698 94.3134 68.666 94.3134Z" fill="#D01910"/>
<path d="M65.104 90.7501C65.104 91.7341 65.5025 92.6248 66.1473 93.2696C66.7917 93.914 67.6824 94.3125 68.6664 94.3125H86.7538C88.0467 94.3125 89.0957 93.2639 89.0957 91.9706V90.2485H89.0748C88.9239 91.3949 87.9419 92.2815 86.7538 92.2815H68.6664C67.6824 92.2815 66.7917 91.883 66.1473 91.2382C65.867 90.9579 65.6342 90.6298 65.4587 90.2693C65.2529 90.3324 65.104 90.523 65.104 90.7501Z" fill="#D01910"/>
<path d="M88.3333 91.0124V91.971C88.3333 92.8421 87.625 93.5503 86.754 93.5503H68.6666C67.2108 93.5503 66.0108 92.4342 65.8783 91.0124H88.3333ZM68.6666 95.0764H86.754C88.4662 95.0764 89.8594 93.6833 89.8594 91.971V90.2493C89.8594 89.8279 89.5177 89.4863 89.0963 89.4863H65.6041C64.9074 89.4863 64.3403 90.0534 64.3403 90.7501C64.3403 93.1354 66.2813 95.0764 68.6666 95.0764Z" fill="#1C1D1E"/>
<path d="M71.0864 88.3702C72.0115 88.0249 73.0033 87.5748 74.0617 87.0102C74.4488 87.6055 76.0297 90.3877 80.0921 89.9532C81.8694 89.7625 84.143 88.6411 84.4748 85.3777C84.5358 84.7579 84.5301 84.0599 84.4347 83.2764C84.2171 81.4684 83.569 79.8813 82.5809 78.5806C79.8977 75.0469 74.7008 73.6357 68.796 75.7089C68.796 75.7089 68.0792 74.3051 67.8845 72.7544L57.6796 75.6438L57.6412 75.6553C57.6412 75.6553 57.2197 93.5479 71.0864 88.3702Z" fill="#38393A"/>
<path d="M71.0862 88.3702C72.0113 88.0249 73.0031 87.5748 74.0615 87.0102C74.4486 87.6055 76.0295 90.3877 80.0919 89.9532C81.8692 89.7625 84.1428 88.6411 84.4746 85.3777C83.8126 86.2664 82.5385 87.4034 80.3819 87.3363C75.6997 87.1915 75.0209 83.1332 72.9327 83.3009C70.8461 83.4687 67.8785 87.3175 62.7254 84.7562C59.5541 83.1806 58.2093 79.3171 57.6794 75.6438L57.641 75.6553C57.641 75.6553 57.2195 93.5479 71.0862 88.3702Z" fill="#5E5E5E"/>
<path d="M71.0862 88.3702C72.0113 88.0249 73.0031 87.5748 74.0615 87.0102C74.4486 87.6055 76.0295 90.3877 80.0919 89.9532C80.1471 89.9475 80.2044 89.9397 80.2596 89.9319C80.2653 89.9319 80.2694 89.9319 80.2731 89.9303C80.3247 89.9225 80.3779 89.9147 80.4294 89.9053C80.4867 89.8959 80.5456 89.8865 80.6029 89.873C80.6487 89.8652 80.6925 89.8558 80.7383 89.8443C80.8165 89.8272 80.8946 89.8063 80.9732 89.785C81.0206 89.7719 81.0701 89.7568 81.118 89.7433C81.2763 89.6938 81.4363 89.6365 81.5926 89.5698C81.6253 89.5584 81.6556 89.5432 81.6883 89.5297C81.8847 89.4417 82.0791 89.3407 82.2697 89.2224C82.3213 89.1901 82.3728 89.1578 82.4244 89.1214C82.4854 89.0813 82.5426 89.0396 82.6015 88.9958C82.6609 88.9536 82.7182 88.9078 82.7734 88.8604C82.8307 88.8125 82.8859 88.765 82.9411 88.7135C82.9698 88.6885 82.9964 88.6619 83.023 88.637C83.1052 88.5588 83.1834 88.4749 83.2595 88.389C83.2865 88.3587 83.311 88.3301 83.336 88.2994C83.462 88.1509 83.5782 87.9889 83.6886 87.815C83.7193 87.7655 83.7496 87.7139 83.7803 87.6624C83.8605 87.5253 83.935 87.3784 84.0033 87.2238C84.034 87.1571 84.0626 87.0884 84.0892 87.018C84.0949 87.0028 84.1007 86.9873 84.1084 86.9722C84.135 86.9034 84.16 86.8331 84.1845 86.7606C84.1997 86.7107 84.2152 86.6633 84.2304 86.6117C84.2455 86.5679 84.259 86.5221 84.2704 86.4763C84.2762 86.4554 84.2819 86.4345 84.2876 86.4133C84.3028 86.3617 84.3163 86.3106 84.3277 86.257C84.3335 86.2341 84.3371 86.2112 84.3429 86.1903C84.358 86.1273 84.3715 86.0643 84.383 85.9996C84.4001 85.9137 84.4153 85.8241 84.4288 85.7325C84.4345 85.6944 84.4402 85.6543 84.446 85.6126C84.4554 85.5361 84.4648 85.4579 84.4746 85.3798C83.811 86.2684 82.5369 87.4034 80.3819 87.3363C75.6997 87.1915 75.021 83.1332 72.9327 83.3009C72.6025 83.3275 72.2515 83.4458 71.8742 83.6156C71.7785 85.1642 71.7253 86.7909 71.0862 88.3702Z" fill="#E8E8E8"/>
<path d="M67.8284 88.3627C69.0554 87.9967 70.3709 87.5197 71.7749 86.9213C72.2882 87.5523 74.3852 90.5009 79.7737 90.0404C82.5788 89.7997 86.318 88.1606 85.5338 82.9641C85.2451 81.0479 84.3855 79.3658 83.0749 77.9874C80.4618 76.2351 76.6418 74.7699 72.3615 77.088C67.2998 79.8329 69.9156 84.2493 67.8284 88.3627Z" fill="white"/>
<path d="M71.0862 88.3702C72.0113 88.0249 73.0031 87.5748 74.0615 87.0102C74.4486 87.6055 76.0295 90.3877 80.0919 89.9532C80.1471 89.9475 80.2044 89.9397 80.2596 89.9319C80.2653 89.9319 80.2694 89.9319 80.2731 89.9303C80.3247 89.9225 80.3779 89.9147 80.4294 89.9053C80.4867 89.8959 80.5456 89.8865 80.6029 89.873C80.6487 89.8652 80.6925 89.8558 80.7383 89.8443C80.8165 89.8272 80.8946 89.8063 80.9732 89.785C81.0206 89.7719 81.0701 89.7568 81.118 89.7433C81.2763 89.6938 81.4363 89.6365 81.5926 89.5698C81.6253 89.5584 81.6556 89.5432 81.6883 89.5297C81.8847 89.4417 82.0791 89.3407 82.2697 89.2224C82.3213 89.1901 82.3728 89.1578 82.4244 89.1214C82.4854 89.0813 82.5426 89.0396 82.6015 88.9958C82.6588 88.9516 82.7182 88.9078 82.7734 88.8604C82.8307 88.8125 82.8859 88.765 82.9411 88.7135C82.9698 88.6885 82.9964 88.6619 83.023 88.637C83.1052 88.5588 83.1834 88.4749 83.2595 88.389C83.2865 88.3587 83.311 88.3301 83.336 88.2994C83.462 88.1509 83.5782 87.9889 83.6886 87.815C83.7193 87.7655 83.7496 87.7139 83.7803 87.6624C83.8605 87.5253 83.935 87.3784 84.0033 87.2238C84.034 87.1571 84.0626 87.0884 84.0892 87.018C84.0949 87.0028 84.1007 86.9873 84.1084 86.9722C84.135 86.9034 84.16 86.8331 84.1845 86.7606C84.1997 86.7107 84.2152 86.6633 84.2304 86.6117C84.2455 86.5679 84.259 86.5221 84.2704 86.4763C84.2762 86.4554 84.2819 86.4345 84.2876 86.4133C84.3028 86.3617 84.3163 86.3106 84.3277 86.257C84.3335 86.2341 84.3371 86.2112 84.3429 86.1903C84.358 86.1273 84.3715 86.0643 84.383 85.9996C84.4001 85.9137 84.4153 85.8241 84.4288 85.7325C84.4345 85.6944 84.4402 85.6543 84.446 85.6126C84.4554 85.5361 84.4648 85.4579 84.4746 85.3798C83.811 86.2684 82.5369 87.4034 80.3819 87.3363C75.6997 87.1915 75.021 83.1332 72.9327 83.3009C72.6025 83.3275 72.2515 83.4458 71.8742 83.6156C71.7785 85.1642 71.7253 86.7909 71.0862 88.3702Z" fill="#F3F3F3"/>
<path d="M57.261 75.6463C56.9002 79.027 57.4566 82.4961 59.0412 85.5303C62.4555 91.8639 69.0656 90.7412 74.4197 87.6837L73.4218 87.4267C75.0141 90.1594 78.0574 91.2919 81.0887 90.5432C85.4047 89.4078 87.3402 83.4274 86.1554 79.7635C84.2471 73.8535 76.4838 73.0457 70.82 74.3464C70.0463 74.5137 69.2886 74.7359 68.5435 74.9896L69.4756 75.3623C69.0808 74.7756 68.7375 74.0833 68.4871 73.4123C68.2993 73.0617 68.3533 72.3077 67.7875 72.4238C67.6148 72.4717 67.5027 72.6309 67.5068 72.8019C67.5301 73.9213 67.7429 74.9957 68.1168 76.0566C68.2911 76.4024 68.6949 76.5566 69.0488 76.4294C69.737 76.1957 70.4334 75.9912 71.1396 75.8381C73.2266 75.3918 75.4573 75.3672 77.4923 75.9899C82.0253 77.377 83.636 78.2285 84.4776 80.9251C85.3662 83.6779 84.0722 88.2262 80.7029 89.0674C78.2844 89.6471 75.9519 88.7797 74.7003 86.5945C74.4851 86.2574 74.0461 86.1498 73.702 86.3376C72.7512 86.8126 71.7876 87.2516 70.8041 87.608C69.8197 87.9582 68.8169 88.2254 67.8149 88.3727C60.2907 89.4606 58.7356 81.436 58.0237 75.6643C57.9889 75.2138 57.3195 75.1909 57.261 75.6463Z" fill="#1C1D1E"/>
<path d="M72.6581 83.6029C72.7616 84.9064 72.9011 86.1093 73.3864 87.3657C73.5406 87.7647 73.9923 87.961 74.3892 87.8011C74.8409 87.626 75.0135 87.0519 74.7369 86.6559C74.4452 86.2287 74.1961 85.7005 73.9788 85.1609C73.762 84.6155 73.5676 84.0394 73.4093 83.4756C73.2841 83.0378 72.6307 83.152 72.6581 83.6029Z" fill="#1C1D1E"/>
<path d="M65.3272 78.0415C66.5403 77.2854 67.8136 76.9265 69.1458 76.3877C70.1584 75.9274 69.4109 74.4733 68.4465 75.0314C67.2747 75.7674 65.9176 76.4687 64.8788 77.4245C64.7196 77.5636 64.7033 77.8058 64.8424 77.9649C64.966 78.1065 65.1713 78.1343 65.3272 78.0415Z" fill="#1C1D1E"/>
<path d="M55.8574 108.82C56.9203 112.143 58.6778 116.005 62.0427 115.617C63.3525 115.468 68.6189 109.002 69.6901 106.246C70.9662 102.958 71.3576 100.124 71.1144 97.7243C70.1613 88.2631 59.3318 85.5707 53.8244 88.5878L45.2282 80.2799C43.4855 82.7798 41.9537 86.4119 41.3085 90.2574C39.9253 98.465 42.5823 107.638 55.8574 108.82Z" fill="#38393A"/>
<path d="M55.8482 109.742C58.7132 111.988 58.6702 117.049 62.0372 116.655C63.3478 116.504 68.6174 109.927 69.6892 107.124C70.9661 103.78 71.3577 100.898 71.1143 98.4573C69.1406 98.1544 66.5832 98.5175 63.4619 100.464C54.2707 106.199 49.3562 104.046 46.4824 102.432C43.1159 100.54 41.8026 94.9442 41.2904 90.8633C39.4956 100.464 45.657 112.64 55.8482 109.742Z" fill="#1C1D1E"/>
<path d="M53.673 89.1406C61.7004 86.1222 69.6017 90.6329 70.5105 97.9211C70.9703 101.063 70.3236 104.327 69.2254 107.332C68.0784 109.815 66.3899 112.151 64.618 114.354C63.9794 115.099 63.2468 116 62.4674 116.512C62.4777 116.508 62.4895 116.506 62.5009 116.504C62.5089 116.503 62.5374 116.503 62.5104 116.505L62.4214 116.514C60.2368 116.739 58.9578 114.487 58.1887 113.023C57.7037 112.058 57.3125 111.037 56.9575 110.003C56.8506 109.693 56.5349 109.487 56.1815 109.463C54.2008 110.002 52.9574 109.96 51.3114 109.462C40.2281 106.182 39.9362 93.0336 43.0378 84.8883C43.5938 83.4111 44.2756 81.9675 45.12 80.6186C45.6465 79.735 44.1616 79.0206 43.5634 79.9062C40.1455 85.5765 38.6557 92.6193 39.973 98.8979C41.5818 106.263 46.1152 111.865 54.7269 112.399L55.1209 112.399C56.1824 112.399 57.6177 117.426 62.0315 118.058C62.3223 118.052 62.6236 118.043 62.91 117.982C63.3253 117.893 63.6416 117.66 63.9475 117.428C65.6612 115.947 66.9302 114.159 68.1981 112.403C69.2844 110.809 70.3648 109.191 71.0565 107.419C72.0483 104.566 72.6513 101.556 72.44 98.5761C72.072 92.7868 67.8541 87.6818 60.9295 86.7864C59.5731 86.6136 58.1685 86.6184 56.8161 86.8913C55.4727 87.1681 54.1653 87.6945 53.1695 88.5189C52.8016 88.8252 53.2273 89.3315 53.673 89.1406Z" fill="#1C1D1E"/>
<path d="M61.4466 112.507C61.3891 112.961 61.0433 115.154 62.605 116.421C65.3347 118.635 72.6554 117.464 76.0647 111.122C78.4749 106.639 78.3811 101.307 73.8952 99.6125C70.8374 98.4573 66.9583 101.81 65.3023 105.873C65.3023 105.873 64.5463 107.13 63.2461 108.904C61.7111 110.998 61.4466 112.507 61.4466 112.507Z" fill="white"/>
<path d="M61.6607 117.884C64.1138 119.893 70.0223 119.328 74.0225 115.055C70.21 117.643 65.7128 117.841 63.9497 115.925C61.2198 112.955 66.6401 102.988 66.7764 102.738C65.8728 103.825 65.099 105.106 64.5547 106.459C64.5547 106.459 63.7443 107.823 62.3483 109.743C60.7015 112.011 60.4182 113.646 60.4182 113.646C60.3579 114.138 59.9861 116.513 61.6607 117.884Z" fill="#F3F3F3"/>
<path d="M59.5473 112.943C57.9966 118.643 64.3552 119.999 69.2162 118.342C73.6298 116.933 76.8281 113.433 78.2073 109.51C79.4893 106.079 79.3168 101.47 75.5648 99.2993C74.4945 98.6752 73.1867 98.233 71.9033 98.3764C68.9254 98.6897 66.4812 100.862 65.0469 103.049C64.4927 103.936 64.061 104.883 63.8469 105.875C63.7995 106.095 63.9604 106.307 64.2067 106.349C64.3983 106.383 64.5856 106.302 64.6809 106.161C66.2786 103.927 68.0157 101.441 70.7871 100.34C71.761 99.9846 72.723 99.9234 73.5795 100.294C76.2618 101.306 77.1691 103.876 76.8903 106.333C76.3998 110.755 73.3112 115.151 68.5561 116.764C65.7262 117.785 61.0305 117.823 60.5504 114.394C60.469 113.959 60.4374 113.518 60.434 113.038C60.4326 112.816 60.2295 112.637 59.9808 112.638C59.771 112.64 59.5957 112.769 59.5473 112.943Z" fill="#1C1D1E"/>
<path d="M54.2397 106.252C54.004 107.613 53.8729 108.95 53.8902 110.323C53.9702 111.577 56.941 111.562 56.9863 110.307C56.8042 109.599 56.4538 108.909 56.2733 108.187C56.0796 107.544 55.9106 106.888 55.7746 106.243C55.6542 105.691 54.337 105.704 54.2397 106.252Z" fill="#1C1D1E"/>
<path d="M86.497 78.2278C87.7408 77.5331 89.0767 76.8625 90.4145 76.4092C91.4415 76.0132 90.8004 74.53 89.8074 75.0095C88.4462 75.7542 87.2531 76.6379 86.06 77.6027C85.7016 77.9018 86.096 78.4619 86.497 78.2278Z" fill="#1C1D1E"/>
<path d="M66.2205 110.977C65.0496 112.364 64.7698 114.212 65.966 115.196C67.6227 116.558 70.2712 115.304 71.387 113.982C72.5022 112.661 73.0191 110.166 70.9106 109.339C69.3883 108.741 67.3914 109.591 66.2205 110.977Z" fill="#5E5E5E"/>
<path d="M84.7788 92.2816C84.7788 92.6417 85.0709 92.9342 85.4314 92.9342C85.7919 92.9342 86.084 92.6417 86.084 92.2816C86.084 91.9212 85.7919 91.629 85.4314 91.629C85.0709 91.629 84.7788 91.9212 84.7788 92.2816Z" fill="#1C1D1E"/>
<path d="M79.1261 92.9342H82.5703V91.629H79.1261V92.9342Z" fill="#1C1D1E"/>
<path d="M69.7613 92.6265H70.7699C70.9397 92.6265 71.0771 92.4886 71.0771 92.3188C71.0771 92.149 70.9397 92.0111 70.7699 92.0111H69.7613C69.5916 92.0111 69.4537 92.149 69.4537 92.3188C69.4537 92.4886 69.5916 92.6265 69.7613 92.6265Z" fill="#1C1D1E"/>
<path d="M77.6051 87.1763C77.4652 87.5805 76.9681 88.7523 76.4513 88.5928C75.4547 88.1771 74.8066 89.6054 75.7767 90.0812C75.9951 90.195 76.2668 90.1426 76.4947 90.1176C76.9124 90.0726 77.2934 89.8603 77.536 89.6103C77.9811 89.1512 78.1415 88.6263 78.2647 88.0605C78.3015 87.6877 78.5719 86.9586 77.9979 86.8907C77.8113 86.8801 77.6526 87.0049 77.6051 87.1763Z" fill="#1C1D1E"/>
<path d="M81.4322 87.1889C81.289 87.9037 81.0194 89.0337 80.1991 89.1782C78.9999 89.4052 79.5412 91.1306 80.6614 90.6323C82.0153 90.0595 82.2935 88.4863 82.1949 87.191C82.1527 86.7274 81.4768 86.7303 81.4322 87.1889Z" fill="#1C1D1E"/>
<path d="M62.9376 95.9606C63.1234 95.9606 63.2428 95.8256 63.2854 95.5032C63.4425 94.3134 62.0989 91.7628 60.0433 90.6957C58.6032 89.9486 57.2587 89.6954 56.19 89.6954C54.9 89.6954 54.0114 90.064 53.8395 90.3774C53.4807 91.0324 55.5166 91.2681 59.0798 93.313C60.849 94.3285 62.2924 95.9606 62.9376 95.9606Z" fill="#38393A"/>
<path d="M122.551 63.6857C129.308 63.6857 135.548 63.5118 133.949 63.1914C131.548 62.7107 124.593 62.3854 118.428 62.3854C114.023 62.3854 110.022 62.5515 108.37 62.9459C106.247 63.4533 114.744 63.6857 122.551 63.6857Z" fill="#FF9CA0"/>
<path d="M98.2206 44.0224C98.8193 43.4257 99.79 43.5325 100.389 44.1292L100.482 44.2222L100.575 44.1292C101.174 43.5325 102.145 43.4257 102.743 44.0224C103.342 44.6191 103.342 45.5869 102.743 46.1839L102.65 46.2766L100.768 48.1531C100.61 48.3104 100.354 48.3104 100.196 48.1531L98.3138 46.2766L98.2206 46.1839C97.6219 45.5869 97.6219 44.6191 98.2206 44.0224Z" fill="white"/>
<path d="M73.1659 46.78C73.6816 46.0846 74.7018 46.0157 75.422 46.4961L75.5342 46.571L75.6144 46.4627C76.1301 45.7673 77.1137 45.4878 77.8339 45.9682C78.5541 46.4486 78.72 47.4021 78.2043 48.0977L78.124 48.2058L76.5027 50.3925C76.3667 50.5758 76.1026 50.6217 75.9127 50.4951L73.6483 48.9842L73.5363 48.9096C72.816 48.4288 72.6502 47.4754 73.1659 46.78Z" fill="white"/>
<path d="M72.1794 105.828C71.8654 106.539 71.9207 107.37 72.4634 107.766C73.0058 108.164 73.9626 107.802 74.3845 106.846C74.8068 105.889 74.4393 104.916 73.789 104.763C73.1388 104.61 72.4935 105.117 72.1794 105.828Z" fill="#5E5E5E"/>
<path d="M69.1502 105.605C68.9735 106.317 69.1777 107.095 69.7775 107.403C70.377 107.712 71.242 107.251 71.4792 106.294C71.7168 105.337 71.1831 104.463 70.5229 104.399C69.8627 104.334 69.3268 104.894 69.1502 105.605Z" fill="#5E5E5E"/>
<path d="M73.3974 108.906C73.1014 109.439 73.1447 110.06 73.6419 110.354C74.1395 110.649 75.0258 110.374 75.424 109.658C75.8222 108.941 75.4915 108.215 74.8926 108.104C74.2938 107.992 73.6935 108.374 73.3974 108.906Z" fill="#5E5E5E"/>
<path d="M65.7071 107.869C65.6582 108.454 65.964 109.027 66.5544 109.165C67.1454 109.304 67.8561 108.797 67.922 108.011C67.9879 107.224 67.3686 106.633 66.7611 106.695C66.1537 106.757 65.756 107.284 65.7071 107.869Z" fill="#5E5E5E"/>
<path d="M49.4804 30.395C45.6765 38.3193 42.2594 51.2855 47.0578 59.3493C50.4492 64.7937 56.5724 67.8112 62.5349 69.5713C66.1116 70.5614 69.8086 71.2922 73.5322 71.176C73.9659 71.158 74.0543 70.5365 73.6161 70.4199C71.2275 69.8262 68.834 69.4891 66.479 68.9433C64.4795 68.5182 62.345 67.9044 60.4286 67.1815C55.7877 65.4062 51.2053 62.757 48.5295 58.4622C44.9528 52.2977 46.449 44.2503 48.2169 37.6896C48.8519 35.3538 49.57 33.0348 50.1943 30.6638C50.2487 30.4589 50.1268 30.249 49.9218 30.195C49.743 30.1475 49.5597 30.2355 49.4804 30.395Z" fill="#1C1D1E"/>
<ellipse rx="1.41974" ry="2.19414" transform="matrix(-0.875406 -0.483388 -0.483388 0.875406 119.613 66.5918)" fill="#1C1D1E"/>
<path d="M83.4756 50.7337C83.6977 51.7029 86.819 53.1848 88.4761 52.9433C90.2549 52.6845 92.0045 50.7085 92.1397 49.7286C92.2985 48.5812 90.6855 47.4462 87.197 48.0652C84.3433 48.5711 83.2323 49.6709 83.4756 50.7337Z" fill="#FE0098"/>
<path fill-rule="evenodd" clip-rule="evenodd" d="M90.6792 48.99C91.291 49.2497 91.3126 49.5399 91.2991 49.6371L91.2991 49.6373C91.288 49.717 91.2228 49.9073 91.0416 50.1868C90.8701 50.4514 90.6274 50.7453 90.3333 51.0258C89.7289 51.6021 89.0035 52.0325 88.3523 52.1268L88.3521 52.1268C87.7628 52.2122 86.7556 51.9835 85.7987 51.5511C85.3384 51.343 84.9387 51.1092 84.6543 50.8897C84.5121 50.78 84.4137 50.6852 84.3525 50.6116C84.3203 50.5729 84.3055 50.5486 84.3 50.5388C84.2709 50.3878 84.2991 50.1451 84.7123 49.8247C85.1647 49.4739 85.9989 49.1123 87.3438 48.8752L87.344 48.8751C88.9778 48.5868 90.0639 48.7288 90.6792 48.99ZM87.067 47.3483C88.8723 47.0297 90.3007 47.1407 91.3011 47.5653C92.305 47.9915 93.0002 48.82 92.8574 49.8476M87.0669 47.3483C85.5988 47.6072 84.4787 48.0327 83.7401 48.6054C82.9785 49.196 82.5644 50.007 82.7698 50.8995L82.7699 50.8997C82.8344 51.1797 82.986 51.4145 83.1364 51.5953C83.2917 51.7821 83.4824 51.9548 83.685 52.1112C84.0902 52.424 84.603 52.7168 85.1434 52.9611C86.1883 53.4333 87.5363 53.8127 88.5806 53.6614C89.683 53.5019 90.6968 52.8368 91.4266 52.1409C91.7995 51.7853 92.1227 51.3989 92.3668 51.0222C92.6014 50.6604 92.8017 50.2484 92.8573 49.8479" fill="#1C1D1E"/>
<path d="M87.9755 50.067C88.0012 50.067 88.0272 50.0663 88.0524 50.0647C88.3034 50.05 89.2053 49.9875 89.2444 49.7678C89.2834 49.5478 89.017 49.3626 88.1765 49.3429C88.1366 49.3418 88.098 49.3414 88.0606 49.3414C87.3812 49.3414 87.1066 49.4918 87.0728 49.6822C87.0391 49.8716 87.5459 50.067 87.9755 50.067Z" fill="#F3F3F3"/>
<path d="M119.223 81.8074C119.333 81.6542 119.468 81.5485 119.521 81.5714C119.467 81.5434 119.502 81.3862 119.592 81.2187C119.67 81.0438 119.781 80.9122 119.842 80.9263C119.785 80.9116 119.78 80.7519 119.841 80.5718C119.899 80.39 120.001 80.2487 120.06 80.2504C119.997 80.2451 119.979 80.0926 120.022 79.9073C120.06 79.7224 120.149 79.5733 120.21 79.5719C120.146 79.5702 120.118 79.419 120.147 79.2332C120.175 79.0499 120.252 78.893 120.316 78.8911C120.252 78.893 120.216 78.7465 120.237 78.5601C120.256 78.372 120.325 78.2162 120.391 78.2123C120.327 78.2181 120.286 78.0701 120.303 77.8842C120.318 77.6967 120.384 77.5414 120.45 77.5334C120.384 77.5414 120.344 77.3949 120.358 77.206C120.371 77.0205 120.435 76.8635 120.501 76.8556C120.488 76.8553 120.476 76.8514 120.466 76.8415C120.423 76.8012 120.398 76.6769 120.413 76.5279C120.429 76.3404 120.495 76.185 120.558 76.1791C120.558 76.1791 120.558 76.1791 120.56 76.1771C120.494 76.181 120.451 76.0355 120.474 75.847C120.496 75.6623 120.564 75.5084 120.63 75.5007C120.628 75.4988 120.63 75.4967 120.63 75.4967C120.568 75.4971 120.525 75.3511 120.56 75.1632C120.595 74.9824 120.671 74.8404 120.732 74.8241C120.732 74.8204 120.734 74.8144 120.734 74.8109C120.68 74.794 120.661 74.6486 120.7 74.4674C120.755 74.2862 120.848 74.149 120.908 74.1436C120.91 74.1415 120.913 74.136 120.913 74.1323C120.86 74.1094 120.858 73.9605 120.917 73.7787C120.99 73.5988 121.097 73.4712 121.159 73.4747C121.159 73.471 121.161 73.4689 121.161 73.4653C121.11 73.4405 121.123 73.286 121.205 73.1069C121.296 72.9321 121.414 72.8068 121.471 72.8217C121.473 72.8197 121.473 72.8197 121.475 72.8176C121.426 72.7908 121.445 72.6265 121.555 72.4583C121.663 72.2835 121.791 72.1644 121.844 72.1945C121.842 72.1928 121.84 72.1912 121.838 72.1893C121.818 72.1701 121.818 72.1237 121.84 72.0626C121.775 72.0907 121.727 72.0919 121.709 72.0669C121.742 72.1175 121.63 72.2529 121.462 72.3699C121.3 72.4893 121.137 72.5181 121.108 72.4708C121.106 72.4728 121.106 72.4728 121.104 72.4749C121.122 72.5311 121.004 72.6564 120.834 72.7568C120.66 72.849 120.507 72.871 120.479 72.8216C120.476 72.822 120.474 72.8241 120.47 72.8245C120.477 72.8856 120.356 73.0005 120.179 73.0818C120.002 73.1523 119.853 73.1595 119.828 73.1079C119.824 73.1083 119.819 73.111 119.817 73.113C119.815 73.1733 119.683 73.2744 119.505 73.3398C119.327 73.3887 119.18 73.3789 119.161 73.3252C119.157 73.3256 119.151 73.3281 119.147 73.3283C119.135 73.39 118.997 73.474 118.819 73.5192C118.633 73.5655 118.485 73.5305 118.482 73.4692C118.482 73.4692 118.48 73.4712 118.478 73.4693C118.474 73.5356 118.324 73.612 118.141 73.6449C117.954 73.6782 117.806 73.6437 117.807 73.5778C117.805 73.5798 117.805 73.5798 117.805 73.5798C117.803 73.6441 117.651 73.7188 117.465 73.745C117.277 73.7732 117.13 73.7398 117.133 73.676C117.132 73.6905 117.125 73.7038 117.112 73.7182C117.061 73.7716 116.935 73.8197 116.791 73.8391C116.603 73.8638 116.455 73.8324 116.459 73.7664C116.455 73.8324 116.303 73.9071 116.117 73.9333C115.932 73.9611 115.782 73.9281 115.784 73.8642C115.784 73.9301 115.631 74.0068 115.446 74.0381C115.261 74.0696 115.113 74.0422 115.111 73.9783C115.111 74.0403 114.961 74.1278 114.779 74.1663C114.595 74.2065 114.443 74.1867 114.438 74.1235C114.44 74.1837 114.296 74.2811 114.114 74.3305C113.931 74.3835 113.778 74.3747 113.767 74.3103C113.774 74.3712 113.639 74.4805 113.461 74.5494C113.282 74.6183 113.123 74.623 113.107 74.5687C113.124 74.6281 112.999 74.7472 112.829 74.8352C112.667 74.9347 112.512 74.9789 112.481 74.9263C112.507 74.9779 112.409 75.1188 112.263 75.2368C112.127 75.3695 111.987 75.4502 111.939 75.4213C111.962 75.4424 111.955 75.4904 111.933 75.5475C111.908 75.6091 111.863 75.6833 111.818 75.7655C111.713 75.9219 111.616 76.0519 111.553 76.0357C111.559 76.0372 111.564 76.0418 111.567 76.0451C111.586 76.0626 111.591 76.0986 111.588 76.1501C111.588 76.212 111.573 76.2955 111.544 76.3809C111.503 76.559 111.421 76.7071 111.359 76.711C111.428 76.7098 111.449 76.8546 111.447 77.0314C111.436 77.2111 111.396 77.3671 111.331 77.3838C111.348 77.3802 111.366 77.3855 111.381 77.4C111.425 77.4418 111.459 77.5471 111.478 77.6738C111.499 77.8496 111.48 78.0067 111.414 78.0329C111.475 78.0092 111.56 78.128 111.601 78.2957C111.647 78.4632 111.639 78.6226 111.576 78.6521C111.639 78.6226 111.733 78.7311 111.792 78.8916C111.853 79.0535 111.855 79.2115 111.796 79.2444C111.826 79.2261 111.864 79.2432 111.905 79.2819C111.948 79.3223 111.993 79.3878 112.031 79.4667C112.101 79.6221 112.117 79.7767 112.059 79.815C112.117 79.7767 112.225 79.8713 112.308 80.0195C112.389 80.1698 112.412 80.3197 112.354 80.3617C112.41 80.3218 112.526 80.4082 112.615 80.5538C112.704 80.6958 112.734 80.8453 112.677 80.8884C112.734 80.8453 112.854 80.9271 112.95 81.0645C113.043 81.1992 113.082 81.337 113.038 81.3879C113.084 81.3386 113.224 81.3699 113.366 81.4569C113.509 81.545 113.597 81.6597 113.557 81.7193C113.597 81.6597 113.748 81.6818 113.895 81.7622C114.045 81.8421 114.138 81.9531 114.102 82.0118C114.14 81.9511 114.291 81.9654 114.446 82.0377C114.599 82.1118 114.7 82.2147 114.665 82.2753C114.7 82.2147 114.855 82.2214 115.014 82.2822C115.173 82.3466 115.279 82.4392 115.25 82.5047C115.252 82.499 115.256 82.4949 115.26 82.4907C115.306 82.4414 115.449 82.4404 115.602 82.4877C115.765 82.5371 115.879 82.6251 115.853 82.6901C115.879 82.6251 116.038 82.6077 116.208 82.6438C116.378 82.6759 116.499 82.7519 116.481 82.8162C116.503 82.7478 116.659 82.7201 116.836 82.7315C117.009 82.747 117.145 82.7942 117.134 82.8612C117.136 82.8515 117.14 82.8402 117.15 82.83C117.198 82.7786 117.329 82.7428 117.479 82.7248C117.655 82.7124 117.801 82.7259 117.804 82.7946C117.804 82.7326 117.947 82.6425 118.121 82.5888C118.206 82.5566 118.289 82.5375 118.351 82.5335C118.413 82.526 118.456 82.5319 118.467 82.5617C118.456 82.5319 118.478 82.4946 118.519 82.4515C118.567 82.4001 118.64 82.3442 118.721 82.2812C118.801 82.2319 118.873 82.1832 118.932 82.1541C118.988 82.129 119.036 82.1195 119.058 82.1406C119.026 82.0953 119.099 81.9502 119.223 81.8074Z" fill="#5ABE34"/>
<path d="M120.891 73.0676L113.145 81.4899L113.163 81.4683C113.098 81.5569 113.038 81.6305 112.971 81.7077C112.905 81.7833 112.837 81.8568 112.765 81.9279C112.622 82.0698 112.468 82.2023 112.299 82.319C112.13 82.4353 111.947 82.535 111.751 82.601C111.556 82.6678 111.35 82.6963 111.155 82.681L111.26 82.291C111.541 82.3251 111.855 82.2196 112.142 82.0297C112.285 81.9355 112.423 81.8238 112.553 81.7009C112.618 81.6395 112.681 81.5753 112.742 81.5088C112.801 81.4438 112.863 81.3713 112.912 81.3079L112.923 81.2931L112.93 81.2863L120.891 73.0676Z" fill="#448D35"/>
<path d="M113.075 81.288C113.075 81.288 112.957 80.9838 112.826 80.5134C112.761 80.2769 112.691 79.9993 112.633 79.6954C112.571 79.3925 112.523 79.0625 112.492 78.7285C112.471 78.5628 112.471 78.3912 112.46 78.2262C112.456 78.0589 112.462 77.8923 112.463 77.7327C112.477 77.5709 112.49 77.4144 112.502 77.2662C112.527 77.1172 112.551 76.9764 112.573 76.8465C112.607 76.7173 112.639 76.5988 112.667 76.4937C112.69 76.3879 112.736 76.2997 112.762 76.2258C112.82 76.0783 112.853 75.9944 112.853 75.9944C112.853 75.9944 112.824 76.0791 112.772 76.2276C112.75 76.3026 112.708 76.3908 112.69 76.4964C112.667 76.6007 112.641 76.7184 112.612 76.8472C112.597 76.9754 112.58 77.1143 112.562 77.2615C112.556 77.4069 112.551 77.5604 112.544 77.7192C112.552 77.8759 112.553 78.0386 112.565 78.2011C112.584 78.3627 112.592 78.5291 112.62 78.6903C112.667 79.0151 112.73 79.3346 112.805 79.6268C112.877 79.9204 112.961 80.1876 113.035 80.4149C113.189 80.869 113.317 81.1517 113.317 81.1517L113.075 81.288Z" fill="#448D35"/>
<path d="M112.484 78.1831C112.484 78.1831 112.468 78.1779 112.439 78.1685C112.41 78.1597 112.37 78.1318 112.322 78.105C112.299 78.0908 112.274 78.0755 112.247 78.0594C112.227 78.0381 112.205 78.0164 112.182 77.9933C112.137 77.948 112.089 77.8997 112.041 77.8514C111.993 77.8043 111.965 77.7389 111.928 77.6876C111.894 77.6341 111.862 77.584 111.835 77.5411C111.781 77.4561 111.745 77.3993 111.745 77.3993C111.745 77.3993 111.788 77.4507 111.852 77.5277C111.884 77.5661 111.922 77.6107 111.961 77.6581C112.004 77.7036 112.038 77.762 112.091 77.8017C112.143 77.8416 112.195 77.8816 112.243 77.9192C112.267 77.9377 112.291 77.9556 112.312 77.9726C112.337 77.9834 112.36 77.9936 112.381 78.0032C112.425 78.0205 112.455 78.0406 112.485 78.046C112.515 78.0519 112.532 78.0551 112.532 78.0551L112.484 78.1831Z" fill="#448D35"/>
<path d="M114.45 79.7965C114.45 79.7965 114.414 79.4806 114.387 79.0048C114.36 78.5285 114.345 77.8878 114.377 77.2405C114.392 76.9169 114.422 76.5915 114.46 76.2859C114.5 75.9801 114.554 75.6943 114.612 75.45C114.64 75.3278 114.677 75.2166 114.704 75.1182C114.729 75.019 114.763 74.9341 114.79 74.8644C114.843 74.725 114.873 74.6455 114.873 74.6455C114.873 74.6455 114.847 74.7262 114.8 74.8666C114.777 74.9368 114.747 75.0214 114.727 75.1205C114.705 75.2194 114.673 75.3299 114.652 75.4517C114.606 75.6945 114.567 75.978 114.541 76.2799C114.519 76.5814 114.505 76.9022 114.507 77.2197C114.507 77.8561 114.554 78.4831 114.605 78.9476C114.655 79.4134 114.706 79.7149 114.706 79.7149L114.45 79.7965Z" fill="#448D35"/>
<path d="M115.827 78.3616C115.828 78.3619 115.799 78.121 115.788 77.7581C115.778 77.3941 115.788 76.9035 115.847 76.4091C115.879 76.1616 115.92 75.914 115.974 75.6824C116.005 75.5666 116.026 75.4544 116.061 75.349C116.095 75.244 116.123 75.1442 116.156 75.0532C116.192 74.9628 116.225 74.88 116.254 74.8066C116.282 74.7328 116.317 74.6716 116.341 74.6199C116.391 74.5172 116.42 74.4588 116.42 74.4588C116.42 74.4588 116.394 74.5182 116.348 74.6225C116.327 74.6746 116.294 74.7364 116.27 74.8105C116.245 74.8842 116.216 74.9673 116.185 75.0579C116.156 75.1491 116.133 75.2487 116.104 75.3532C116.075 75.4581 116.059 75.5695 116.034 75.6839C115.992 75.9133 115.963 76.1578 115.944 76.4007C115.909 76.8869 115.924 77.3661 115.951 77.7193C115.98 78.074 116.02 78.3003 116.02 78.3003L115.827 78.3616Z" fill="#448D35"/>
<path d="M117.447 76.6686C117.447 76.6686 117.443 76.6298 117.44 76.5552C117.434 76.4813 117.435 76.376 117.436 76.2505C117.435 76.1878 117.443 76.1185 117.447 76.046C117.454 75.9735 117.453 75.8975 117.467 75.8178C117.49 75.6587 117.505 75.4899 117.548 75.3202C117.583 75.1511 117.619 74.982 117.673 74.8253C117.723 74.6685 117.76 74.521 117.817 74.399C117.917 74.153 117.984 73.9891 117.984 73.9891C117.984 73.9891 117.924 74.1545 117.835 74.4024C117.785 74.5255 117.754 74.6732 117.712 74.8293C117.666 74.9856 117.638 75.153 117.612 75.3203C117.577 75.4879 117.571 75.6538 117.555 75.8095C117.545 75.8876 117.549 75.9614 117.546 76.0324C117.546 76.1026 117.541 76.1697 117.545 76.2306C117.55 76.3521 117.554 76.4531 117.563 76.5205C117.569 76.5891 117.576 76.6295 117.576 76.6295L117.447 76.6686Z" fill="#448D35"/>
<path d="M113.257 81.0954C113.257 81.0954 113.547 81.2075 114.009 81.3345C114.24 81.3955 114.512 81.4634 114.809 81.5183C115.105 81.5775 115.428 81.6213 115.755 81.6494C115.917 81.668 116.084 81.6664 116.246 81.6759C116.409 81.6786 116.572 81.6711 116.728 81.6689C116.887 81.6537 117.04 81.6389 117.185 81.6248C117.33 81.5983 117.468 81.574 117.595 81.551C117.722 81.5151 117.838 81.4823 117.941 81.4535C118.046 81.4292 118.131 81.3826 118.204 81.3554C118.35 81.2956 118.433 81.2615 118.433 81.2615C118.433 81.2615 118.351 81.2993 118.207 81.3658C118.135 81.3959 118.049 81.447 117.945 81.4759C117.842 81.5101 117.725 81.5485 117.598 81.5903C117.47 81.6198 117.33 81.6513 117.183 81.6847C117.036 81.7061 116.881 81.7284 116.72 81.7515C116.561 81.7611 116.394 81.7766 116.228 81.7823C116.062 81.7808 115.89 81.7905 115.724 81.78C115.389 81.7678 115.057 81.7393 114.751 81.695C114.444 81.6543 114.162 81.5996 113.923 81.5492C113.446 81.4453 113.135 81.3446 113.135 81.3446L113.257 81.0954Z" fill="#448D35"/>
<path d="M116.395 81.7015C116.395 81.7015 116.399 81.7183 116.406 81.7479C116.414 81.7776 116.435 81.8059 116.455 81.8484C116.466 81.8691 116.477 81.8915 116.489 81.9155C116.508 81.9362 116.527 81.9587 116.547 81.9815C116.587 82.0278 116.63 82.0769 116.673 82.1263C116.715 82.177 116.776 82.2083 116.823 82.2477C116.873 82.2848 116.92 82.3195 116.96 82.3492C117.041 82.409 117.094 82.4486 117.094 82.4486C117.094 82.4486 117.036 82.416 116.948 82.3668C116.903 82.3423 116.851 82.3136 116.796 82.2827C116.743 82.2491 116.676 82.2251 116.626 82.1793C116.575 82.1343 116.524 82.0893 116.476 82.047C116.452 82.0258 116.429 82.0049 116.407 81.9856C116.389 81.9597 116.372 81.9354 116.357 81.913C116.327 81.8676 116.297 81.8286 116.287 81.8004C116.276 81.7726 116.27 81.7563 116.27 81.7563L116.395 81.7015Z" fill="#448D35"/>
<path d="M114.612 79.6255C114.612 79.6255 114.915 79.6588 115.383 79.6825C115.85 79.7068 116.479 79.717 117.114 79.6808C117.431 79.6648 117.75 79.6317 118.05 79.5921C118.35 79.5497 118.631 79.4934 118.871 79.4345C118.991 79.4056 119.1 79.3677 119.197 79.3401C119.295 79.3142 119.378 79.2793 119.446 79.2521C119.584 79.1978 119.663 79.1668 119.663 79.1668C119.663 79.1668 119.585 79.2015 119.449 79.2621C119.381 79.2928 119.298 79.3318 119.201 79.3629C119.104 79.3952 118.995 79.4386 118.875 79.4737C118.634 79.5454 118.352 79.6157 118.049 79.6737C117.746 79.7292 117.423 79.7782 117.101 79.8113C116.456 79.8801 115.816 79.9029 115.339 79.903C114.863 79.904 114.545 79.8858 114.545 79.8858L114.612 79.6255Z" fill="#448D35"/>
<path d="M115.948 78.2333C115.949 78.2336 116.177 78.2596 116.532 78.2679C116.887 78.2754 117.366 78.2624 117.849 78.1996C118.091 78.1664 118.333 78.1236 118.56 78.0684C118.672 78.0369 118.783 78.0143 118.886 77.9791C118.989 77.9444 119.087 77.9156 119.176 77.8816C119.264 77.8452 119.346 77.812 119.418 77.7825C119.491 77.7536 119.55 77.7176 119.601 77.6936C119.703 77.6419 119.76 77.6125 119.76 77.6125C119.76 77.6125 119.704 77.6445 119.604 77.7007C119.554 77.7272 119.495 77.7662 119.423 77.7987C119.352 77.8317 119.27 77.869 119.182 77.9097C119.094 77.9485 118.995 77.9819 118.892 78.0219C118.789 78.0625 118.678 78.0908 118.565 78.1282C118.336 78.1949 118.092 78.2506 117.847 78.2967C117.356 78.3843 116.867 78.4223 116.503 78.4332C116.14 78.4437 115.898 78.4288 115.898 78.4288L115.948 78.2333Z" fill="#448D35"/>
<path d="M117.527 76.5836C117.528 76.5839 117.568 76.589 117.637 76.5907C117.705 76.5956 117.806 76.5939 117.927 76.5918C117.988 76.5923 118.055 76.5833 118.126 76.5791C118.196 76.572 118.27 76.5719 118.347 76.5576C118.502 76.5329 118.667 76.5167 118.833 76.4727C118.998 76.4369 119.164 76.399 119.317 76.3437C119.471 76.2931 119.616 76.2538 119.736 76.1962C119.978 76.0932 120.14 76.0243 120.14 76.0243C120.14 76.0243 119.98 76.1004 119.741 76.2151C119.622 76.2781 119.477 76.3245 119.323 76.3826C119.17 76.4454 119.003 76.4919 118.836 76.5365C118.67 76.5887 118.502 76.6134 118.344 76.6459C118.265 76.664 118.189 76.6681 118.117 76.679C118.046 76.6869 117.977 76.6994 117.914 76.7018C117.789 76.7102 117.684 76.7174 117.61 76.7158C117.535 76.7172 117.496 76.7143 117.496 76.7143L117.527 76.5836Z" fill="#448D35"/>
</svg>
