<svg width="289" height="247" viewBox="0 0 289 247" fill="none" xmlns="http://www.w3.org/2000/svg">
<path d="M142.245 234.677C86.171 234.677 40.7129 231.438 40.7129 227.444C40.7129 223.447 86.171 220.21 142.245 220.21C198.32 220.21 243.778 223.447 243.778 227.444C243.778 231.438 198.32 234.677 142.245 234.677Z" fill="#ABA7A7"/>
<path d="M129.156 220.126C127.258 227.244 124.119 235.515 118.112 234.686C115.772 234.366 106.368 220.518 104.454 214.613C102.177 207.572 101.478 201.502 101.912 196.363C103.614 176.098 122.951 170.332 132.785 176.794L148.137 159C151.249 164.355 153.983 172.134 155.136 180.37C157.606 197.949 152.862 217.594 129.156 220.126Z" fill="#8E8FB3"/>
<path d="M129.156 220.126C127.258 227.244 124.119 235.515 118.112 234.686C115.772 234.366 106.368 220.518 104.454 214.613C102.177 207.572 101.478 201.502 101.912 196.363C105.434 195.725 109.998 196.489 115.568 200.588C131.971 212.666 140.742 208.133 145.87 204.733C151.878 200.75 154.222 188.963 155.136 180.37C157.606 197.949 152.861 217.594 129.156 220.126Z" fill="#747473"/>
<path d="M132.351 177.456C124.572 174.227 115.455 175.935 109.647 182.09C105.683 186.182 103.768 192.021 103.47 197.689C103.212 203.539 104.39 209.512 106.289 215.013C108.875 220.893 112.537 226.464 116.639 231.416C117.216 232.052 117.76 232.684 118.454 233.137C118.464 233.144 118.498 233.166 118.437 233.134C118.417 233.126 118.395 233.121 118.373 233.119C118.357 233.117 118.306 233.118 118.352 233.121C118.689 233.167 119.074 233.168 119.411 233.128C124.187 232.373 126.454 223.806 127.627 219.717C127.803 219.068 128.357 218.62 128.989 218.551C132.05 218.182 135.066 217.538 137.894 216.443C156.951 209.206 156.345 184.514 150.577 168.269C149.54 165.322 148.289 162.448 146.759 159.777C145.773 157.967 148.394 156.398 149.508 158.205C155.722 169.468 158.65 183.608 156.665 196.367C154.226 211.344 144.269 220.136 129.324 221.7L130.687 220.535C129.06 226.238 126.393 235.816 119.255 236.32C118.746 236.324 118.22 236.325 117.715 236.216C116.982 236.058 116.414 235.601 115.866 235.145C112.815 232.25 110.523 228.709 108.235 225.232C106.27 222.072 104.315 218.865 103.026 215.324C101.163 209.617 99.9708 203.567 100.192 197.535C100.55 185.807 107.641 175.243 119.643 173.046C121.995 172.62 124.439 172.55 126.805 173.029C129.155 173.517 131.455 174.514 133.221 176.133C133.888 176.749 133.156 177.821 132.351 177.456Z" fill="#1C1D1E"/>
<path d="M122.51 227.725C122.652 228.708 123.508 233.455 119.649 236.197C112.903 240.989 94.8136 238.454 86.3892 224.728C80.4335 215.022 80.6658 203.482 91.7504 199.814C99.3053 197.314 108.892 204.572 112.983 213.364C112.983 213.364 114.851 216.086 118.064 219.926C121.857 224.459 122.51 227.725 122.51 227.725Z" fill="white"/>
<path d="M119.639 235.076C113.972 239.18 100.32 238.025 91.0771 229.297C99.8851 234.585 110.277 234.988 114.352 231.073C120.658 225.008 108.134 204.649 107.82 204.137C109.907 206.359 111.696 208.975 112.953 211.74C112.953 211.74 114.826 214.524 118.052 218.448C121.857 223.08 122.512 226.419 122.512 226.419C122.651 227.424 123.509 232.275 119.639 235.076Z" fill="#F3F3F3"/>
<path d="M123.212 226.967C126.768 239.245 112.321 242.192 101.296 238.62C91.2957 235.589 84.0493 228.057 80.9229 219.612C78.0141 212.219 78.4159 202.288 86.9269 197.613C89.3591 196.266 92.3326 195.313 95.2492 195.623C102.001 196.299 107.55 200.975 110.793 205.691C112.044 207.6 113.017 209.64 113.488 211.776C113.595 212.264 113.218 212.733 112.643 212.825C112.199 212.895 111.768 212.719 111.545 212.41C107.827 207.321 99.6705 196.896 91.4787 199.848C85.4435 202.014 83.4075 207.511 84.0359 212.764C85.1432 222.242 92.1083 231.665 102.834 235.126C109.175 237.318 119.79 237.385 120.87 230.084C121.058 229.151 121.133 228.208 121.146 227.177C121.152 226.685 121.627 226.291 122.206 226.295C122.692 226.3 123.098 226.585 123.212 226.967Z" fill="#1C1D1E"/>
<path d="M107.262 219.757C110.038 222.588 111.248 226.731 109.276 229.329C106.545 232.926 100.944 230.827 98.2983 228.129C95.6532 225.432 93.751 219.879 97.5517 217.374C100.298 215.565 104.486 216.926 107.262 219.757Z" fill="#FE0098"/>
<path d="M94.7553 209.896C95.7924 211.512 96.1593 213.584 95.3021 214.803C94.446 216.022 92.3244 215.553 90.9309 213.382C89.5365 211.21 89.7119 208.648 90.9242 207.983C92.1365 207.317 93.7182 208.281 94.7553 209.896Z" fill="#FE0098"/>
<path d="M100.279 208.194C101.004 209.789 101.042 211.701 100.069 212.676C99.0977 213.651 97.2001 212.934 96.2257 210.79C95.2506 208.645 95.7872 206.369 97.0078 205.941C98.2285 205.513 99.5536 206.599 100.279 208.194Z" fill="#FE0098"/>
<path d="M94.1344 217.832C94.9895 218.877 95.2286 220.26 94.4126 221.119C93.5957 221.979 91.7242 221.753 90.574 220.348C89.4237 218.942 89.6903 217.206 90.7999 216.704C91.9094 216.203 93.2792 216.787 94.1344 217.832Z" fill="#FE0098"/>
<path d="M108.065 212.055C108.478 213.407 108.209 214.879 107.162 215.452C106.114 216.026 104.485 215.136 103.929 213.319C103.374 211.502 104.228 209.854 105.417 209.744C106.607 209.634 107.652 210.704 108.065 212.055Z" fill="#FE0098"/>
<path d="M111.365 190.493C110.992 190.493 110.751 190.221 110.665 189.571C110.369 187.335 112.706 182.711 116.384 180.357C116.873 182.201 117.382 184.054 117.926 185.914C114.92 187.923 112.514 190.493 111.365 190.493Z" fill="#C7C7D9"/>
<path d="M88.3998 180.344C88.3998 180.344 85.1056 187.446 78.1742 186.71C74.4656 186.314 69.7116 183.958 69.0696 177.094C68.9516 175.835 68.9711 174.426 69.1613 172.851C70.8394 158.901 84.8568 151.257 101.621 157.144C101.621 157.144 101.641 157.056 101.68 156.886C101.989 155.433 103.434 148.051 102.333 140.066L124.774 157.032C124.774 157.032 132.94 193.728 88.3998 180.344Z" fill="#BBC0CB"/>
<path d="M88.3995 180.344C88.3995 180.344 85.1053 187.446 78.1739 186.71C74.4653 186.314 69.7114 183.958 69.0693 177.094C70.7958 178.285 74.3031 179.893 79.2907 178.227C86.6255 175.784 87.6751 171.101 87.6751 171.101C87.6751 171.101 104.217 181.563 109.573 173.409C115.064 165.052 105.928 159.095 101.68 156.886C101.989 155.433 103.433 148.051 102.333 140.066L124.774 157.032C124.774 157.032 132.94 193.728 88.3995 180.344Z" fill="#747473"/>
<path d="M79.2056 188.347C78.8175 188.347 78.4192 188.326 78.009 188.283C76.1279 188.083 72.5952 187.274 70.0687 184.102C67.8446 181.31 67.0106 177.46 67.5889 172.659C68.3881 166.031 71.8317 160.511 77.2871 157.117C83.523 153.238 91.865 152.522 100.408 155.085C100.881 152.299 101.612 146.441 100.765 140.284C100.646 139.417 101.252 138.618 102.118 138.499C102.989 138.38 103.783 138.985 103.902 139.851C105.155 148.953 103.244 157.166 103.161 157.51C103.058 157.947 102.774 158.319 102.38 158.534C101.986 158.749 101.52 158.787 101.097 158.639C92.8671 155.749 84.7986 156.174 78.9601 159.806C74.3361 162.683 71.4147 167.382 70.7328 173.038C70.2598 176.966 70.8695 180.024 72.5459 182.129C74.3539 184.399 76.9542 184.986 78.3436 185.134C84.0343 185.738 86.8478 179.922 86.965 179.674C87.2987 178.966 88.0995 178.603 88.8545 178.829C103.062 183.098 113.101 182.626 118.691 177.429C126.063 170.576 123.257 157.508 123.228 157.377C123.038 156.523 123.575 155.677 124.429 155.487C125.285 155.296 126.128 155.835 126.318 156.688C126.454 157.296 129.533 171.673 120.848 179.748C114.547 185.605 103.89 186.435 89.1619 182.219C87.8533 184.307 84.6219 188.347 79.2056 188.347Z" fill="#1C1D1E"/>
<path d="M263.414 105.798C263.447 106.111 263.475 106.43 263.501 106.739C263.566 107.639 263.597 108.516 263.569 109.372C262.956 128.645 237.891 132.702 232.372 112.955C228.446 98.9001 220.049 96.248 213.458 98.8406C212.438 99.2431 211.462 99.7702 210.551 100.397C208.512 101.805 206.805 103.736 205.692 105.914C204.758 107.754 204.248 109.778 204.32 111.83C204.468 115.722 205.732 119.335 207.781 122.748C212.095 129.94 219.914 136.247 228.195 142.373C230.565 144.13 232.97 145.862 235.343 147.608C238.037 149.582 240.322 151.714 242.225 153.979C245.469 157.836 247.609 162.048 248.726 166.393C249.702 170.205 249.894 174.112 249.352 177.957C246.775 196.425 227.405 213.502 197.746 211.774L195.143 189.353C201.396 191.254 207.168 191.055 211.968 189.655C212.53 189.497 213.081 189.314 213.616 189.121L213.622 189.119C213.809 189.051 213.996 188.982 214.17 188.906C221.178 186.187 225.656 180.924 225.845 176.588C226.468 162.916 201.311 146.182 191.957 135.562C174.537 115.775 178.754 92.061 197.575 79.4646C200.138 77.7488 202.974 76.2374 206.061 74.973C207.723 74.2869 209.469 73.6799 211.279 73.1456C212.601 72.7568 213.903 72.4258 215.181 72.1639C243.047 66.3784 261.468 88.9497 263.414 105.798Z" fill="#BBC0CB"/>
<path d="M234.097 158.396C227.592 162.382 223.106 161.28 221.056 158.343C217.981 153.936 222.459 157.484 228.394 153.847C232.635 151.248 232.146 146.385 238.155 147.865C245.884 149.769 241.613 153.791 234.097 158.396Z" fill="white"/>
<path d="M241.509 169.031C235.004 173.017 230.518 171.915 228.468 168.978C225.393 164.57 229.872 168.118 235.807 164.481C240.047 161.882 239.558 157.02 245.567 158.5C253.297 160.404 249.025 164.425 241.509 169.031Z" fill="white"/>
<path d="M239.129 182.594C230.206 183.833 226.756 181.678 226.889 178.792C227.089 174.461 228.814 178.525 236.955 177.394C242.773 176.587 245.728 172.646 250.346 175.535C256.285 179.252 249.44 181.162 239.129 182.594Z" fill="white"/>
<path d="M246.992 184.312C242.244 197.219 214.187 213.988 195.113 207.27L197.136 190.544C200.902 193.074 204.704 193.993 208.069 193.863C212.767 200.563 239.985 195.661 246.992 184.312Z" fill="#747473"/>
<path d="M199.994 123.608C210.292 137.793 227.058 144.359 234.181 146.619C224.999 140.343 216.219 133.818 210.554 126.018C207.865 122.313 205.877 118.319 204.889 113.923C204.367 111.603 204.404 109.27 204.887 107.109C205.709 103.401 207.838 100.203 210.687 98.47C216.353 95.0055 224.88 97.3348 231.68 112.949C241.236 134.884 264.073 128.279 260.421 106.39C260.259 105.42 260.041 104.424 259.779 103.412C258.143 108.809 252.591 119.938 243.903 117.034C231.68 112.949 231.984 92.0825 216.378 87.4473C204.489 83.916 186.64 105.213 199.994 123.608Z" fill="#747473"/>
<path d="M229.044 90.8166C222.882 94.2993 224.547 99.3012 225.376 99.3893C227.705 103.943 225.614 101.188 232.527 109.033C229.578 123.672 251.096 129.328 258.04 117.067C258.348 116.522 258.625 115.945 258.886 115.341C258.97 115.13 259.058 114.915 259.142 114.7C263.533 103.146 258.699 82.3193 237.86 76.6482C236.905 76.3831 235.912 76.1567 234.884 75.9624C233.477 75.6978 232.09 75.5016 230.731 75.3823C229.343 76.0451 225.854 78.7555 224.857 81.7702C224.733 82.1433 226.944 81.547 226.766 81.9399C226.167 83.263 222.405 87.0887 223.112 87.7957C223.275 87.9581 225.436 87.6115 225.376 87.8126C225.113 88.6969 228.501 87.956 229.044 90.8166Z" fill="white"/>
<path d="M217.318 94.0314C217.334 94.1005 217.318 94.1131 217.318 94.2691C217.384 95.3289 215.743 95.4178 217.318 98.3177C217.33 98.3095 216.209 97.0969 218.06 99.1214C220.029 97.5141 219.667 98.9483 219.667 99.6682C219.701 98.9483 219.893 99.9821 220.029 99.9221C220.135 99.8763 220.246 99.8289 220.359 99.7852C220.463 99.7445 220.567 99.7039 220.668 99.6682C220.961 99.56 221.26 99.4693 221.563 99.3895C226.969 97.9694 228.792 102.336 235.072 113.206C237.562 130.212 257.587 129.63 259.861 113.696C259.96 112.989 260.019 112.258 260.052 111.504C257.441 114.984 250.302 121.775 243.974 118.216C235.072 113.206 240.296 98.684 228.792 92.6919C225.134 90.7879 222.258 90.6603 217.525 93.4957C217.318 93.7635 217.257 93.7635 217.318 94.0314Z" fill="#D3D4E2"/>
<path d="M220.36 208.715C214.402 210.397 207.905 211.188 201.11 210.959C199.868 210.916 198.951 209.955 199.06 208.808C199.171 207.664 200.266 206.771 201.509 206.81C221.902 207.5 239.273 198.243 245.766 183.23C251.518 169.927 247.216 156.167 234.535 147.321C233.653 146.707 232.768 146.093 231.881 145.478C218.006 135.854 203.659 125.901 202.749 111.86C202.289 104.754 208.127 97.4958 215.516 96.017C218.627 95.3923 229.181 94.6548 234.33 111.391C237.175 120.644 244.112 122.913 249.187 122.044C254.523 121.135 259.93 116.408 259.964 107.917C259.999 99.2518 254.007 86.6362 242.484 79.2904C236.059 75.1949 225.457 71.2657 211.345 75.8337C198.759 79.9101 189.544 88.3039 186.064 98.8641C182.269 110.383 185.683 123.041 195.43 133.594C198.017 136.394 201.949 139.735 206.11 143.272C217.301 152.784 229.984 163.564 229.801 173.95C229.732 177.939 226.77 182.417 222.071 185.635C215.232 190.322 206.254 191.605 197.438 189.156C196.262 188.831 195.647 187.676 196.064 186.577C196.48 185.477 197.771 184.851 198.946 185.178C206.375 187.24 213.864 186.211 219.495 182.353C222.967 179.975 225.24 176.734 225.287 174.098C225.438 165.497 212.971 154.901 202.952 146.386C198.696 142.769 194.676 139.352 191.926 136.375C181.212 124.776 177.503 110.735 181.747 97.8522C185.677 85.927 195.991 76.4771 210.045 71.9267C225.921 66.7766 237.928 71.2137 245.186 75.8402C256.593 83.1121 264.527 96.2203 264.481 107.717C264.435 118.703 257.057 124.88 249.789 126.124C242.373 127.394 233.371 123.738 229.978 112.709C227.185 103.632 222.057 98.9068 216.259 100.071C211.141 101.098 206.934 106.393 207.257 111.401C208.049 123.619 221.606 133.022 234.719 142.118C235.607 142.734 236.496 143.351 237.381 143.968C251.445 153.779 256.38 169.723 249.951 184.588C244.895 196.278 234.053 204.849 220.36 208.715Z" fill="#1C1D1E"/>
<path d="M190.019 209.986C179.983 218.136 166.232 222.292 153.718 221.072C142.155 219.946 131.651 214.228 126.115 202.829C116.864 183.766 116.35 164.197 108.175 147.962C106.443 144.518 104.37 141.228 101.794 138.124L150.765 126.876L152.623 126.447C159.184 129.241 165.034 132.573 170.213 136.301C186.022 147.672 195.59 162.689 200.125 177.163C204.315 190.529 197.927 203.568 190.019 209.986Z" fill="#BBC0CB"/>
<path d="M136.189 178.767C136.189 178.767 168.087 156.041 169.018 157.319C168.221 178.767 181.312 184.551 180.095 185.064C178.877 185.576 143.566 202.223 144.497 200.063C145.428 197.903 136.189 178.767 136.189 178.767Z" fill="#747473"/>
<path d="M170.677 138.637C162.258 147.627 147.314 153.604 130.281 153.604C122.285 153.604 114.748 152.286 108.133 149.955C106.387 146.614 104.297 143.419 101.7 140.407L151.071 129.489L152.944 129.073C159.558 131.785 165.456 135.019 170.677 138.637Z" fill="#747473"/>
<path d="M145.181 152.017C140.494 153.046 135.483 153.604 130.281 153.604C122.285 153.604 114.748 152.286 108.133 149.955C108.046 149.792 107.963 149.626 107.872 149.464C107.773 149.274 107.67 149.083 107.563 148.893C107.401 148.597 107.239 148.304 107.068 148.011C106.961 147.825 106.854 147.639 106.744 147.456C106.641 147.279 106.534 147.105 106.427 146.93C106.269 146.665 106.103 146.4 105.936 146.134C105.782 145.889 105.624 145.647 105.465 145.406C105.283 145.125 105.097 144.848 104.903 144.57C104.678 144.238 104.447 143.91 104.206 143.581C104.075 143.399 103.941 143.217 103.806 143.035C103.332 142.397 102.841 141.768 102.326 141.146C102.121 140.898 101.911 140.652 101.7 140.407L151.071 129.489C147.516 135.628 144.203 143.822 145.181 152.017Z" fill="#E8E8E8"/>
<path d="M166.569 210.943C163.421 216.18 159.02 219.28 154.048 220.915C142.39 219.822 131.801 214.272 126.219 203.208C123.777 198.363 121.941 193.482 120.409 188.637C114.855 171.061 113.339 153.917 101.7 140.407L151.071 129.489C146.725 136.998 142.734 147.584 146.527 157.483C149.555 165.384 154.571 171.477 159.246 177.031C168.01 187.441 175.566 195.964 166.569 210.943Z" fill="white"/>
<path d="M166.134 219.044C162.843 225.566 158.241 229.426 153.042 231.462C140.852 230.101 125.847 227.559 120.01 213.781C117.456 207.748 115.991 197.975 117.867 191.265C129.187 194.805 147.909 196.777 158.477 176.811C167.641 189.776 175.543 200.39 166.134 219.044Z" fill="#E8E8E8"/>
<path d="M145.181 152.017C140.494 153.046 135.483 153.604 130.281 153.604C122.285 153.604 114.748 152.286 108.133 149.955C108.05 149.788 107.963 149.626 107.872 149.464C107.773 149.274 107.67 149.083 107.563 148.893C107.401 148.597 107.235 148.304 107.068 148.011C106.961 147.825 106.854 147.639 106.744 147.456C106.641 147.282 106.538 147.105 106.427 146.93C106.269 146.665 106.103 146.4 105.936 146.134C105.782 145.889 105.624 145.647 105.465 145.406C105.283 145.125 105.097 144.848 104.903 144.57C104.678 144.238 104.447 143.91 104.206 143.581C104.075 143.399 103.941 143.217 103.806 143.035C103.332 142.397 102.841 141.768 102.326 141.146C102.121 140.898 101.911 140.652 101.7 140.407L151.071 129.489C147.516 135.628 144.203 143.822 145.181 152.017Z" fill="#F3F3F3"/>
<path d="M155.15 233.408C151.512 233.173 147.954 232.537 144.572 231.48C133.405 227.989 120.453 223.788 116.26 212.983C111.866 201.662 114.798 187.108 112.958 176.279C110.5 161.804 108.177 148.131 100.097 136.476C99.5443 135.68 99.6962 134.54 100.437 133.932C101.178 133.325 102.226 133.478 102.778 134.275C111.326 146.605 113.718 160.681 116.25 175.584C118.057 186.224 116.136 200.416 120.39 211.377C125.181 223.726 138.435 225.772 145.53 227.99C159.419 232.332 176.519 229.099 189.091 219.754C197.399 213.581 204.827 200.369 201.502 185.95C198.142 171.382 187.704 144.421 155.546 127.534C154.719 127.099 154.379 126.014 154.789 125.111C155.198 124.208 156.202 123.828 157.03 124.263C170.124 131.139 181.023 140.402 189.424 151.795C196.715 161.683 202.014 173.176 204.748 185.034C208.463 201.143 200.206 215.874 190.962 222.743C180.645 230.411 167.445 234.203 155.15 233.408Z" fill="#1C1D1E"/>
<path d="M204.309 111.759C204.343 111.703 204.374 111.642 204.409 111.586C204.413 111.577 204.422 111.573 204.426 111.569L204.309 111.759Z" fill="#BDA4BE"/>
<path d="M63.7748 94.9112C58.231 89.2901 51.1884 85.1247 43.6778 82.723C42.2749 82.2127 40.8026 81.9103 39.3682 81.484C38.2358 81.2513 37.0158 81.0025 35.8884 80.7486C34.9278 80.5201 35.1575 79.0951 36.1511 79.1911C37.1317 79.2998 38.2405 79.4484 39.2277 79.5783C41.5675 79.9163 44.02 80.5609 46.2883 81.2522C48.1855 81.9171 50.2814 82.7069 52.0699 83.6037C57.0659 86.097 61.6967 89.3793 65.0359 93.9541C65.6066 94.7821 64.4287 95.6908 63.7748 94.9112Z" fill="#1C1D1E"/>
<path d="M60.4741 98.266C54.0205 94.5826 46.1609 92.2899 38.0115 91.4817C36.4822 91.2811 34.9038 91.2578 33.3512 91.1294C32.1372 91.1114 30.8294 91.0934 29.6183 91.0576C28.5849 91.0174 28.6636 89.8401 29.7164 89.7692C30.7571 89.7104 31.9368 89.6645 32.9868 89.6218C35.4789 89.5446 38.1242 89.6964 40.5815 89.9132C42.6467 90.1641 44.9345 90.4856 46.9121 90.9387C52.4351 92.1948 57.665 94.1382 61.6875 97.3105C62.3803 97.8897 61.2485 98.7939 60.4741 98.266Z" fill="#1C1D1E"/>
<path d="M62.3348 105.325C53.9588 101.712 44.1596 99.5411 35.4035 103.093C34.4787 103.459 33.8525 102.146 34.7318 101.66C41.3707 98.1178 49.4834 98.3988 56.4598 100.78C58.7952 101.585 61.0176 102.588 63.1263 103.954C63.4931 104.191 63.5984 104.682 63.3606 105.049C63.1373 105.396 62.6906 105.505 62.3348 105.325Z" fill="#1C1D1E"/>
<path d="M72.8802 62.5203L93.8392 46.1004L118.059 27.1312C105.157 13.2242 79.4439 -2.21568 71.3337 2.46018C69.7983 3.34848 68.5678 5.42656 67.6693 8.39291C64.2936 19.5195 65.5751 43.0839 72.8802 62.5203Z" fill="#BBC0CB"/>
<path d="M80.3811 67.9762L101.34 51.5563C96.2278 37.9865 83.373 6.93951 75.1703 13.8488C71.7946 24.9755 73.0761 48.5399 80.3811 67.9762Z" fill="#747473"/>
<path d="M76.0273 10.2753C76.0273 10.2753 76.0282 10.2744 76.029 10.2736C76.0282 10.2744 76.0273 10.2753 76.0273 10.2753ZM76.0324 10.2685C76.4834 9.70291 76.9691 9.26384 77.4906 8.96321C76.9691 9.26469 76.4834 9.70376 76.0324 10.2685Z" fill="#F0F0F7"/>
<path d="M73.4629 16.2119C73.5775 15.7559 73.699 15.3168 73.8264 14.8956C74.0293 14.7249 74.2365 14.5755 74.4446 14.4506C74.093 14.9585 73.7652 15.547 73.4629 16.2119Z" fill="#B6B8CF"/>
<path d="M72.8593 64.0721C72.2181 64.0721 71.6152 63.6807 71.3765 63.0454C67.0344 51.4976 64.4536 37.5668 64.2948 24.8267C64.2201 18.8031 64.6761 4.42988 70.5188 1.05929C80.0022 -4.41315 106.586 12.4305 119.196 26.0224C119.791 26.6636 119.753 27.6657 119.112 28.2601C118.471 28.8554 117.468 28.8172 116.875 28.1761C102.981 13.2007 78.7122 -0.00904083 72.1009 3.8023C69.6789 5.19928 67.3045 12.2301 67.4616 24.7868C67.6161 37.1745 70.1231 50.7129 74.3403 61.9304C74.6478 62.7491 74.2342 63.6628 73.4155 63.9702C73.2321 64.039 73.0436 64.0721 72.8593 64.0721Z" fill="#1C1D1E"/>
<path d="M81.0283 50.1859C85.4307 44.4825 89.0968 40.6074 92.2891 37.7201C95.089 35.1953 97.5203 33.4349 99.7648 31.885C99.2604 29.1819 82.7454 13.9136 79.9795 18.5521C79.1515 19.9389 78.5485 22.0628 78.1706 24.5961C76.991 32.4446 77.9524 44.2235 81.0283 50.1859Z" fill="#FE0098"/>
<path d="M81.311 18.5152C78.5968 23.0662 78.4075 37.7825 81.4086 46.2612C88.2441 37.7452 93.2333 33.6875 97.685 30.5394C95.3267 27.348 85.9537 18.8447 81.8834 18.4294C81.6991 18.4108 81.3815 18.3972 81.311 18.5161V18.5152ZM80.7369 52.2729L79.5955 50.0641C75.3579 41.8588 74.794 23.2582 78.5917 16.8932C79.0495 16.1238 80.1951 14.9017 82.6757 15.345C88.498 16.3879 100.701 27.5595 101.293 30.7501L101.48 31.7589L100.636 32.3415C95.747 35.7172 90.3009 39.8844 82.2562 50.3053L80.7369 52.2729Z" fill="#1C1D1E"/>
<path d="M150.015 30.3598L178.467 60.6399L190.764 73.7249C201.988 54.9773 207.108 30.4931 204.633 19.5432C204.123 17.291 203.294 15.6146 202.129 14.6728C194.541 8.53883 165.557 19.0158 150.015 30.3598Z" fill="#BBC0CB"/>
<path d="M165.017 70.1313L179.534 84.1194C192.785 64.0778 198.828 37.9037 195.906 26.198C193.036 22.6111 188.225 19.9075 182.909 30.7381C177.398 41.9536 169.508 59.8264 165.017 70.1313Z" fill="#747473"/>
<path d="M189.667 75.2734C189.39 75.2734 189.11 75.2004 188.855 75.0484C188.105 74.5991 187.861 73.6259 188.31 72.8761C194.474 62.5834 199.255 49.681 201.428 37.4776C203.632 25.1043 202.319 17.7084 200.04 15.8681C197.049 13.4504 188.976 14.0372 178.447 17.4349C168.3 20.7079 157.344 26.137 149.853 31.6035C149.148 32.119 148.157 31.9644 147.64 31.257C147.125 30.5513 147.28 29.5602 147.986 29.0448C155.731 23.394 167.03 17.7908 177.475 14.421C184.363 12.1977 196.716 9.10994 202.031 13.4045C210.087 19.913 204.225 52.4614 191.027 74.5032C190.73 74.9983 190.205 75.2734 189.667 75.2734Z" fill="#1C1D1E"/>
<path d="M147.299 25.4585C144.19 24.2993 141.152 23.4433 138.326 22.9456C134.676 22.3036 129.828 21.727 124.223 21.6777C129.83 21.7261 134.678 22.3019 138.329 22.9456C141.154 23.4424 144.191 24.2984 147.299 25.4585Z" fill="#F6F6FA"/>
<path d="M123.668 147.331C127.768 147.444 131.874 147.326 135.957 146.948C170.171 143.77 185.387 130.569 190.456 120.469C190.604 120.167 190.748 119.867 190.891 119.562C190.972 119.388 191.045 119.208 191.122 119.035C191.321 118.585 191.517 118.133 191.687 117.67C191.782 117.411 191.877 117.152 191.972 116.893C191.98 116.873 191.986 116.854 191.99 116.835C192.003 116.791 192.02 116.746 192.037 116.707C192.106 116.495 192.177 116.289 192.242 116.079C192.329 115.828 192.407 115.575 192.48 115.321C192.553 115.088 192.617 114.855 192.682 114.623C192.761 114.337 192.84 114.052 192.909 113.764C193.034 113.259 193.151 112.743 193.259 112.229C193.293 112.062 193.327 111.896 193.355 111.722C193.396 111.545 193.428 111.365 193.457 111.181C193.499 110.968 193.535 110.747 193.57 110.53C194.848 102.596 193.913 93.8656 192.073 85.5746C190.245 77.3354 187.529 69.5276 185.21 63.3681C185.21 63.3681 181.726 55.4193 172.986 44.9508C165.529 36.022 158.421 31.0099 156.491 29.7318C156.159 29.5093 155.98 29.4006 155.98 29.4006C149.979 26.1871 143.762 23.9018 138.326 22.9456C129.555 21.4026 113.866 20.2366 97.3626 25.8704C84.4416 30.2762 76.0928 38.7948 70.5737 48.0319C62.557 61.4412 60.5163 76.3579 59.1312 82.373C58.7575 83.9772 55.5279 88.1011 53.5203 94.1459L53.522 94.1501C53.3649 94.6121 53.2248 95.0843 53.0872 95.5683C53.0227 95.801 52.9581 96.0337 52.8995 96.269C52.8333 96.5152 52.7721 96.7607 52.7161 97.0086C52.7127 97.0146 52.7093 97.0197 52.711 97.0282C52.6643 97.2388 52.6133 97.4494 52.5683 97.6685C52.5462 97.7865 52.5199 97.9105 52.4944 98.0345C52.4146 98.4557 52.3356 98.882 52.2728 99.3177C52.2295 99.5818 52.1955 99.8476 52.1624 100.119C52.1352 100.333 52.1097 100.557 52.0885 100.779C52.0792 100.876 52.0664 100.979 52.0579 101.081C52.0376 101.307 52.0214 101.532 52.0053 101.758C51.9841 102.04 51.9722 102.324 51.9645 102.606C51.9407 103.169 51.9382 103.75 51.9509 104.336C51.9594 104.629 51.9705 104.916 51.9858 105.216L51.9866 105.221C52.001 105.48 52.0155 105.74 52.0401 106.005C52.0486 106.081 52.0528 106.157 52.0613 106.236C52.0851 106.494 52.114 106.759 52.1429 107.024C52.1947 107.443 52.2507 107.865 52.322 108.293C54.4672 121.303 70.3181 135.043 97.0765 143.109C105.705 145.71 114.66 147.08 123.668 147.331Z" fill="#BBC0CB"/>
<path d="M62.7971 76.6184C60.1063 76.6184 59.6144 74.715 60.2513 72.6427C61.2074 69.5328 60.8317 72.6427 63.2867 72.6427C65.041 72.6427 66.6668 70.0912 67.3244 72.6427C68.1701 75.9245 65.9062 76.6184 62.7971 76.6184Z" fill="white"/>
<path d="M60.6535 84.1194C57.9628 84.1194 57.4708 82.216 58.1077 80.1436C59.0639 77.0338 58.6882 80.1436 61.1432 80.1436C62.8974 80.1436 64.5232 77.5922 65.1808 80.1436C66.0266 83.4255 63.7627 84.1194 60.6535 84.1194Z" fill="white"/>
<path d="M61.8657 124.4C69.457 131.693 81.3097 138.33 96.8684 143.047C105.563 145.683 114.587 147.078 123.668 147.331C127.768 147.444 131.874 147.326 135.957 146.948C170.171 143.77 185.387 130.569 190.456 120.469C190.604 120.167 190.748 119.867 190.891 119.562C190.972 119.388 191.045 119.208 191.122 119.035C191.321 118.585 191.517 118.133 191.687 117.67C191.782 117.411 191.877 117.152 191.972 116.893C191.98 116.873 191.986 116.854 191.99 116.835C192.076 116.579 192.164 116.333 192.242 116.079C192.329 115.828 192.407 115.575 192.48 115.321C192.553 115.088 192.617 114.855 192.682 114.623C192.761 114.337 192.84 114.052 192.909 113.764C193.034 113.259 193.151 112.743 193.259 112.229C193.293 112.062 193.327 111.896 193.355 111.722C193.396 111.545 193.428 111.365 193.457 111.181C193.499 110.968 193.535 110.747 193.57 110.53C191.731 111.615 189.661 112.762 187.384 113.893C177.613 118.775 164.124 123.447 149.536 122.046C127.425 119.929 119.077 105.732 115.247 101.479C115.247 35.6301 102.491 96.8108 98.9499 101.115C91.4248 110.26 59.5626 116.183 53.522 94.1501C53.3649 94.6121 53.2248 95.0843 53.0872 95.5683C53.0227 95.801 52.9581 96.0337 52.8995 96.269C52.8333 96.5152 52.7721 96.7607 52.7161 97.0086C52.7127 97.0146 52.7093 97.0197 52.711 97.0282C52.6643 97.2388 52.6133 97.4494 52.5683 97.6685C52.5462 97.7865 52.5199 97.9105 52.4944 98.0345C52.4146 98.4557 52.3399 98.8812 52.2728 99.3177C52.2295 99.5818 52.1955 99.8476 52.1624 100.119C52.1352 100.333 52.1097 100.557 52.0885 100.779C52.0792 100.876 52.0664 100.979 52.0579 101.081C52.0376 101.307 52.0214 101.532 52.0053 101.758C51.9841 102.04 51.9722 102.324 51.9645 102.606C51.9407 103.169 51.9382 103.75 51.9509 104.336C51.9594 104.629 51.9705 104.916 51.9858 105.216L51.9866 105.221C52.001 105.48 52.0155 105.74 52.0401 106.005C52.0486 106.081 52.0528 106.157 52.0613 106.236C52.0851 106.494 52.114 106.759 52.1429 107.024C52.1947 107.443 52.2507 107.865 52.322 108.293C53.2103 113.689 56.4569 119.209 61.8657 124.4Z" fill="white"/>
<path d="M192.903 113.78C192.838 114.066 192.76 114.344 192.682 114.623C192.617 114.854 192.553 115.085 192.478 115.321C192.407 115.576 192.331 115.83 192.241 116.079C192.165 116.333 192.075 116.577 191.989 116.836C191.987 116.854 191.98 116.874 191.974 116.893C191.878 117.155 191.782 117.412 191.686 117.671C191.518 118.134 191.323 118.587 191.123 119.038C191.044 119.21 190.97 119.388 190.891 119.564C190.747 119.866 190.605 120.168 190.456 120.47C185.389 130.568 170.17 143.767 135.955 146.945C131.873 147.328 127.767 147.444 123.671 147.332C114.587 147.076 105.562 145.683 96.8709 143.047C81.3079 138.331 69.4578 131.692 61.8631 124.4C56.4577 119.208 53.2111 113.692 52.322 108.291C52.249 107.863 52.1955 107.442 52.1454 107.026C52.1156 106.762 52.0868 106.493 52.0613 106.239C52.0545 106.156 52.046 106.083 52.0383 106.005C52.0137 105.741 51.9993 105.478 51.9882 105.22L51.984 105.215C51.9747 105.045 51.9704 104.875 51.9619 104.71C53.6162 107.308 66.6617 132.469 98.8458 138.234C164.693 150.03 185.116 123.427 192.903 113.78Z" fill="#F3F3F3"/>
<path d="M155.605 30.0987C149.493 27.2444 143.158 24.9804 136.503 24.1167C119.692 21.9325 99.9494 23.6742 85.774 33.6637C73.799 42.2155 67.1555 56.1165 63.6533 70.0846C62.7599 73.5096 61.9837 77.4152 61.2644 80.9149C61.0275 82.1293 60.7642 83.4328 60.1562 84.4825C58.8713 86.8238 57.5592 88.9741 56.5036 91.3799C54.7984 95.1454 53.7861 99.1759 53.6969 103.295C53.4863 111.396 57.4208 117.788 63.1378 123.269C75.2079 134.507 91.3993 140.414 107.204 144.282C110.209 144.875 113.311 145.524 116.307 146.076C116.738 146.157 117.022 146.571 116.942 147.002C116.869 147.393 116.52 147.663 116.133 147.65C109.833 147.371 103.585 146.511 97.518 144.818C78.9174 139.637 49.607 125.901 50.1973 103.249C50.2975 95.801 53.1076 89.4938 56.8009 83.2231L57.0106 82.8367L57.1805 82.4859C57.5422 81.7004 57.5864 81.027 57.78 80.1947L58.5189 76.543C61.4784 61.7461 66.888 46.6349 77.9178 35.887C90.7955 23.1307 110.001 19.4994 127.529 20.2153C132.572 20.5041 137.682 21.1087 142.543 22.5235C147.436 23.9689 152.045 26.1175 156.353 28.7034C157.177 29.2639 156.542 30.4927 155.605 30.0987Z" fill="#1C1D1E"/>
<path d="M166.279 37.8429C170.683 42.0134 175.824 47.2973 182.59 59.4073C183.034 58.8384 183.466 58.1955 183.875 57.494C186.765 52.605 188.867 44.8439 189.497 38.2683C189.892 34.1759 189.723 30.5446 188.818 28.3468C186.725 23.2497 167.236 35.2663 166.279 37.8429Z" fill="#FE0098"/>
<path d="M166.279 37.8429C170.683 42.0134 175.824 47.2973 182.59 59.4073C183.034 58.8384 183.466 58.1955 183.875 57.494C183.621 52.7265 180.227 47.3305 179.053 43.2329C176.615 34.7304 183.315 30.0299 185.631 31.0558C187.003 31.6647 188.781 36.2582 189.497 38.2683C189.892 34.1759 189.723 30.5446 188.818 28.3468C186.725 23.2497 167.236 35.2663 166.279 37.8429Z" fill="#FE0098"/>
<path d="M168.422 37.6994C172.508 41.6534 177.006 46.6163 182.696 56.3977C187.193 48.6137 189.414 33.9628 187.354 28.9489C187.278 28.7629 186.867 28.7086 186.628 28.6925C182.239 28.4012 171.385 34.9784 168.422 37.6994ZM182.589 60.9912C182.549 60.9912 182.509 60.9895 182.469 60.987C181.939 60.9462 181.466 60.6439 181.207 60.1802C174.614 48.3785 169.681 43.2432 165.193 38.9945C164.733 38.558 164.576 37.8888 164.797 37.2935C165.639 35.0252 172.265 31.1068 173.585 30.3451C176.655 28.571 182.383 25.586 186.251 25.5189C188.933 25.4747 189.934 26.8938 190.283 27.7456C193.16 34.7492 189.546 53.0484 183.839 60.3806C183.537 60.7679 183.075 60.9912 182.589 60.9912Z" fill="#1C1D1E"/>
<path d="M121.155 92.1724C120.389 101.465 125.733 109.589 133.091 110.321C140.448 111.051 147.033 104.112 147.798 94.8193C148.565 85.527 143.221 77.4026 135.864 76.6712C128.506 75.9408 121.921 82.8813 121.155 92.1724Z" fill="#1C1D1E"/>
<path d="M144.371 94.6946C143.119 94.6946 141.738 93.0734 141.163 90.8323C140.532 88.3797 141.104 86.114 142.439 85.7709C142.554 85.7412 142.67 85.7267 142.788 85.7267C144.04 85.7267 145.421 87.3487 145.996 89.5899C146.627 92.0424 146.055 94.3082 144.72 94.6513C144.605 94.681 144.489 94.6946 144.371 94.6946Z" fill="#747473"/>
<path d="M93.7561 87.2194C93.6829 96.3914 87.7484 103.88 80.4988 103.943C73.2491 104.006 67.4316 96.6207 67.5036 87.4487C67.5767 78.2756 73.5124 70.7882 80.7609 70.7249C88.0106 70.6617 93.8281 78.0463 93.7561 87.2194Z" fill="#1C1D1E"/>
<path d="M73.8897 85.4297C73.7436 85.4297 73.6018 85.405 73.4659 85.3524C72.2846 84.9015 71.9696 82.5975 72.7628 80.2069C73.4642 78.0932 74.7975 76.6181 75.9134 76.6181C76.0586 76.6181 76.2004 76.6436 76.3372 76.6954C77.5184 77.1472 77.8327 79.4502 77.0395 81.8408C76.338 83.9554 75.0056 85.4297 73.8897 85.4297Z" fill="#747473"/>
<path d="M172.642 109.424C181.336 103.914 193.58 103.116 203.395 105.565C204.077 105.728 204.754 105.904 205.43 106.079C205.853 106.189 206.107 106.62 205.999 107.043C205.896 107.44 205.51 107.688 205.114 107.628C203.954 107.451 202.704 107.237 201.543 107.039C199.423 106.799 197.128 106.585 194.986 106.519C193.038 106.51 190.868 106.556 188.941 106.745C183.627 107.287 178.336 108.556 173.47 110.774C172.588 111.256 171.797 110.003 172.642 109.424Z" fill="#1C1D1E"/>
<path d="M169.184 114.554C179.263 110.102 193.456 109.457 204.832 111.436C205.623 111.567 206.407 111.71 207.192 111.851C207.682 111.94 207.976 112.288 207.85 112.63C207.731 112.95 207.284 113.151 206.825 113.102C205.48 112.959 204.031 112.786 202.686 112.627C200.228 112.432 197.568 112.26 195.085 112.207C192.826 112.199 190.311 112.236 188.078 112.389C181.918 112.827 175.785 113.852 170.145 115.644C169.122 116.033 168.205 115.021 169.184 114.554Z" fill="#1C1D1E"/>
<path d="M170.762 119.602C180.508 117.792 191.782 120.226 198.493 127.882C199.136 128.64 198.076 129.66 197.346 128.975C193.904 125.753 189.62 123.612 185.073 122.467C180.502 121.317 175.662 120.987 170.958 121.169C169.997 121.202 169.813 119.81 170.762 119.602Z" fill="#1C1D1E"/>
<path d="M114.653 110.888C114.653 110.888 114.533 116.155 113.377 121.264C112.194 126.47 109.929 131.508 105.604 130.634C102.43 129.997 100.584 126.429 99.5172 122.39C97.9214 116.37 98.0452 109.301 98.0452 109.301L114.653 110.888Z" fill="#5E5E5E"/>
<path d="M113.58 119.342C112.437 125.605 110.249 131.666 106.069 130.613C103 129.848 101.217 125.556 100.186 120.697C100.86 120.317 101.585 120.073 102.347 119.983C103.946 119.796 105.468 120.321 106.748 121.367C107.88 120.04 109.316 119.169 110.909 118.982C111.834 118.875 112.736 119.006 113.58 119.342Z" fill="#FE0098"/>
<path d="M107.099 132.876C106.672 132.877 106.24 132.836 105.802 132.755C96.3197 131.003 96.4008 112.471 96.4414 110.364C96.4582 109.475 97.1775 108.766 98.0542 108.766C98.0651 108.766 98.075 108.766 98.0858 108.767C98.9774 108.784 99.6858 109.527 99.669 110.427C99.577 115.384 100.605 128.482 106.382 129.55C107.487 129.753 108.399 129.52 109.26 128.813C112.962 125.777 114.011 115.572 114.104 111.897C114.126 111.011 114.844 110.308 115.717 110.308C115.731 110.308 115.744 110.308 115.758 110.309C116.649 110.331 117.354 111.078 117.331 111.978C117.294 113.483 116.813 126.815 111.297 131.342C110.06 132.357 108.628 132.876 107.099 132.876Z" fill="#1C1D1E"/>
<path d="M92.6892 108.161C92.6892 108.161 92.4439 114.783 95.5313 116.533C100.237 119.199 104.466 116.164 106.659 113.407C106.659 113.407 110.265 120.981 117.239 118.415C121.317 116.914 123.225 111.497 123.225 111.497L105.987 103.944L92.6892 108.161Z" fill="white"/>
<path d="M106.883 104.434C106.763 106.38 107.006 108.462 107.82 110.241C108.568 112.201 105.603 113.13 105.102 111.09C104.732 109.339 104.779 107.554 105.086 105.813C105.19 105.245 105.31 104.712 105.485 104.13C105.599 103.752 105.999 103.537 106.378 103.651C106.722 103.753 106.927 104.092 106.883 104.434Z" fill="#000072"/>
<path d="M88.1302 108.766C88.6318 111.594 89.0581 112.318 91.0771 114.124C98.5782 118.825 104.204 110.174 106.079 104.765L107.706 110.174C109.83 119.135 121.081 120.553 125.368 110.174C125.69 109.394 126.778 109.016 127.511 109.41C128.143 109.746 128.047 110.373 128.047 110.909C127.183 113.521 126.906 114.757 125.1 116.803C118.525 124.073 107.559 120.997 103.466 112.4L107.397 112.875C105.769 115.001 103.696 116.794 101.147 117.958C96.0468 120.491 87.9725 118.659 86.4039 112.492C85.6267 109.84 85.5964 109.04 85.9871 106.355C86.1164 105.548 86.5438 104.633 87.3266 104.765C87.9958 104.876 88.0663 108.107 88.1302 108.766Z" fill="#1C1D1E"/>
<path d="M113.236 195.76H35.2259C32.5408 195.76 30.3643 193.583 30.3643 190.898V187.324H103.727L113.236 195.76Z" fill="#747473"/>
<path d="M113.235 195.758H35.2253C32.5414 195.758 30.3643 193.581 30.3643 190.897V187.323H30.4078C30.7205 189.702 32.7592 191.542 35.2253 191.542H108.485L113.235 195.758Z" fill="#686868"/>
<path d="M31.9465 188.908V190.898C31.9465 193.153 32.6758 195.296 35.2248 194.176H109.064L103.124 188.908H31.9465ZM113.236 197.344H35.2248C29.9969 196.903 30.3629 195.296 28.7793 190.898V187.324C28.7793 186.45 29.4883 185.74 30.3629 185.74H103.726C104.113 185.74 104.487 185.883 104.776 186.14L114.287 194.575C114.778 195.012 114.95 195.706 114.716 196.321C114.483 196.937 113.893 197.344 113.236 197.344Z" fill="#1C1D1E"/>
<path d="M103.727 187.323L90.3551 186.793L33.812 184.544H33.7803C30.4076 184.544 27.3161 182.664 25.7683 179.664L1.81934 133.143C1.96583 130.823 2.999 128.753 4.57848 127.264C6.15389 125.777 8.2796 124.862 10.6073 124.853L72.134 124.581C77.6447 124.557 82.6399 127.815 84.8368 132.87L98.4109 164.071L105.322 179.96C106.427 182.505 105.786 185.466 103.727 187.323Z" fill="white"/>
<path d="M103.727 187.323L90.3555 186.793C91.8917 179.497 94.785 166.418 94.785 166.418C94.785 166.418 97.9603 168.761 98.4113 164.071L105.323 179.96C106.427 182.505 105.786 185.466 103.727 187.323Z" fill="#5E5E5E"/>
<path d="M33.8119 182.959C33.8326 182.959 33.8533 182.959 33.8745 182.96L103.091 185.715C104.304 184.313 104.624 182.326 103.87 180.593L83.3859 133.499C81.4454 129.038 77.0566 126.163 72.194 126.163C72.1761 126.163 72.1583 126.163 72.1396 126.163L10.6156 126.435C6.94755 126.452 3.87198 129.228 3.4387 132.828L27.1748 178.94C28.4545 181.421 30.9802 182.959 33.7708 182.959C33.7849 182.959 33.7987 182.959 33.8119 182.959ZM103.727 188.908C103.705 188.908 103.684 188.907 103.664 188.907L33.782 186.126H33.7708C29.7893 186.126 26.1867 183.932 24.3596 180.391L0.41281 133.869C0.282198 133.615 0.222499 133.33 0.240418 133.046C0.581638 127.587 5.133 123.293 10.6015 123.269L72.126 122.996C72.1481 122.996 72.1719 122.996 72.194 122.996C78.3186 122.996 83.8462 126.616 86.2903 132.237L106.775 179.33C108.154 182.5 107.355 186.186 104.787 188.501C104.495 188.764 104.117 188.908 103.727 188.908Z" fill="#1C1D1E"/>
<path d="M103.727 186.975L30.364 187.299H30.3204C26.9517 187.299 23.8641 185.419 22.3202 182.422L18.9951 174.648L2.28624 135.593C0.675164 131.82 3.43032 127.624 7.53133 127.609L68.3811 127.34C74.0777 127.312 79.2394 130.681 81.5119 135.902L94.7845 166.418L103.727 186.975Z" fill="#747473"/>
<path d="M103.728 186.975L30.3649 187.299H30.3213C26.9526 187.299 23.865 185.419 22.3213 182.423L18.9961 174.648C24.1184 177.846 34.6124 181.718 54.9829 180.973C80.8555 180.027 91.9312 169.672 94.7854 166.418L103.728 186.975Z" fill="#5E5E5E"/>
<path d="M68.3804 126.745C74.1509 125.901 80.7588 129.788 82.0555 135.666C82.1923 136.297 81.3277 136.668 80.966 136.14C78.696 132.971 75.9046 130.214 72.19 128.891C70.9807 128.434 69.7035 128.135 68.3753 127.931C67.7035 127.829 67.7086 126.84 68.3804 126.745Z" fill="#1C1D1E"/>
<path d="M90.958 155.636C95.8742 165.806 100.894 175.943 105.197 186.391C105.617 187.396 104.824 188.575 103.733 188.558L30.3707 188.883C28.4319 188.914 25.539 189.063 23.8638 188.063C22.158 187.043 21.667 184.869 20.7747 183.083C17.0278 174.584 13.0206 165.074 9.32108 156.495C7.4673 152.064 3.68831 143.138 1.83232 138.707C1.52999 137.908 0.594478 135.959 0.418178 135.101C-0.516909 131.55 -0.254253 128.333 5.13327 126.46C6.05639 126.139 7.05279 126.049 8.01845 126.085C12.8515 126.182 17.6719 126.327 22.4965 126.75C23.4605 126.852 23.4423 128.234 22.5035 128.333C17.6826 128.8 12.864 128.987 8.03195 129.127C5.21174 128.921 2.83178 131.532 3.56729 134.314C3.6844 134.86 4.63257 136.844 4.8554 137.414C6.78502 141.829 10.6224 150.702 12.547 155.115C16.2267 163.719 20.2752 173.178 23.8638 181.762C24.8216 183.77 27.5735 185.78 30.3567 185.717L103.719 185.391L102.274 187.606C101.671 186.331 101.089 185.047 100.529 183.754C97.7145 177.29 95.16 170.716 92.5572 164.163C91.5185 161.541 90.5063 158.906 89.5059 156.268C89.1594 155.327 90.5105 154.756 90.958 155.636Z" fill="#1C1D1E"/>
<path d="M146.131 195.76H108.588C105.903 195.76 103.727 193.583 103.727 190.898V187.324H152.488C153.062 187.324 153.527 187.79 153.527 188.364C153.527 192.448 150.216 195.76 146.131 195.76Z" fill="#747473"/>
<path d="M153.526 188.364C153.526 190.406 152.698 192.255 151.36 193.593C150.022 194.931 148.174 195.758 146.131 195.758H108.589C105.905 195.758 103.728 193.581 103.728 190.897V187.323H103.771C104.084 189.702 106.122 191.542 108.589 191.542H146.131C148.174 191.542 150.022 190.715 151.36 189.377C151.942 188.795 152.425 188.114 152.789 187.366C153.216 187.497 153.526 187.892 153.526 188.364Z" fill="#747473"/>
<path d="M105.31 188.908V190.898C105.31 192.706 106.78 194.176 108.588 194.176H146.131C149.153 194.176 151.643 191.859 151.918 188.908H105.31ZM146.131 197.344H108.588C105.034 197.344 102.143 194.452 102.143 190.898V187.324C102.143 186.45 102.852 185.74 103.726 185.74H152.487C153.934 185.74 155.111 186.918 155.111 188.364C155.111 193.315 151.082 197.344 146.131 197.344Z" fill="#1C1D1E"/>
<path d="M141.107 183.424C139.187 182.707 137.129 181.773 134.932 180.601C134.128 181.837 130.847 187.611 122.415 186.709C118.726 186.314 114.007 183.986 113.318 177.212C113.191 175.926 113.203 174.477 113.401 172.851C113.853 169.098 115.198 165.804 117.249 163.104C122.818 155.769 133.605 152.84 145.861 157.143C145.861 157.143 147.349 154.23 147.753 151.011L168.935 157.008L169.015 157.032C169.015 157.032 169.889 194.171 141.107 183.424Z" fill="#BBC0CB"/>
<path d="M141.108 183.424C139.188 182.707 137.129 181.773 134.932 180.601C134.129 181.837 130.847 187.611 122.415 186.709C118.726 186.314 114.007 183.986 113.318 177.212C114.692 179.057 117.337 181.417 121.813 181.278C131.532 180.977 132.941 172.554 137.275 172.902C141.606 173.25 147.766 181.239 158.462 175.922C165.044 172.652 167.836 164.633 168.935 157.008L169.015 157.032C169.015 157.032 169.89 194.171 141.108 183.424Z" fill="#747473"/>
<path d="M141.108 183.424C139.188 182.707 137.129 181.773 134.932 180.601C134.129 181.837 130.847 187.611 122.415 186.709C122.301 186.698 122.182 186.681 122.067 186.665C122.055 186.665 122.047 186.665 122.039 186.662C121.932 186.646 121.822 186.63 121.715 186.61C121.596 186.591 121.474 186.571 121.355 186.543C121.26 186.527 121.169 186.507 121.074 186.484C120.911 186.448 120.749 186.405 120.586 186.36C120.488 186.333 120.385 186.302 120.285 186.274C119.957 186.171 119.625 186.052 119.3 185.914C119.232 185.89 119.17 185.858 119.102 185.83C118.694 185.648 118.291 185.438 117.895 185.193C117.788 185.126 117.681 185.059 117.574 184.983C117.447 184.9 117.328 184.813 117.206 184.722C117.083 184.635 116.964 184.54 116.849 184.441C116.731 184.342 116.616 184.243 116.501 184.136C116.442 184.084 116.387 184.029 116.331 183.977C116.161 183.815 115.999 183.641 115.841 183.463C115.785 183.4 115.734 183.341 115.682 183.277C115.42 182.969 115.179 182.632 114.95 182.271C114.886 182.169 114.823 182.062 114.759 181.955C114.593 181.67 114.438 181.365 114.297 181.044C114.233 180.906 114.174 180.763 114.118 180.617C114.106 180.586 114.095 180.553 114.078 180.522C114.023 180.379 113.971 180.233 113.92 180.083C113.889 179.979 113.857 179.881 113.825 179.774C113.794 179.683 113.766 179.588 113.742 179.493C113.73 179.449 113.718 179.406 113.706 179.362C113.675 179.255 113.647 179.149 113.623 179.037C113.611 178.99 113.604 178.942 113.592 178.899C113.56 178.768 113.532 178.637 113.509 178.503C113.473 178.325 113.441 178.139 113.413 177.949C113.402 177.87 113.39 177.787 113.378 177.7C113.358 177.541 113.339 177.379 113.318 177.217C114.696 179.061 117.34 181.417 121.813 181.278C131.532 180.977 132.941 172.554 137.275 172.902C137.96 172.957 138.689 173.202 139.472 173.555C139.671 176.769 139.781 180.146 141.108 183.424Z" fill="#E8E8E8"/>
<path d="M147.871 183.408C145.324 182.649 142.594 181.659 139.68 180.416C138.614 181.726 134.261 187.846 123.077 186.89C117.254 186.391 109.493 182.989 111.121 172.203C111.72 168.225 113.505 164.734 116.225 161.873C121.649 158.236 129.578 155.194 138.462 160.006C148.968 165.703 143.539 174.87 147.871 183.408Z" fill="white"/>
<path d="M141.108 183.424C139.188 182.707 137.129 181.773 134.932 180.601C134.129 181.837 130.847 187.611 122.415 186.709C122.301 186.698 122.182 186.681 122.067 186.665C122.055 186.665 122.047 186.665 122.039 186.662C121.932 186.646 121.822 186.63 121.715 186.61C121.596 186.591 121.474 186.571 121.355 186.543C121.26 186.527 121.169 186.507 121.074 186.484C120.911 186.448 120.749 186.405 120.586 186.36C120.488 186.333 120.385 186.302 120.285 186.274C119.957 186.171 119.625 186.052 119.3 185.914C119.232 185.89 119.17 185.858 119.102 185.83C118.694 185.648 118.291 185.438 117.895 185.193C117.788 185.126 117.681 185.059 117.574 184.983C117.447 184.9 117.328 184.813 117.206 184.722C117.087 184.63 116.964 184.54 116.849 184.441C116.731 184.342 116.616 184.243 116.501 184.136C116.442 184.084 116.387 184.029 116.331 183.977C116.161 183.815 115.999 183.641 115.841 183.463C115.785 183.4 115.734 183.341 115.682 183.277C115.42 182.969 115.179 182.632 114.95 182.271C114.886 182.169 114.823 182.062 114.759 181.955C114.593 181.67 114.438 181.365 114.297 181.044C114.233 180.906 114.174 180.763 114.118 180.617C114.106 180.586 114.095 180.553 114.078 180.522C114.023 180.379 113.971 180.233 113.92 180.083C113.889 179.979 113.857 179.881 113.825 179.774C113.794 179.683 113.766 179.588 113.742 179.493C113.73 179.449 113.718 179.406 113.706 179.362C113.675 179.255 113.647 179.149 113.623 179.037C113.611 178.99 113.604 178.942 113.592 178.899C113.56 178.768 113.532 178.637 113.509 178.503C113.473 178.325 113.441 178.139 113.413 177.949C113.402 177.87 113.39 177.787 113.378 177.7C113.358 177.541 113.339 177.379 113.318 177.217C114.696 179.061 117.34 181.417 121.813 181.278C131.532 180.977 132.941 172.554 137.275 172.902C137.96 172.957 138.689 173.202 139.472 173.555C139.671 176.769 139.781 180.146 141.108 183.424Z" fill="#F3F3F3"/>
<path d="M169.803 157.014C170.552 164.031 169.398 171.231 166.108 177.529C159.022 190.675 145.301 188.345 134.188 181.999L136.26 181.466C132.954 187.138 126.638 189.488 120.346 187.934C111.387 185.577 107.37 173.164 109.829 165.56C113.79 153.292 129.904 151.616 141.66 154.316C143.266 154.663 144.839 155.124 146.385 155.651L144.451 156.424C145.27 155.206 145.983 153.77 146.502 152.377C146.892 151.649 146.78 150.084 147.954 150.325C148.313 150.424 148.546 150.755 148.537 151.11C148.489 153.433 148.047 155.663 147.271 157.865C146.909 158.583 146.071 158.903 145.336 158.639C143.908 158.154 142.462 157.73 140.997 157.412C136.665 156.485 132.035 156.434 127.811 157.727C118.402 160.606 115.059 162.373 113.312 167.971C111.467 173.684 114.153 183.125 121.147 184.871C126.167 186.074 131.008 184.274 133.606 179.738C134.053 179.038 134.964 178.815 135.678 179.205C137.652 180.191 139.652 181.102 141.693 181.842C143.736 182.569 145.818 183.123 147.898 183.429C163.515 185.687 166.743 169.031 168.22 157.051C168.293 156.116 169.682 156.068 169.803 157.014Z" fill="#1C1D1E"/>
<path d="M137.847 173.528C137.632 176.234 137.343 178.731 136.336 181.339C136.015 182.167 135.078 182.574 134.254 182.242C133.317 181.879 132.958 180.687 133.532 179.865C134.138 178.979 134.655 177.882 135.106 176.762C135.556 175.63 135.959 174.435 136.288 173.264C136.548 172.356 137.904 172.593 137.847 173.528Z" fill="#1C1D1E"/>
<path d="M153.062 161.985C150.544 160.416 147.901 159.671 145.136 158.552C143.034 157.597 144.585 154.579 146.587 155.737C149.019 157.265 151.836 158.721 153.992 160.704C154.323 160.993 154.357 161.496 154.068 161.826C153.811 162.12 153.385 162.178 153.062 161.985Z" fill="#1C1D1E"/>
<path d="M172.716 225.869C170.509 232.767 166.862 240.783 159.877 239.979C157.159 239.669 146.228 226.248 144.004 220.527C141.355 213.703 140.543 207.821 141.048 202.839C143.026 183.201 165.504 177.613 176.935 183.875L194.778 166.631C198.395 171.82 201.575 179.359 202.914 187.341C205.785 204.377 200.27 223.416 172.716 225.869Z" fill="#BBC0CB"/>
<path d="M172.734 227.783C166.787 232.446 166.876 242.951 159.888 242.133C157.167 241.818 146.23 228.169 144.005 222.35C141.355 215.409 140.542 209.427 141.047 204.361C145.144 203.732 150.452 204.486 156.931 208.526C176.008 220.43 186.209 215.962 192.174 212.611C199.161 208.685 201.887 197.069 202.95 188.599C206.676 208.526 193.887 233.799 172.734 227.783Z" fill="#747473"/>
<path d="M177.251 185.023C160.589 178.758 144.189 188.12 142.302 203.248C141.348 209.77 142.69 216.544 144.97 222.782C147.35 227.936 150.855 232.784 154.533 237.358C155.858 238.904 157.379 240.773 158.997 241.837C158.975 241.828 158.951 241.823 158.927 241.82C158.911 241.817 158.851 241.818 158.908 241.822L159.092 241.841C163.627 242.306 166.282 237.633 167.878 234.595C168.885 232.591 169.696 230.473 170.433 228.325C170.655 227.683 171.311 227.254 172.044 227.206C176.155 228.324 178.736 228.235 182.153 227.203C205.157 220.395 205.763 193.103 199.325 176.197C198.171 173.131 196.756 170.134 195.004 167.334C193.911 165.5 196.993 164.018 198.234 165.856C205.329 177.625 208.421 192.244 205.687 205.275C202.348 220.563 192.938 232.191 175.063 233.298L174.245 233.299C172.042 233.299 169.063 243.732 159.902 245.044C159.298 245.031 158.673 245.014 158.078 244.888C157.216 244.703 156.56 244.218 155.925 243.737C152.368 240.663 149.734 236.952 147.102 233.307C144.847 229.998 142.605 226.64 141.169 222.963C139.11 217.041 137.859 210.792 138.297 204.608C139.061 192.591 147.816 181.995 162.189 180.137C165.004 179.778 167.92 179.788 170.727 180.354C173.515 180.929 176.229 182.022 178.296 183.733C179.059 184.368 178.176 185.419 177.251 185.023Z" fill="#1C1D1E"/>
<path d="M161.116 233.524C161.236 234.466 161.954 239.017 158.712 241.647C153.046 246.242 137.851 243.811 130.775 230.649C125.772 221.343 125.967 210.277 135.278 206.759C141.625 204.361 149.676 211.321 153.113 219.752C153.113 219.752 154.683 222.362 157.381 226.045C160.567 230.391 161.116 233.524 161.116 233.524Z" fill="white"/>
<path d="M160.671 244.684C155.579 248.854 143.316 247.68 135.013 238.811C142.926 244.184 152.26 244.594 155.92 240.617C161.586 234.453 150.336 213.765 150.053 213.245C151.928 215.503 153.535 218.162 154.664 220.97C154.664 220.97 156.346 223.8 159.244 227.787C162.662 232.494 163.25 235.887 163.25 235.887C163.375 236.907 164.147 241.837 160.671 244.684Z" fill="#F3F3F3"/>
<path d="M165.059 234.428C168.277 246.26 155.079 249.073 144.99 245.634C135.829 242.71 129.19 235.446 126.327 227.302C123.667 220.18 124.025 210.613 131.812 206.109C134.034 204.813 136.748 203.895 139.412 204.193C145.593 204.843 150.666 209.353 153.643 213.892C154.794 215.732 155.69 217.698 156.134 219.757C156.233 220.213 155.899 220.655 155.388 220.742C154.99 220.811 154.601 220.644 154.403 220.351C151.087 215.714 147.481 210.555 141.729 208.268C139.708 207.531 137.711 207.404 135.933 208.173C130.366 210.274 128.482 215.608 129.061 220.707C130.079 229.886 136.49 239.01 146.36 242.359C152.233 244.478 161.98 244.557 162.976 237.44C163.146 236.536 163.211 235.621 163.218 234.626C163.221 234.164 163.643 233.793 164.159 233.796C164.594 233.798 164.958 234.068 165.059 234.428Z" fill="#1C1D1E"/>
<path d="M176.075 220.54C176.564 223.366 176.836 226.139 176.8 228.991C176.634 231.592 170.468 231.562 170.374 228.956C170.752 227.487 171.479 226.054 171.854 224.556C172.256 223.222 172.607 221.859 172.889 220.52C173.139 219.376 175.873 219.403 176.075 220.54Z" fill="#1C1D1E"/>
<path d="M109.122 162.372C106.54 160.93 103.768 159.538 100.991 158.597C98.8591 157.775 100.19 154.697 102.251 155.692C105.076 157.238 107.553 159.072 110.029 161.075C110.773 161.695 109.954 162.858 109.122 162.372Z" fill="#1C1D1E"/>
<path d="M151.208 230.348C153.638 233.227 154.219 237.062 151.736 239.104C148.297 241.931 142.8 239.328 140.484 236.584C138.169 233.842 137.096 228.665 141.473 226.947C144.633 225.707 148.778 227.47 151.208 230.348Z" fill="#FE0098"/>
<path d="M112.689 191.543C112.689 192.29 112.082 192.897 111.334 192.897C110.586 192.897 109.979 192.29 109.979 191.543C109.979 190.794 110.586 190.188 111.334 190.188C112.082 190.188 112.689 190.794 112.689 191.543Z" fill="#1C1D1E"/>
<path d="M124.42 192.897H117.271V190.188H124.42V192.897Z" fill="#1C1D1E"/>
<path d="M143.858 192.258H141.765C141.412 192.258 141.127 191.972 141.127 191.62C141.127 191.267 141.412 190.981 141.765 190.981H143.858C144.211 190.981 144.497 191.267 144.497 191.62C144.497 191.972 144.211 192.258 143.858 192.258Z" fill="#1C1D1E"/>
<path d="M127.577 180.946C127.868 181.785 128.9 184.217 129.972 183.886C132.041 183.023 133.386 185.988 131.373 186.975C130.919 187.211 130.355 187.103 129.882 187.051C129.015 186.957 128.224 186.517 127.721 185.998C126.797 185.045 126.464 183.955 126.208 182.781C126.132 182.007 125.571 180.494 126.762 180.353C127.149 180.331 127.479 180.59 127.577 180.946Z" fill="#1C1D1E"/>
<path d="M119.634 180.972C119.931 182.456 120.491 184.801 122.194 185.101C124.683 185.572 123.559 189.154 121.234 188.119C118.424 186.93 117.846 183.665 118.051 180.976C118.139 180.014 119.541 180.02 119.634 180.972Z" fill="#1C1D1E"/>
<path d="M158.021 199.179C157.636 199.179 157.388 198.898 157.299 198.229C156.973 195.76 159.762 190.465 164.029 188.251C167.018 186.7 169.808 186.174 172.027 186.174C174.704 186.174 176.549 186.939 176.905 187.59C177.65 188.95 173.424 189.439 166.029 193.683C162.356 195.791 159.36 199.179 158.021 199.179Z" fill="#BBC0CB"/>
<path d="M34.2855 132.188C20.2605 132.188 7.30812 131.827 10.6279 131.162C15.6116 130.164 30.0468 129.489 42.843 129.489C51.9867 129.489 60.2922 129.834 63.7196 130.653C68.128 131.706 50.4912 132.188 34.2855 132.188Z" fill="white"/>
<path d="M169.588 98.5854C155.75 98.5854 151.829 91.7173 155.105 89.2091C160.022 85.4452 165.786 92.7939 178.411 92.7939C187.433 92.7939 190.032 89.7059 193.414 92.7939C197.763 96.766 185.578 98.5854 169.588 98.5854Z" fill="white"/>
<path d="M171.878 85.7267C161.02 85.7267 157.943 81.5006 160.513 79.9573C164.371 77.6414 168.894 82.1631 178.801 82.1631C185.88 82.1631 187.919 80.263 190.573 82.1631C193.986 84.6072 184.424 85.7267 171.878 85.7267Z" fill="white"/>
<path d="M114.439 56.2582C107.105 56.2582 100.332 52.7473 102.068 46.2788C104.674 36.572 112.222 30.0044 118.914 30.0044C123.695 30.0044 128.038 33.3584 129.831 41.3221C132.136 51.566 122.913 56.2582 114.439 56.2582Z" fill="white"/>
<path d="M84.7883 91.3743C83.5456 90.1357 81.5307 90.3575 80.288 91.5961L80.0946 91.7891L79.9011 91.5961C78.6584 90.3575 76.6436 90.1357 75.4008 91.3743C74.1581 92.6129 74.1581 94.6216 75.4008 95.8608L75.5942 96.0532L79.5013 99.9482C79.829 100.275 80.3601 100.275 80.6878 99.9482L84.5949 96.0532L84.7883 95.8608C86.0311 94.6216 86.0311 92.6129 84.7883 91.3743Z" fill="white"/>
<path d="M136.791 97.0978C135.721 95.6545 133.603 95.5113 132.108 96.5085L131.875 96.664L131.709 96.4391C130.638 94.9957 128.597 94.4156 127.102 95.4128C125.607 96.4099 125.263 98.3889 126.333 99.8329L126.5 100.057L129.865 104.596C130.147 104.976 130.696 105.072 131.09 104.809L135.79 101.673L136.022 101.518C137.517 100.52 137.861 98.5412 136.791 97.0978Z" fill="white"/>
<path d="M138.84 219.659C139.492 221.136 139.377 222.859 138.25 223.683C137.124 224.508 135.138 223.756 134.263 221.772C133.386 219.787 134.149 217.767 135.499 217.449C136.848 217.132 138.188 218.183 138.84 219.659Z" fill="#FE0098"/>
<path d="M145.127 219.197C145.494 220.675 145.07 222.29 143.825 222.93C142.581 223.57 140.785 222.613 140.293 220.627C139.8 218.641 140.908 216.826 142.278 216.693C143.648 216.56 144.761 217.72 145.127 219.197Z" fill="#FE0098"/>
<path d="M136.311 226.049C136.925 227.155 136.835 228.443 135.803 229.054C134.77 229.666 132.931 229.096 132.104 227.609C131.278 226.122 131.964 224.615 133.207 224.383C134.45 224.151 135.696 224.943 136.311 226.049Z" fill="#FE0098"/>
<path d="M152.27 223.896C152.372 225.11 151.737 226.299 150.512 226.586C149.285 226.874 147.81 225.822 147.673 224.19C147.536 222.558 148.822 221.33 150.083 221.459C151.343 221.587 152.169 222.683 152.27 223.896Z" fill="#FE0098"/>
<path d="M185.954 63.0889C193.849 79.5368 200.942 106.45 190.982 123.187C183.943 134.488 171.233 140.751 158.858 144.404C151.434 146.459 143.76 147.976 136.031 147.735C135.131 147.698 134.947 146.408 135.857 146.166C140.815 144.933 145.783 144.234 150.671 143.101C154.821 142.218 159.252 140.945 163.229 139.444C172.862 135.759 182.374 130.26 187.927 121.346C195.351 108.551 192.246 91.8472 188.576 78.2298C187.258 73.3816 185.768 68.5681 184.472 63.6468C184.359 63.2214 184.612 62.7857 185.038 62.6736C185.409 62.5751 185.789 62.7577 185.954 63.0889Z" fill="#1C1D1E"/>
<path d="M116.192 102.977C115.727 105.022 109.197 108.148 105.73 107.639C102.009 107.093 98.3482 102.924 98.0653 100.857C97.7332 98.436 101.108 96.0413 108.406 97.3474C114.376 98.4147 116.701 100.735 116.192 102.977Z" fill="#FE0098"/>
<path fill-rule="evenodd" clip-rule="evenodd" d="M101.034 99.2376C99.7357 99.7965 99.6898 100.421 99.7185 100.63L99.7185 100.631C99.742 100.802 99.8805 101.212 100.265 101.813C100.629 102.383 101.144 103.015 101.768 103.619C103.051 104.859 104.59 105.785 105.972 105.988L105.973 105.988C107.223 106.172 109.361 105.679 111.391 104.749C112.368 104.301 113.217 103.798 113.82 103.326C114.122 103.09 114.331 102.886 114.461 102.727C114.529 102.644 114.56 102.592 114.572 102.57C114.634 102.245 114.574 101.723 113.697 101.034C112.737 100.279 110.967 99.5007 108.112 98.9904L108.112 98.9904C104.645 98.3699 102.34 98.6755 101.034 99.2376ZM108.7 95.7047C104.869 95.0191 101.837 95.2579 99.7142 96.1717C97.5838 97.0888 96.1084 98.8718 96.4115 101.083M108.7 95.7047C111.816 96.2618 114.193 97.1774 115.76 98.4099C117.376 99.6809 118.255 101.426 117.819 103.347L117.819 103.347C117.682 103.95 117.36 104.455 117.041 104.844C116.712 105.246 116.307 105.618 115.877 105.954C115.017 106.627 113.929 107.257 112.782 107.783C110.565 108.799 107.704 109.616 105.488 109.29C103.148 108.947 100.997 107.516 99.4479 106.018C98.6565 105.253 97.9707 104.421 97.4525 103.611C96.9548 102.832 96.5297 101.946 96.4116 101.084" fill="#1C1D1E"/>
<path d="M105.898 102.316C105.844 102.316 105.79 102.315 105.737 102.311C105.213 102.278 103.33 102.138 103.249 101.646C103.167 101.152 103.724 100.737 105.478 100.693C105.561 100.69 105.642 100.689 105.72 100.689C107.138 100.689 107.712 101.026 107.782 101.454C107.853 101.878 106.794 102.316 105.898 102.316Z" fill="#F3F3F3"/>
<ellipse cx="40.3837" cy="138.22" rx="2.94685" ry="4.55423" transform="rotate(-28.9069 40.3837 138.22)" fill="#1C1D1E"/>
<path d="M47.8325 160.219C47.8671 160.361 47.9189 160.57 47.9841 160.836C48.0588 161.1 48.1591 161.419 48.2784 161.786C48.4072 162.148 48.5629 162.556 48.7404 162.999C49.4791 164.754 50.5143 167.099 51.8551 169.361C52.5296 170.488 53.2931 171.587 54.1253 172.557C54.9535 173.526 55.8662 174.364 56.7695 174.933C57.215 175.226 57.6568 175.446 58.0568 175.614C58.4584 175.779 58.8207 175.89 59.1196 175.956C59.2699 175.987 59.403 176.014 59.5196 176.038C59.6358 176.051 59.735 176.063 59.8149 176.072C59.9754 176.09 60.0606 176.1 60.0606 176.1L59.9181 174.781C59.9181 174.781 59.8519 174.774 59.7283 174.761C59.6661 174.755 59.5904 174.747 59.4997 174.738C59.4102 174.721 59.307 174.7 59.191 174.678C58.96 174.628 58.679 174.551 58.3596 174.429C58.0421 174.303 57.6849 174.138 57.3101 173.903C56.5576 173.447 55.7274 172.75 54.9335 171.887C54.1344 171.028 53.3773 170.007 52.6752 168.949C51.2627 166.831 50.1088 164.554 49.2723 162.84C48.8552 161.985 48.4856 161.277 48.2197 160.78C47.9522 160.285 47.7903 160 47.7903 160C47.7903 160 47.8048 160.076 47.8325 160.219Z" fill="#448D35"/>
<path d="M49.5178 151.036C49.0648 149.946 48.1064 149.011 46.9026 148.634C45.0442 148.049 43.3151 149.007 43.0384 150.773C42.6675 153.141 45.7276 156.301 46.9506 158.393C47.1874 158.799 47.6076 159.582 47.2043 159.806C46.8006 160.029 46.2242 159.333 45.9347 158.955C44.442 157.013 42.7424 153.1 40.2502 152.316C38.3926 151.732 36.6626 152.69 36.3861 154.456C36.2075 155.6 36.6847 156.8 37.5467 157.664C36.508 157.93 35.7175 158.731 35.5382 159.876C35.262 161.642 36.5444 163.547 38.4023 164.131C40.8933 164.915 43.6016 162.388 45.5331 161.522C45.9081 161.354 46.6384 161.068 46.9373 161.513C47.2361 161.956 46.6222 162.415 46.2855 162.641C44.5529 163.802 40.8389 164.833 40.468 167.201C40.1918 168.967 41.4742 170.872 43.3317 171.456C44.5351 171.834 45.6828 171.563 46.4185 170.847C46.8722 171.936 47.8302 172.871 49.034 173.249C50.8925 173.833 52.6221 172.876 52.8983 171.11C53.2688 168.742 50.2099 165.581 48.9866 163.49C48.7488 163.083 48.3291 162.3 48.7324 162.077C49.1361 161.853 49.7125 162.55 50.0024 162.928C51.4939 164.871 53.1951 168.783 55.6865 169.566C57.544 170.151 59.2744 169.192 59.5506 167.426C59.7292 166.282 59.2515 165.082 58.39 164.218C59.4287 163.953 60.2191 163.151 60.3989 162.006C60.6747 160.241 59.3927 158.335 57.5347 157.751C55.0434 156.968 52.335 159.493 50.4044 160.36C50.0286 160.529 49.2982 160.815 48.9994 160.37C48.7006 159.926 49.314 159.468 49.6508 159.242C51.3833 158.08 55.0988 157.05 55.4687 154.682C55.7454 152.916 54.4625 151.011 52.6049 150.426C51.4011 150.048 50.2539 150.32 49.5178 151.036Z" fill="#5ABE34"/>
<path d="M50.9137 152.438C50.8152 152.473 50.7149 152.509 50.6146 152.544C50.223 152.703 49.8422 152.882 49.5695 153.036C49.3983 153.128 49.2741 153.204 49.1982 153.252L49.3944 151.828L49.1474 153.235C49.0927 153.147 49.0026 153.004 48.8747 152.818C48.6743 152.515 48.3821 152.125 48.0753 151.746C47.9953 151.653 47.9146 151.562 47.8353 151.471C47.7541 151.382 47.683 151.287 47.5982 151.209C47.4346 151.048 47.2877 150.892 47.1519 150.77C46.8708 150.536 46.6827 150.38 46.6827 150.38C46.6827 150.38 46.8662 150.541 47.1414 150.781C47.2738 150.907 47.4159 151.066 47.5746 151.23C47.6562 151.31 47.7248 151.406 47.8031 151.496C47.8796 151.588 47.9561 151.681 48.034 151.775C48.3289 152.159 48.6077 152.553 48.7992 152.859C48.9942 153.161 49.1093 153.37 49.1093 153.37C49.1244 153.363 48.8975 154.658 48.8975 154.658C48.8408 154.568 48.7573 154.438 48.6461 154.276C48.4462 153.973 48.1531 153.583 47.8472 153.204C47.7664 153.111 47.6861 153.02 47.6072 152.929C47.526 152.84 47.4545 152.746 47.3701 152.667C47.2061 152.507 47.0592 152.351 46.9237 152.228C46.6419 151.995 46.4542 151.838 46.4542 151.838C46.4542 151.838 46.638 151.999 46.9134 152.24C47.0453 152.366 47.1878 152.524 47.3466 152.689C47.4277 152.768 47.4968 152.865 47.575 152.954C47.6511 153.047 47.7285 153.14 47.8055 153.233C48.1009 153.618 48.3796 154.011 48.5702 154.317C48.7429 154.582 48.8472 154.767 48.8703 154.809L48.6473 156.082C48.5912 155.994 48.5152 155.875 48.4185 155.735C48.2181 155.431 47.9255 155.041 47.619 154.662C47.5387 154.57 47.458 154.478 47.3796 154.387C47.2979 154.299 47.2264 154.204 47.1424 154.125C46.9785 153.965 46.8316 153.809 46.6961 153.686C46.4142 153.452 46.2266 153.297 46.2266 153.297C46.2266 153.297 46.4096 153.457 46.6853 153.698C46.8172 153.824 46.9602 153.983 47.118 154.146C47.1996 154.227 47.269 154.322 47.347 154.413C47.423 154.505 47.5009 154.598 47.5783 154.692C47.8728 155.076 48.152 155.47 48.3426 155.775C48.4807 155.989 48.5756 156.151 48.6211 156.231L48.3975 157.507C48.3432 157.422 48.2762 157.318 48.1905 157.194C47.9896 156.89 47.6974 156.499 47.391 156.121C47.3107 156.029 47.2295 155.937 47.1511 155.846C47.0694 155.757 46.9984 155.663 46.914 155.584C46.75 155.424 46.6031 155.268 46.4676 155.145C46.1858 154.912 45.9981 154.755 45.9981 154.755C45.9981 154.755 46.1819 154.916 46.4568 155.156C46.5892 155.283 46.7313 155.442 46.89 155.605C46.9711 155.685 47.0402 155.781 47.1185 155.871C47.195 155.964 47.2719 156.056 47.3498 156.15C47.6443 156.534 47.9231 156.929 48.1141 157.234C48.2357 157.421 48.3211 157.564 48.371 157.652L48.0552 159.457C47.9739 159.916 47.7848 160.357 47.6322 160.442C47.4792 160.527 46.9605 160.478 46.4736 160.332L44.559 159.764C44.4967 159.682 44.3947 159.547 44.2662 159.364C44.0544 159.071 43.7956 158.665 43.5531 158.252C43.4968 158.147 43.4406 158.042 43.3858 157.938C43.3327 157.834 43.2701 157.735 43.2289 157.633C43.1414 157.429 43.0497 157.242 42.9871 157.078C42.8769 156.746 42.8033 156.524 42.8033 156.524C42.8033 156.524 42.8702 156.747 42.9705 157.081C43.029 157.247 43.1145 157.436 43.1976 157.642C43.2359 157.746 43.2955 157.846 43.3459 157.952C43.3983 158.058 43.4522 158.165 43.5056 158.272C43.7368 158.693 43.9858 159.106 44.1915 159.407C44.2753 159.534 44.3459 159.635 44.4048 159.718L43.0509 159.315C42.994 159.242 42.8783 159.091 42.7321 158.882C42.5204 158.588 42.2606 158.183 42.0186 157.77C41.9619 157.664 41.9065 157.56 41.8509 157.456C41.7977 157.352 41.7352 157.252 41.6944 157.151C41.6065 156.947 41.5152 156.759 41.4521 156.596C41.342 156.264 41.2689 156.042 41.2689 156.042C41.2689 156.042 41.3356 156.264 41.4364 156.599C41.4941 156.764 41.58 156.954 41.6626 157.16C41.7018 157.263 41.7607 157.365 41.8109 157.47C41.8638 157.576 41.9172 157.683 41.9707 157.789C42.2024 158.211 42.4517 158.624 42.6574 158.925C42.7513 159.067 42.8325 159.182 42.8935 159.268L41.5437 158.866C41.5123 158.828 41.3792 158.66 41.1976 158.399C40.9854 158.106 40.7265 157.7 40.4841 157.287C40.4278 157.182 40.372 157.077 40.3163 156.973C40.2636 156.869 40.2015 156.77 40.1603 156.667C40.0719 156.464 39.9811 156.277 39.918 156.113C39.8078 155.78 39.7343 155.559 39.7343 155.559C39.7343 155.559 39.801 155.782 39.9014 156.115C39.9604 156.281 40.0459 156.471 40.1284 156.677C40.1673 156.781 40.227 156.882 40.2772 156.987C40.3292 157.093 40.3827 157.2 40.4366 157.307C40.6678 157.728 40.9172 158.141 41.1228 158.442C41.2303 158.605 41.3204 158.732 41.3832 158.819L40.0087 158.41C40.0223 158.401 39.8708 158.213 39.6635 157.917C39.4513 157.623 39.192 157.218 38.95 156.805C38.8937 156.7 38.8375 156.595 38.7822 156.491C38.7291 156.386 38.6665 156.287 38.6257 156.185C38.5378 155.982 38.4461 155.795 38.3835 155.63C38.2733 155.298 38.2002 155.077 38.2002 155.077C38.2002 155.077 38.2666 155.3 38.3674 155.634C38.4258 155.799 38.5113 155.988 38.594 156.195C38.6328 156.299 38.6924 156.399 38.7428 156.505C38.7951 156.61 38.8486 156.717 38.902 156.824C39.1332 157.245 39.3831 157.659 39.5884 157.96C39.7126 158.148 39.8117 158.286 39.8729 158.37L38.3809 157.926L39.8655 158.419C39.7847 158.458 39.6538 158.524 39.4852 158.62C39.2093 158.769 38.8595 158.995 38.5247 159.237C38.4438 159.302 38.3638 159.367 38.285 159.431C38.2078 159.497 38.1237 159.552 38.0579 159.624C37.9212 159.76 37.7875 159.881 37.6852 159.996C37.494 160.238 37.3672 160.4 37.3672 160.4C37.3672 160.4 37.4994 160.243 37.6983 160.008C37.8046 159.898 37.9432 159.782 38.0835 159.651C38.1515 159.583 38.238 159.53 38.3165 159.468C38.3975 159.407 38.4795 159.346 38.5625 159.284C38.9053 159.054 39.2597 158.842 39.5407 158.703C39.8159 158.559 40.0098 158.48 40.0098 158.48C40.0001 158.463 41.3676 158.917 41.3676 158.917C41.2845 158.958 41.1652 159.02 41.0197 159.102C40.7439 159.252 40.3941 159.478 40.0587 159.72C39.9788 159.785 39.8988 159.849 39.8191 159.913C39.7419 159.979 39.6582 160.035 39.592 160.106C39.4557 160.243 39.3216 160.363 39.2192 160.478C39.0286 160.721 38.9017 160.883 38.9017 160.883C38.9017 160.883 39.0339 160.726 39.2332 160.491C39.3395 160.38 39.4777 160.264 39.6176 160.133C39.6856 160.066 39.7721 160.013 39.8511 159.95C39.932 159.89 40.014 159.827 40.0966 159.766C40.439 159.537 40.7947 159.325 41.0744 159.186C41.3169 159.059 41.4873 158.986 41.5275 158.97L42.8707 159.415C42.7897 159.456 42.6818 159.512 42.5543 159.585C42.278 159.734 41.9285 159.96 41.5937 160.202C41.5129 160.267 41.4325 160.332 41.3532 160.396C41.276 160.462 41.1923 160.517 41.1264 160.588C40.9898 160.725 40.856 160.845 40.7533 160.961C40.5627 161.204 40.4358 161.365 40.4358 161.365C40.4358 161.365 40.568 161.209 40.7669 160.974C40.8736 160.863 41.0119 160.747 41.1522 160.616C41.2196 160.548 41.3062 160.495 41.3847 160.432C41.4665 160.372 41.549 160.31 41.6307 160.249C41.9735 160.019 42.3296 159.807 42.6094 159.669C42.8041 159.567 42.9531 159.499 43.0268 159.467L44.3741 159.914C44.296 159.953 44.2013 160.003 44.0888 160.068C43.812 160.217 43.4631 160.442 43.1283 160.685C43.0478 160.75 42.9674 160.815 42.8881 160.878C42.8105 160.945 42.7268 160.999 42.661 161.071C42.5247 161.207 42.3906 161.328 42.2879 161.444C42.0972 161.686 41.9704 161.848 41.9704 161.848C41.9704 161.848 42.1026 161.691 42.3015 161.456C42.4082 161.345 42.5463 161.229 42.6867 161.099C42.7546 161.03 42.8407 160.978 42.9201 160.915C43.001 160.855 43.0835 160.793 43.1652 160.732C43.508 160.502 43.8633 160.29 44.1434 160.151C44.3141 160.062 44.4461 160.001 44.5281 159.965L46.4327 160.597C46.917 160.757 47.4019 161.024 47.5147 161.192C47.6281 161.36 47.6682 161.873 47.604 162.338L47.3532 164.163C47.2809 164.212 47.1606 164.291 46.995 164.387C46.7307 164.55 46.3607 164.74 45.9788 164.912C45.8805 164.95 45.7833 164.988 45.6867 165.026C45.5885 165.06 45.4977 165.107 45.3995 165.13C45.2073 165.183 45.0305 165.242 44.8731 165.277C44.5519 165.33 44.3378 165.365 44.3378 165.365C44.3378 165.365 44.5549 165.337 44.8799 165.294C45.0396 165.264 45.2184 165.211 45.4151 165.163C45.5149 165.143 45.6078 165.1 45.7081 165.069C45.8067 165.034 45.9069 164.999 46.0072 164.963C46.3979 164.804 46.7787 164.625 47.0514 164.471C47.1663 164.408 47.2584 164.355 47.3325 164.31L47.1557 165.601C47.0903 165.646 46.956 165.736 46.767 165.846C46.5022 166.009 46.1327 166.199 45.7511 166.37C45.6525 166.409 45.5548 166.447 45.4586 166.484C45.3605 166.519 45.2692 166.565 45.1715 166.589C44.9793 166.642 44.8025 166.701 44.6456 166.736C44.3239 166.789 44.1098 166.824 44.1098 166.824C44.1098 166.824 44.3269 166.796 44.6522 166.753C44.8111 166.723 44.9907 166.67 45.187 166.622C45.2864 166.602 45.3793 166.559 45.4796 166.527C45.5782 166.492 45.6781 166.457 45.7787 166.422C46.1703 166.262 46.5511 166.084 46.8238 165.929C46.953 165.86 47.0575 165.798 47.1345 165.751L46.9573 167.038C46.9233 167.063 46.7738 167.168 46.5385 167.305C46.2746 167.468 45.9042 167.657 45.5222 167.828C45.4244 167.867 45.3266 167.905 45.2297 167.943C45.1324 167.977 45.0411 168.023 44.9434 168.047C44.7508 168.1 44.5744 168.159 44.4166 168.194C44.0958 168.247 43.8817 168.282 43.8817 168.282C43.8817 168.282 44.0984 168.254 44.4233 168.211C44.5826 168.181 44.7626 168.128 44.9589 168.08C45.0583 168.06 45.1517 168.017 45.2515 167.986C45.3497 167.951 45.4504 167.916 45.5507 167.881C45.9418 167.721 46.3225 167.541 46.5953 167.388C46.7436 167.308 46.8579 167.239 46.9363 167.191L46.7557 168.502C46.744 168.487 46.5782 168.607 46.3101 168.763C46.0465 168.926 45.6761 169.115 45.2945 169.287C45.1959 169.325 45.0985 169.363 45.0016 169.401C44.9039 169.436 44.8135 169.482 44.7149 169.506C44.5227 169.558 44.3459 169.617 44.1885 169.652C43.8669 169.706 43.6535 169.74 43.6535 169.74C43.6535 169.74 43.8702 169.712 44.1951 169.669C44.3545 169.639 44.5341 169.586 44.7304 169.539C44.8303 169.519 44.9232 169.476 45.0234 169.444C45.122 169.409 45.2227 169.374 45.323 169.339C45.7138 169.18 46.0945 169 46.3668 168.846C46.5383 168.753 46.6635 168.678 46.7385 168.631L46.5427 170.054L46.7893 168.647C46.8441 168.735 46.9341 168.878 47.0617 169.064C47.2629 169.368 47.5547 169.758 47.8615 170.136C47.9423 170.229 48.0226 170.321 48.1014 170.412C48.1826 170.5 48.2537 170.595 48.3386 170.673C48.5021 170.834 48.6491 170.99 48.7849 171.113C49.0668 171.346 49.2545 171.502 49.2545 171.502C49.2545 171.502 49.0706 171.341 48.7948 171.101C48.663 170.975 48.5203 170.816 48.3625 170.652C48.2814 170.572 48.2115 170.476 48.1336 170.386C48.0572 170.294 47.9797 170.201 47.9027 170.107C47.6074 169.723 47.3285 169.328 47.138 169.024C46.9425 168.721 46.8275 168.512 46.8275 168.512C46.8123 168.519 47.0396 167.224 47.0396 167.224C47.0959 167.314 47.1799 167.445 47.2902 167.606C47.4914 167.909 47.7836 168.3 48.0901 168.679C48.1704 168.771 48.2511 168.862 48.3299 168.953C48.4112 169.042 48.4822 169.136 48.5666 169.214C48.7306 169.375 48.8771 169.531 49.0134 169.654C49.2949 169.888 49.4826 170.044 49.4826 170.044C49.4826 170.044 49.2992 169.884 49.0238 169.643C48.8915 169.517 48.7489 169.358 48.5906 169.194C48.5091 169.114 48.4401 169.018 48.3621 168.928C48.2856 168.835 48.2082 168.742 48.1312 168.649C47.8363 168.265 47.5571 167.871 47.3665 167.566C47.1939 167.3 47.0895 167.115 47.0664 167.073L47.2898 165.8C47.3456 165.889 47.4215 166.007 47.5183 166.148C47.719 166.451 48.0107 166.841 48.3177 167.22C48.398 167.312 48.4787 167.404 48.5576 167.495C48.6384 167.583 48.7104 167.678 48.7943 167.757C48.9582 167.917 49.1052 168.073 49.241 168.196C49.5226 168.43 49.7102 168.585 49.7102 168.585C49.7102 168.585 49.5272 168.425 49.2514 168.184C49.1191 168.058 48.9769 167.899 48.8187 167.736C48.7372 167.656 48.6681 167.559 48.5902 167.47C48.5133 167.377 48.4364 167.284 48.3593 167.191C48.064 166.807 47.7851 166.412 47.5941 166.107C47.4561 165.893 47.3612 165.731 47.3157 165.652L47.5392 164.376C47.5931 164.46 47.6609 164.564 47.7468 164.689C47.9471 164.993 48.2392 165.382 48.5462 165.762C48.6265 165.854 48.7072 165.945 48.7857 166.036C48.8668 166.125 48.9384 166.219 49.0228 166.298C49.1867 166.458 49.3337 166.614 49.4695 166.737C49.7514 166.971 49.9387 167.127 49.9387 167.127C49.9387 167.127 49.7548 166.966 49.4799 166.726C49.3476 166.599 49.2054 166.441 49.0467 166.277C48.9657 166.197 48.8961 166.101 48.8182 166.011C48.7418 165.918 48.6648 165.826 48.5873 165.732C48.2925 165.348 48.0132 164.954 47.8222 164.648C47.701 164.461 47.6161 164.317 47.5657 164.23L47.8819 162.424C47.9624 161.965 48.1518 161.524 48.3049 161.44C48.4571 161.356 48.9753 161.405 49.4626 161.549L51.3777 162.119C51.44 162.201 51.5425 162.334 51.6697 162.518C51.8818 162.811 52.1411 163.217 52.3832 163.63C52.4399 163.735 52.4961 163.84 52.5514 163.944C52.6045 164.048 52.6666 164.147 52.7074 164.25C52.7957 164.452 52.8866 164.64 52.9498 164.805C53.0603 165.137 53.1334 165.358 53.1334 165.358C53.1334 165.358 53.0671 165.135 52.9662 164.801C52.9077 164.635 52.8222 164.446 52.7392 164.24C52.7008 164.136 52.6407 164.036 52.5909 163.93C52.5384 163.824 52.485 163.717 52.4311 163.61C52.1999 163.19 51.9505 162.776 51.7452 162.475C51.661 162.349 51.5904 162.247 51.5328 162.165L52.8863 162.568C52.9432 162.641 53.0593 162.791 53.2051 163.001C53.4173 163.294 53.6761 163.699 53.9181 164.112C53.9744 164.217 54.0307 164.323 54.0859 164.426C54.139 164.53 54.2016 164.63 54.2424 164.732C54.3303 164.935 54.4216 165.123 54.4842 165.287C54.5948 165.619 54.6679 165.84 54.6679 165.84C54.6679 165.84 54.6015 165.617 54.5007 165.283C54.4422 165.117 54.3572 164.928 54.2741 164.722C54.2354 164.619 54.1757 164.518 54.1253 164.412C54.073 164.307 54.0195 164.2 53.9661 164.093C53.7349 163.672 53.4851 163.259 53.2802 162.957C53.1855 162.815 53.1042 162.7 53.0432 162.614L54.3931 163.016C54.4244 163.055 54.5576 163.222 54.7392 163.483C54.9518 163.777 55.2107 164.182 55.4527 164.595C55.5089 164.7 55.5648 164.805 55.6208 164.909C55.6731 165.013 55.7357 165.113 55.7765 165.215C55.8648 165.418 55.9562 165.606 56.0187 165.769C56.1285 166.101 56.2021 166.323 56.2021 166.323C56.2021 166.323 56.1352 166.1 56.0353 165.766C55.9764 165.601 55.8909 165.411 55.8083 165.205C55.7695 165.102 55.7098 165 55.6595 164.895C55.607 164.789 55.5541 164.682 55.5001 164.575C55.2686 164.155 55.02 163.741 54.8139 163.44C54.7069 163.278 54.6168 163.15 54.5535 163.063L55.928 163.472C55.9148 163.481 56.066 163.669 56.2728 163.965C56.4859 164.259 56.7447 164.664 56.9872 165.078C57.043 165.183 57.0997 165.288 57.1545 165.391C57.2077 165.496 57.2702 165.595 57.311 165.698C57.3993 165.9 57.4897 166.087 57.5533 166.252C57.6634 166.584 57.737 166.806 57.737 166.806C57.737 166.806 57.6698 166.583 57.5694 166.249C57.5109 166.084 57.4253 165.893 57.3428 165.687C57.304 165.584 57.2443 165.483 57.1945 165.377C57.1416 165.272 57.0885 165.164 57.0342 165.058C56.803 164.637 56.5541 164.224 56.3483 163.922C56.2241 163.734 56.1247 163.596 56.0634 163.512L57.5562 163.956L56.0712 163.463C56.1515 163.424 56.2834 163.358 56.4515 163.262C56.7283 163.113 57.0768 162.887 57.4121 162.645C57.4929 162.58 57.5729 162.515 57.6521 162.451C57.7294 162.386 57.8131 162.33 57.8789 162.258C58.016 162.122 58.1492 162.001 58.2516 161.886C58.4427 161.644 58.5699 161.482 58.5699 161.482C58.5699 161.482 58.4374 161.639 58.2385 161.874C58.1313 161.984 57.9935 162.1 57.8532 162.231C57.7858 162.3 57.6991 162.352 57.6202 162.415C57.5393 162.475 57.4572 162.537 57.3747 162.599C57.0323 162.828 56.677 163.04 56.3964 163.178C56.1209 163.323 55.9269 163.402 55.9269 163.402C55.9367 163.419 54.5686 162.965 54.5686 162.965C54.6514 162.924 54.7716 162.863 54.9174 162.78C55.1937 162.63 55.5423 162.405 55.878 162.162C55.9588 162.097 56.0385 162.033 56.118 161.969C56.1949 161.903 56.2785 161.847 56.3448 161.776C56.4806 161.64 56.6152 161.519 56.7175 161.404C56.9082 161.161 57.0359 160.999 57.0359 160.999C57.0359 160.999 56.9028 161.156 56.7039 161.391C56.5977 161.502 56.4594 161.618 56.3191 161.749C56.2512 161.817 56.1654 161.869 56.0861 161.932C56.0052 161.993 55.9227 162.055 55.8406 162.115C55.4977 162.345 55.1421 162.557 54.8623 162.696C54.6198 162.823 54.4494 162.896 54.4093 162.912L53.0666 162.467C53.1476 162.426 53.2549 162.37 53.383 162.298C53.6593 162.148 54.0082 161.923 54.3435 161.68C54.4243 161.614 54.5044 161.551 54.5836 161.487C54.6604 161.421 54.7449 161.365 54.8103 161.294C54.9469 161.157 55.0807 161.037 55.1834 160.921C55.3741 160.679 55.5014 160.517 55.5014 160.517C55.5014 160.517 55.3683 160.674 55.1699 160.909C55.0631 161.02 54.9254 161.135 54.7847 161.267C54.7171 161.334 54.6309 161.387 54.5516 161.449C54.4702 161.51 54.3882 161.572 54.3061 161.633C53.9636 161.863 53.608 162.075 53.3279 162.214C53.1335 162.316 52.9837 162.383 52.9099 162.415L51.563 161.968C51.6402 161.928 51.7346 161.879 51.8484 161.815C52.1243 161.666 52.4736 161.44 52.809 161.198C52.8898 161.132 52.9693 161.068 53.049 161.004C53.1258 160.938 53.2099 160.882 53.2758 160.811C53.4124 160.674 53.5457 160.554 53.648 160.438C53.8395 160.196 53.966 160.035 53.966 160.035C53.966 160.035 53.8338 160.191 53.6349 160.426C53.5282 160.537 53.3904 160.653 53.2496 160.783C53.1822 160.852 53.096 160.904 53.0166 160.967C52.9357 161.027 52.8541 161.089 52.7715 161.151C52.4287 161.38 52.0734 161.592 51.7933 161.731C51.6226 161.82 51.4907 161.881 51.4087 161.918L49.5045 161.285C49.0193 161.124 48.5348 160.858 48.422 160.69C48.3087 160.522 48.2682 160.009 48.3325 159.545L48.5839 157.719C48.6558 157.67 48.7762 157.591 48.9412 157.494C49.2056 157.332 49.576 157.142 49.958 156.97C50.0562 156.932 50.154 156.894 50.2501 156.857C50.3486 156.821 50.4386 156.776 50.5372 156.752C50.7294 156.699 50.9057 156.64 51.0631 156.605C51.3847 156.551 51.599 156.517 51.599 156.517C51.599 156.517 51.3824 156.546 51.0574 156.589C50.898 156.618 50.7184 156.671 50.5217 156.719C50.4218 156.739 50.3293 156.781 50.2296 156.814C50.1301 156.848 50.0298 156.884 49.93 156.919C49.5388 157.079 49.1576 157.257 48.8849 157.412C48.7699 157.473 48.6783 157.527 48.6042 157.572L48.7814 156.281C48.8464 156.236 48.9807 156.146 49.1701 156.035C49.434 155.873 49.804 155.683 50.1861 155.512C50.2842 155.474 50.3816 155.436 50.4781 155.398C50.5762 155.363 50.6671 155.317 50.7652 155.293C50.9574 155.24 51.1342 155.182 51.2916 155.146C51.6128 155.093 51.827 155.058 51.827 155.058C51.827 155.058 51.6108 155.087 51.285 155.13C51.1256 155.16 50.946 155.213 50.7497 155.26C50.6503 155.28 50.5569 155.323 50.4576 155.355C50.3586 155.39 50.2583 155.425 50.1575 155.46C49.7664 155.62 49.3856 155.798 49.1133 155.953C48.9837 156.023 48.8791 156.084 48.8023 156.131L48.9791 154.844C49.0135 154.819 49.1633 154.714 49.3982 154.577C49.6626 154.415 50.0325 154.225 50.4146 154.054C50.5123 154.015 50.6101 153.977 50.7071 153.94C50.8044 153.905 50.8956 153.859 50.9938 153.836C51.1859 153.782 51.3623 153.724 51.5197 153.688C51.8409 153.635 52.0551 153.6 52.0551 153.6C52.0551 153.6 51.8389 153.629 51.5135 153.672C51.3537 153.702 51.1745 153.754 50.9778 153.802C50.8784 153.822 50.7855 153.865 50.6852 153.897C50.5867 153.932 50.4868 153.967 50.3856 154.002C49.9949 154.162 49.6141 154.34 49.3414 154.494C49.1931 154.575 49.078 154.643 49.0004 154.691L49.1811 153.381C49.1928 153.396 49.3586 153.276 49.6267 153.119C49.8906 152.956 50.2606 152.767 50.6422 152.595C50.7404 152.557 50.8382 152.519 50.9347 152.481C51.0329 152.446 51.1237 152.401 51.2218 152.377C51.414 152.324 51.5908 152.265 51.7477 152.229C52.0694 152.177 52.2836 152.142 52.2836 152.142C52.2836 152.142 52.0674 152.17 51.7416 152.213C51.5826 152.243 51.4026 152.296 51.2063 152.343C51.1064 152.363 51.0135 152.406 50.9137 152.438Z" fill="#448D35"/>
</svg>
