<svg width="140" height="119" viewBox="0 0 140 119" fill="none" xmlns="http://www.w3.org/2000/svg">
<path d="M68.5307 113.063C41.5151 113.063 19.6143 111.503 19.6143 109.578C19.6143 107.653 41.5151 106.093 68.5307 106.093C95.5463 106.093 117.447 107.653 117.447 109.578C117.447 111.503 95.5463 113.063 68.5307 113.063Z" fill="#ABA7A7"/>
<path d="M62.2254 106.053C61.3109 109.482 59.7987 113.467 56.9045 113.067C55.7773 112.913 51.2464 106.242 50.3246 103.397C49.2273 100.004 48.8906 97.08 49.0997 94.6039C49.9196 84.8409 59.2362 82.0628 63.974 85.176L71.3701 76.6032C72.8692 79.1833 74.1867 82.931 74.7419 86.8989C75.9321 95.3682 73.6466 104.833 62.2254 106.053Z" fill="#8E8FB3"/>
<path d="M62.2254 106.053C61.3109 109.482 59.7987 113.467 56.9045 113.067C55.7773 112.913 51.2464 106.242 50.3246 103.397C49.2273 100.004 48.8906 97.08 49.0997 94.6039C50.7968 94.2966 52.9955 94.6648 55.6791 96.6398C63.5817 102.459 67.8073 100.275 70.2781 98.6368C73.1724 96.7175 74.3016 91.039 74.7419 86.8989C75.9321 95.3682 73.6462 104.833 62.2254 106.053Z" fill="#747473"/>
<path d="M63.764 85.4951C60.0162 83.9391 55.6237 84.7623 52.8255 87.7274C50.9157 89.6991 49.993 92.5123 49.8494 95.2429C49.7255 98.0611 50.2929 100.939 51.2078 103.589C52.4536 106.422 54.2178 109.106 56.1944 111.492C56.4722 111.798 56.7345 112.103 57.0688 112.321C57.0737 112.324 57.09 112.335 57.0606 112.32C57.0508 112.316 57.0401 112.313 57.0295 112.312C57.0221 112.311 56.9972 112.312 57.0197 112.313C57.1817 112.336 57.3674 112.336 57.5299 112.317C59.8309 111.953 60.9229 107.825 61.4879 105.856C61.5726 105.543 61.8398 105.327 62.1442 105.294C63.6191 105.116 65.072 104.806 66.4345 104.278C75.6156 100.792 75.3239 88.8955 72.545 81.069C72.0454 79.6489 71.4424 78.2643 70.7055 76.9776C70.2305 76.1057 71.4931 75.3496 72.0299 76.2202C75.0236 81.6463 76.4343 88.4589 75.4782 94.6059C74.3031 101.822 69.5059 106.057 62.3058 106.811L62.9621 106.25C62.1785 108.997 60.8934 113.612 57.4546 113.854C57.2095 113.856 56.9558 113.857 56.7128 113.805C56.3593 113.728 56.086 113.508 55.8217 113.289C54.352 111.894 53.2478 110.188 52.1455 108.513C51.1988 106.99 50.2565 105.445 49.6359 103.739C48.7382 100.989 48.1638 98.0746 48.2705 95.1689C48.4428 89.5182 51.8591 84.4289 57.6416 83.3704C58.7745 83.165 59.952 83.1315 61.0919 83.3622C62.2244 83.5971 63.3323 84.0774 64.1829 84.8577C64.5045 85.1543 64.1518 85.671 63.764 85.4951Z" fill="#1C1D1E"/>
<path d="M59.0229 109.714C59.0913 110.187 59.5034 112.474 57.6442 113.795C54.3942 116.104 45.6791 114.883 41.6204 108.27C38.7511 103.594 38.863 98.034 44.2034 96.2665C47.8432 95.0619 52.4619 98.5588 54.4329 102.795C54.4329 102.795 55.3328 104.106 56.8806 105.956C58.708 108.14 59.0229 109.714 59.0229 109.714Z" fill="white"/>
<path d="M57.6396 113.255C54.9091 115.233 48.332 114.676 43.8789 110.471C48.1224 113.019 53.1291 113.213 55.0921 111.327C58.1305 108.405 52.0968 98.5962 51.9452 98.3493C52.9509 99.4198 53.8125 100.68 54.4183 102.012C54.4183 102.012 55.3208 103.354 56.8748 105.244C58.708 107.476 59.0234 109.085 59.0234 109.085C59.0904 109.569 59.5042 111.906 57.6396 113.255Z" fill="#F3F3F3"/>
<path d="M59.3616 109.349C61.0749 115.264 54.1146 116.684 48.8026 114.962C43.9848 113.503 40.4936 109.874 38.9874 105.805C37.586 102.243 37.7796 97.4585 41.88 95.2065C43.0518 94.5573 44.4844 94.098 45.8895 94.2473C49.1425 94.5733 51.8157 96.8262 53.3784 99.0979C53.9807 100.018 54.4496 101.001 54.6766 102.03C54.7282 102.265 54.5464 102.491 54.2695 102.535C54.0555 102.569 53.8479 102.484 53.7403 102.335C51.9491 99.8835 48.0196 94.8609 44.073 96.2829C41.1653 97.3265 40.1844 99.9748 40.4872 102.506C41.0206 107.072 44.3763 111.612 49.5436 113.279C52.5987 114.335 57.7128 114.368 58.2333 110.85C58.3237 110.401 58.3597 109.946 58.3662 109.45C58.3689 109.213 58.5979 109.023 58.877 109.025C59.111 109.027 59.3067 109.165 59.3616 109.349Z" fill="#1C1D1E"/>
<path d="M51.6772 105.875C53.0146 107.239 53.5975 109.235 52.6474 110.487C51.3319 112.219 48.633 111.208 47.3586 109.908C46.0842 108.609 45.1678 105.934 46.9989 104.727C48.3219 103.855 50.3397 104.511 51.6772 105.875Z" fill="#FE0098"/>
<path d="M45.651 101.124C46.1507 101.902 46.3274 102.901 45.9145 103.488C45.502 104.076 44.4799 103.849 43.8085 102.803C43.1367 101.757 43.2212 100.523 43.8053 100.202C44.3893 99.8816 45.1514 100.346 45.651 101.124Z" fill="#FE0098"/>
<path d="M48.3121 100.304C48.6615 101.072 48.6796 101.993 48.2111 102.463C47.743 102.933 46.8288 102.588 46.3594 101.554C45.8896 100.521 46.1481 99.4249 46.7362 99.2185C47.3242 99.0121 47.9627 99.5353 48.3121 100.304Z" fill="#FE0098"/>
<path d="M45.352 104.947C45.764 105.451 45.8792 106.117 45.486 106.531C45.0925 106.945 44.1908 106.836 43.6367 106.159C43.0825 105.482 43.2109 104.646 43.7455 104.404C44.28 104.163 44.94 104.444 45.352 104.947Z" fill="#FE0098"/>
<path d="M52.0637 102.164C52.2627 102.815 52.1334 103.525 51.6288 103.801C51.1238 104.077 50.3389 103.649 50.0713 102.773C49.8037 101.898 50.2154 101.104 50.7883 101.051C51.3613 100.998 51.8648 101.513 52.0637 102.164Z" fill="#FE0098"/>
<path d="M53.6534 91.7759C53.4733 91.7759 53.3571 91.645 53.3158 91.332C53.1734 90.2543 54.2994 88.0269 56.0714 86.8928C56.3071 87.781 56.5521 88.6738 56.814 89.5698C55.366 90.5378 54.2069 91.7759 53.6534 91.7759Z" fill="#C7C7D9"/>
<path d="M42.5896 86.8863C42.5896 86.8863 41.0025 90.3079 37.6631 89.9532C35.8763 89.7626 33.5859 88.6276 33.2766 85.3205C33.2198 84.7141 33.2292 84.0354 33.3208 83.2764C34.1293 76.5554 40.8826 72.8727 48.9591 75.7089C48.9591 75.7089 48.9689 75.6668 48.9877 75.5849C49.1367 74.8849 49.8326 71.3282 49.3024 67.4814L60.114 75.6553C60.114 75.6553 64.0483 93.3344 42.5896 86.8863Z" fill="#BBC0CB"/>
<path d="M42.5893 86.8863C42.5893 86.8863 41.0022 90.3079 37.6628 89.9532C35.8761 89.7626 33.5857 88.6276 33.2764 85.3205C34.1082 85.8945 35.7979 86.669 38.2008 85.8663C41.7346 84.6896 42.2403 82.4332 42.2403 82.4332C42.2403 82.4332 50.21 87.4738 52.7904 83.5452C55.4356 79.5192 51.034 76.6491 48.9875 75.5849C49.1364 74.8849 49.8323 71.3282 49.3021 67.4814L60.1137 75.6553C60.1137 75.6553 64.048 93.3344 42.5893 86.8863Z" fill="#747473"/>
<path d="M38.1599 90.7419C37.9729 90.7419 37.781 90.7321 37.5834 90.7113C36.6771 90.6147 34.9751 90.2252 33.7579 88.697C32.6864 87.3518 32.2846 85.4967 32.5632 83.1838C32.9482 79.9905 34.6073 77.3315 37.2356 75.6961C40.24 73.8271 44.259 73.4822 48.375 74.717C48.6028 73.3746 48.9551 70.5528 48.5468 67.5861C48.4895 67.1683 48.7812 66.7837 49.1986 66.7261C49.6183 66.6688 50.0009 66.9605 50.0582 67.3778C50.6616 71.763 49.7411 75.7194 49.7014 75.8856C49.6515 76.0958 49.5148 76.2751 49.325 76.379C49.1351 76.4825 48.9105 76.5005 48.7068 76.4293C44.7418 75.037 40.8545 75.2416 38.0416 76.9915C35.8138 78.3776 34.4064 80.6414 34.0779 83.3663C33.85 85.259 34.1437 86.7323 34.9514 87.7466C35.8224 88.8402 37.0752 89.123 37.7446 89.1942C40.4863 89.4851 41.8418 86.6832 41.8982 86.5638C42.059 86.2225 42.4448 86.0474 42.8086 86.1567C49.6535 88.213 54.49 87.986 57.1834 85.482C60.7347 82.1802 59.3829 75.8843 59.369 75.8213C59.2774 75.4097 59.5364 75.0022 59.9476 74.9106C60.36 74.8189 60.7663 75.0783 60.8579 75.4895C60.9234 75.7824 62.4069 82.7088 58.2222 86.5994C55.1868 89.4212 50.0524 89.821 42.9567 87.79C42.3262 88.7956 40.7694 90.7419 38.1599 90.7419Z" fill="#1C1D1E"/>
<path d="M126.908 50.9713C126.924 51.122 126.938 51.2761 126.95 51.4248C126.982 51.8584 126.996 52.281 126.983 52.6932C126.688 61.9787 114.612 63.9335 111.953 54.4195C110.061 47.6482 106.016 46.3704 102.84 47.6195C102.349 47.8134 101.879 48.0674 101.44 48.3693C100.458 49.0476 99.635 49.9779 99.099 51.0272C98.6487 51.9136 98.4034 52.889 98.4379 53.8774C98.5093 55.7525 99.118 57.4932 100.105 59.1376C102.184 62.6028 105.951 65.6414 109.94 68.5928C111.082 69.4391 112.241 70.2737 113.384 71.1145C114.682 72.0656 115.783 73.0927 116.7 74.1842C118.263 76.0426 119.294 78.0716 119.832 80.1652C120.302 82.0015 120.395 83.8837 120.134 85.7365C118.892 94.6338 109.56 102.861 95.2704 102.029L94.0164 91.2265C97.0291 92.1424 99.8102 92.0466 102.123 91.3722C102.393 91.2959 102.659 91.2081 102.917 91.1149L102.92 91.1142C103.01 91.0811 103.1 91.0481 103.184 91.0115C106.56 89.7012 108.717 87.1655 108.808 85.0769C109.108 78.4897 96.9881 70.4276 92.4816 65.3112C84.0891 55.7782 86.1208 44.3532 95.1884 38.2845C96.4229 37.4579 97.7896 36.7297 99.2769 36.1205C100.077 35.79 100.919 35.4975 101.791 35.2401C102.428 35.0528 103.055 34.8934 103.671 34.7672C117.096 31.9798 125.971 42.8543 126.908 50.9713Z" fill="#BBC0CB"/>
<path d="M112.784 76.3125C109.65 78.2329 107.489 77.7019 106.501 76.287C105.019 74.1634 107.177 75.8727 110.036 74.1205C112.08 72.8685 111.844 70.5258 114.739 71.2389C118.463 72.1562 116.405 74.0935 112.784 76.3125Z" fill="white"/>
<path d="M116.355 81.4359C113.221 83.3563 111.06 82.8253 110.072 81.4104C108.591 79.2868 110.748 80.9961 113.608 79.2439C115.651 77.9919 115.415 75.6492 118.31 76.3623C122.034 77.2796 119.976 79.2169 116.355 81.4359Z" fill="white"/>
<path d="M115.208 87.9703C110.909 88.5673 109.247 87.5292 109.311 86.1387C109.408 84.0521 110.238 86.01 114.161 85.4653C116.964 85.0761 118.387 83.1776 120.612 84.5696C123.474 86.3601 120.176 87.2806 115.208 87.9703Z" fill="white"/>
<path d="M118.996 88.7983C116.709 95.0165 103.191 103.095 94.002 99.859L94.9765 91.8005C96.7911 93.0193 98.6224 93.4624 100.244 93.3998C102.507 96.6275 115.621 94.2657 118.996 88.7983Z" fill="#747473"/>
<path d="M96.3535 59.5521C101.315 66.3863 109.392 69.5494 112.824 70.6382C108.401 67.6146 104.17 64.4711 101.441 60.7131C100.145 58.9282 99.1876 57.0036 98.7117 54.886C98.4601 53.7683 98.4779 52.6442 98.7106 51.6033C99.1067 49.8169 100.132 48.276 101.505 47.441C104.235 45.7719 108.343 46.8941 111.619 54.4168C116.223 64.9848 127.225 61.8024 125.466 51.2565C125.388 50.7893 125.283 50.3095 125.157 49.822C124.368 52.4222 121.694 57.7838 117.508 56.3847C111.619 54.4168 111.765 44.3636 104.247 42.1305C98.5191 40.4292 89.9198 50.6896 96.3535 59.5521Z" fill="#747473"/>
<path d="M110.349 43.7537C107.381 45.4316 108.183 47.8414 108.582 47.8839C109.704 50.078 108.697 48.7504 112.027 52.5303C110.607 59.5828 120.974 62.308 124.319 56.4005C124.467 56.1382 124.601 55.8603 124.727 55.5693C124.767 55.4673 124.81 55.3638 124.85 55.2602C126.966 49.6936 124.637 39.6599 114.597 36.9276C114.137 36.7999 113.658 36.6908 113.163 36.5972C112.485 36.4698 111.817 36.3752 111.162 36.3178C110.493 36.6371 108.813 37.9429 108.332 39.3953C108.272 39.5751 109.338 39.2878 109.252 39.4771C108.963 40.1145 107.151 41.9577 107.492 42.2983C107.57 42.3765 108.611 42.2096 108.582 42.3065C108.455 42.7325 110.088 42.3755 110.349 43.7537Z" fill="white"/>
<path d="M104.7 45.3026C104.708 45.3358 104.7 45.3419 104.7 45.4171C104.732 45.9277 103.941 45.9705 104.7 47.3676C104.706 47.3637 104.166 46.7795 105.058 47.7548C106.006 46.9804 105.832 47.6714 105.832 48.0183C105.848 47.6714 105.941 48.1695 106.006 48.1406C106.057 48.1185 106.111 48.0957 106.165 48.0746C106.216 48.055 106.265 48.0355 106.314 48.0183C106.455 47.9661 106.599 47.9224 106.745 47.884C109.35 47.1998 110.228 49.3036 113.254 54.5405C114.453 62.7335 124.101 62.4533 125.196 54.7765C125.244 54.4359 125.273 54.0839 125.289 53.7204C124.03 55.3971 120.591 58.6688 117.542 56.9545C113.254 54.5405 115.771 47.5441 110.228 44.6572C108.466 43.7399 107.08 43.6784 104.8 45.0444C104.7 45.1735 104.671 45.1735 104.7 45.3026Z" fill="#D3D4E2"/>
<path d="M106.165 100.555C103.295 101.365 100.165 101.746 96.891 101.636C96.2925 101.616 95.8505 101.152 95.9033 100.6C95.9564 100.049 96.4842 99.6184 97.0828 99.6374C106.908 99.9698 115.277 95.5097 118.405 88.277C121.176 81.8675 119.104 75.2385 112.994 70.9764C112.569 70.6805 112.143 70.3847 111.716 70.0885C105.031 65.4519 98.1187 60.6568 97.6803 53.892C97.459 50.4684 100.272 46.9717 103.831 46.2592C105.33 45.9582 110.415 45.6029 112.896 53.6663C114.266 58.1241 117.608 59.2172 120.053 58.7984C122.624 58.3606 125.229 56.0833 125.246 51.9924C125.263 47.8177 122.375 41.7397 116.824 38.2006C113.729 36.2275 108.621 34.3345 101.822 36.5353C95.7582 38.4992 91.3187 42.5432 89.6418 47.6309C87.8134 53.1805 89.4583 59.2791 94.1545 64.3632C95.4008 65.7123 97.2949 67.3219 99.2998 69.0258C104.691 73.6084 110.802 78.8023 110.714 83.8058C110.68 85.7275 109.253 87.8849 106.989 89.4357C103.694 91.6937 99.3692 92.3117 95.1217 91.1321C94.555 90.9753 94.2587 90.4188 94.4596 89.8894C94.6603 89.3595 95.2819 89.058 95.8482 89.2155C99.4273 90.2089 103.035 89.7128 105.748 87.8545C107.421 86.7084 108.516 85.147 108.539 83.877C108.611 79.7336 102.605 74.6285 97.7784 70.5261C95.7276 68.7832 93.7908 67.137 92.4661 65.7027C87.3043 60.115 85.5171 53.35 87.5622 47.1434C89.4555 41.398 94.4246 36.8452 101.195 34.6529C108.844 32.1717 114.629 34.3094 118.126 36.5384C123.621 40.0419 127.444 46.3571 127.422 51.896C127.4 57.1887 123.845 60.1647 120.343 60.7641C116.771 61.3758 112.433 59.6146 110.799 54.3013C109.453 49.9281 106.983 47.6515 104.189 48.2124C101.723 48.7073 99.6965 51.258 99.8522 53.6708C100.234 59.5572 106.766 64.0877 113.083 68.4697C113.511 68.7668 113.939 69.0639 114.365 69.3609C121.141 74.0878 123.519 81.7696 120.421 88.9312C117.986 94.5632 112.762 98.6925 106.165 100.555Z" fill="#1C1D1E"/>
<path d="M91.547 101.168C86.7119 105.094 80.0871 107.096 74.058 106.509C68.4871 105.966 63.4268 103.211 60.7592 97.7193C56.3024 88.5351 56.0548 79.1072 52.1162 71.2851C51.2818 69.6263 50.283 68.0409 49.042 66.5456L72.6356 61.1263L73.5304 60.9197C76.6915 62.2657 79.51 63.8714 82.0051 65.6671C89.6213 71.1455 94.2312 78.3805 96.4162 85.3537C98.4348 91.7932 95.357 98.0751 91.547 101.168Z" fill="#BBC0CB"/>
<path d="M65.6133 86.1268C65.6133 86.1268 80.9807 75.1777 81.4295 75.7935C81.0453 86.1268 87.3527 88.9131 86.766 89.1602C86.1793 89.4069 69.1671 97.4273 69.6159 96.3865C70.0644 95.346 65.6133 86.1268 65.6133 86.1268Z" fill="#747473"/>
<path d="M82.2289 66.7927C78.1727 71.1239 70.973 74.0034 62.7668 74.0034C58.9143 74.0034 55.2831 73.3684 52.0963 72.2453C51.2551 70.6358 50.2482 69.0966 48.9971 67.6453L72.783 62.3854L73.6852 62.1849C76.872 63.4913 79.7135 65.0497 82.2289 66.7927Z" fill="#747473"/>
<path d="M69.9452 73.2387C67.6871 73.7346 65.2728 74.0034 62.7668 74.0034C58.9143 74.0034 55.2831 73.3684 52.0963 72.2453C52.0546 72.1668 52.0145 72.087 51.9703 72.0088C51.9228 71.9172 51.8733 71.8255 51.8218 71.7339C51.7436 71.5911 51.6655 71.45 51.5833 71.3088C51.5317 71.2192 51.4802 71.1296 51.427 71.0416C51.3775 70.9561 51.3259 70.8722 51.2744 70.788C51.1983 70.6603 51.1181 70.5327 51.0379 70.4046C50.9634 70.2864 50.8873 70.1702 50.8108 70.054C50.7232 69.9185 50.6336 69.7851 50.5399 69.6514C50.4315 69.4914 50.3206 69.333 50.2045 69.1747C50.1414 69.0871 50.0768 68.9992 50.0117 68.9116C49.783 68.6044 49.5465 68.3012 49.2986 68.0017C49.1996 67.8818 49.0985 67.7636 48.9971 67.6453L72.783 62.3854C71.0703 65.3431 69.4743 69.2909 69.9452 73.2387Z" fill="#E8E8E8"/>
<path d="M80.2495 101.628C78.7332 104.152 76.6126 105.645 74.2171 106.433C68.6008 105.906 63.4991 103.232 60.8098 97.902C59.6332 95.5678 58.7486 93.2161 58.0105 90.8819C55.3347 82.4143 54.6044 74.1545 48.9971 67.6454L72.783 62.3855C70.689 66.0031 68.7665 71.1031 70.5937 75.8725C72.0527 79.6792 74.4691 82.6144 76.7214 85.2901C80.9438 90.3058 84.5843 94.412 80.2495 101.628Z" fill="white"/>
<path d="M80.04 105.531C78.4545 108.674 76.2371 110.533 73.7322 111.514C67.8594 110.858 60.6303 109.634 57.8182 102.996C56.5878 100.089 55.8821 95.3808 56.7857 92.1481C62.2396 93.8535 71.2593 94.8033 76.3509 85.1844C80.766 91.4307 84.5727 96.5443 80.04 105.531Z" fill="#E8E8E8"/>
<path d="M69.9452 73.2387C67.6871 73.7346 65.2728 74.0034 62.7668 74.0034C58.9143 74.0034 55.2831 73.3684 52.0963 72.2453C52.0562 72.1651 52.0145 72.087 51.9703 72.0088C51.9228 71.9172 51.8733 71.8255 51.8218 71.7339C51.7436 71.5911 51.6635 71.45 51.5833 71.3088C51.5317 71.2192 51.4802 71.1296 51.427 71.0416C51.3775 70.9578 51.328 70.8722 51.2744 70.788C51.1983 70.6603 51.1181 70.5327 51.0379 70.4046C50.9634 70.2864 50.8873 70.1702 50.8108 70.054C50.7232 69.9185 50.6336 69.7851 50.5399 69.6514C50.4315 69.4914 50.3206 69.333 50.2045 69.1747C50.1414 69.0871 50.0768 68.9992 50.0117 68.9116C49.783 68.6044 49.5465 68.3012 49.2986 68.0017C49.1996 67.8818 49.0985 67.7636 48.9971 67.6453L72.783 62.3854C71.0703 65.3431 69.4743 69.2909 69.9452 73.2387Z" fill="#F3F3F3"/>
<path d="M74.7482 112.452C72.9952 112.338 71.2811 112.032 69.6519 111.523C64.2718 109.841 58.0318 107.817 56.0117 102.611C53.8947 97.1568 55.3072 90.1452 54.4208 84.9278C53.2366 77.9539 52.1174 71.3669 48.2245 65.7515C47.9583 65.368 48.0314 64.8189 48.3886 64.5261C48.7453 64.2332 49.2502 64.3072 49.5164 64.6912C53.6347 70.6315 54.7868 77.4129 56.0066 84.5931C56.8773 89.7193 55.9518 96.5566 58.0012 101.838C60.3096 107.787 66.6949 108.773 70.1132 109.841C76.8049 111.933 85.0431 110.375 91.1002 105.873C95.1029 102.899 98.6814 96.5342 97.0797 89.5874C95.4609 82.5685 90.4322 69.5794 74.9389 61.4433C74.5402 61.2337 74.3766 60.7112 74.574 60.2759C74.771 59.8411 75.2549 59.658 75.6536 59.8676C81.9624 63.1805 87.2134 67.6431 91.2608 73.1322C94.7732 77.8956 97.3261 83.4329 98.6434 89.146C100.433 96.907 96.4553 104.004 92.0018 107.313C87.031 111.007 80.6718 112.835 74.7482 112.452Z" fill="#1C1D1E"/>
<path d="M98.4316 53.8434C98.4484 53.8164 98.4631 53.7869 98.4799 53.7599C98.482 53.7558 98.4861 53.7538 98.4881 53.7517L98.4316 53.8434Z" fill="#BDA4BE"/>
<path d="M30.7256 45.7264C28.0547 43.0183 24.6617 41.0114 21.0432 39.8544C20.3673 39.6085 19.658 39.4628 18.967 39.2574C18.4214 39.1453 17.8336 39.0254 17.2905 38.9031C16.8276 38.793 16.9383 38.1065 17.417 38.1527C17.8894 38.2051 18.4237 38.2767 18.8992 38.3393C20.0265 38.5021 21.2081 38.8127 22.3009 39.1457C23.215 39.4661 24.2247 39.8466 25.0864 40.2786C27.4934 41.4799 29.7244 43.0612 31.3332 45.2653C31.6081 45.6642 31.0406 46.102 30.7256 45.7264Z" fill="#1C1D1E"/>
<path d="M29.1351 47.3427C26.0259 45.5681 22.2393 44.4635 18.313 44.0741C17.5762 43.9775 16.8158 43.9663 16.0678 43.9044C15.4829 43.8957 14.8528 43.8871 14.2693 43.8698C13.7715 43.8504 13.8094 43.2833 14.3166 43.2491C14.818 43.2208 15.3863 43.1987 15.8922 43.1781C17.0928 43.1409 18.3673 43.214 19.5512 43.3185C20.5462 43.4394 21.6484 43.5942 22.6012 43.8125C25.262 44.4177 27.7817 45.354 29.7197 46.8824C30.0534 47.1614 29.5082 47.597 29.1351 47.3427Z" fill="#1C1D1E"/>
<path d="M30.0313 50.7437C25.9959 49.0028 21.2748 47.957 17.0563 49.6684C16.6108 49.8448 16.3091 49.2118 16.7327 48.9778C19.9312 47.2713 23.8398 47.4067 27.2009 48.5539C28.326 48.9418 29.3967 49.425 30.4126 50.0829C30.5894 50.1975 30.6401 50.434 30.5256 50.6107C30.418 50.7776 30.2028 50.8304 30.0313 50.7437Z" fill="#1C1D1E"/>
<path d="M35.1126 30.1211L45.2103 22.2103L56.879 13.0713C50.6629 6.37116 38.2749 -1.06748 34.3676 1.18526C33.6278 1.61323 33.035 2.61441 32.6021 4.04354C30.9758 9.40414 31.5932 20.757 35.1126 30.1211Z" fill="#BBC0CB"/>
<path d="M38.7259 32.7496L48.8236 24.8389C46.3605 18.3012 40.1673 3.34329 36.2154 6.67208C34.5891 12.0327 35.2065 23.3856 38.7259 32.7496Z" fill="#747473"/>
<path d="M36.6289 4.95044C36.6289 4.95044 36.6293 4.95003 36.6297 4.94962C36.6293 4.95003 36.6289 4.95044 36.6289 4.95044ZM36.6314 4.94718C36.8486 4.67469 37.0826 4.46315 37.3339 4.31831C37.0826 4.46356 36.8486 4.6751 36.6314 4.94718Z" fill="#F0F0F7"/>
<path d="M35.3926 7.81055C35.4478 7.59084 35.5063 7.37931 35.5677 7.17638C35.6655 7.09414 35.7653 7.02213 35.8655 6.96199C35.6962 7.20666 35.5382 7.49019 35.3926 7.81055Z" fill="#B6B8CF"/>
<path d="M35.1021 30.8688C34.7932 30.8688 34.5027 30.6802 34.3877 30.3741C32.2958 24.8106 31.0524 18.099 30.9759 11.9611C30.9399 9.059 31.1596 2.13425 33.9745 0.510357C38.5434 -2.12616 51.3512 5.98878 57.4262 12.5371C57.713 12.846 57.6946 13.3288 57.3857 13.6152C57.0768 13.902 56.594 13.8836 56.308 13.5747C49.614 6.35988 37.9219 -0.00434494 34.7367 1.83189C33.5699 2.50493 32.4259 5.89223 32.5016 11.9418C32.576 17.91 33.7838 24.4325 35.8156 29.8369C35.9638 30.2313 35.7645 30.6716 35.3701 30.8197C35.2817 30.8528 35.1909 30.8688 35.1021 30.8688Z" fill="#1C1D1E"/>
<path d="M39.0377 24.1786C41.1586 21.4308 42.9249 19.5639 44.4629 18.1728C45.8118 16.9564 46.9832 16.1082 48.0646 15.3616C47.8215 14.0593 39.8649 6.70327 38.5324 8.93801C38.1334 9.60614 37.843 10.6294 37.6609 11.8499C37.0926 15.6312 37.5557 21.306 39.0377 24.1786Z" fill="#FE0098"/>
<path d="M39.1744 8.92023C37.8668 11.1128 37.7756 18.2029 39.2215 22.2878C42.5147 18.1849 44.9184 16.23 47.0631 14.7133C45.9269 13.1757 41.4112 9.07899 39.4502 8.87891C39.3614 8.86991 39.2084 8.86336 39.1744 8.92064V8.92023ZM38.8978 25.1841L38.3479 24.1199C36.3063 20.1668 36.0347 11.2053 37.8643 8.13877C38.0849 7.76808 38.6368 7.17932 39.8319 7.39289C42.637 7.89532 48.516 13.2776 48.8011 14.8148L48.8916 15.3008L48.4849 15.5815C46.1294 17.2078 43.5056 19.2155 39.6298 24.2361L38.8978 25.1841Z" fill="#1C1D1E"/>
<path d="M72.2744 14.6268L85.9823 29.2152L91.9067 35.5193C97.3144 26.487 99.7807 14.691 98.5884 9.41555C98.343 8.33051 97.9432 7.52286 97.3823 7.06912C93.7266 4.11388 79.7625 9.16147 72.2744 14.6268Z" fill="#BBC0CB"/>
<path d="M79.502 33.7879L86.496 40.5271C92.88 30.8714 95.7916 18.2613 94.3841 12.6216C93.0013 10.8935 90.6833 9.59102 88.1223 14.809C85.4672 20.2124 81.6659 28.8232 79.502 33.7879Z" fill="#747473"/>
<path d="M91.3777 36.2654C91.2443 36.2654 91.1093 36.2302 90.9865 36.157C90.6253 35.9405 90.5074 35.4716 90.7239 35.1104C93.6934 30.1516 95.9969 23.9354 97.0439 18.0561C98.1056 12.0948 97.4731 8.53161 96.3754 7.645C94.9343 6.48017 91.045 6.76289 85.9721 8.39987C81.0836 9.97671 75.8053 12.5924 72.1962 15.226C71.8562 15.4744 71.3787 15.3999 71.13 15.0591C70.8816 14.7191 70.9565 14.2416 71.2965 13.9933C75.0279 11.2708 80.4716 8.5713 85.5036 6.94782C88.8226 5.87668 94.7736 4.38904 97.3344 6.45808C101.216 9.59375 98.3916 25.275 92.0331 35.8943C91.8899 36.1328 91.6371 36.2654 91.3777 36.2654Z" fill="#1C1D1E"/>
<path d="M70.9663 12.2654C69.4684 11.7069 68.0049 11.2945 66.6433 11.0547C64.8848 10.7454 62.5494 10.4676 59.8486 10.4439C62.5502 10.4672 64.886 10.7446 66.6449 11.0547C68.0057 11.2941 69.4688 11.7065 70.9663 12.2654Z" fill="#F6F6FA"/>
<path d="M59.5812 70.9811C61.5561 71.0359 63.5343 70.9791 65.5015 70.7966C81.9854 69.2656 89.3161 62.9059 91.7582 58.0395C91.8294 57.8943 91.899 57.7494 91.9677 57.6026C92.0066 57.5187 92.0422 57.4323 92.079 57.3489C92.1751 57.132 92.2693 56.9144 92.3511 56.6914C92.3969 56.5666 92.4427 56.4418 92.4886 56.317C92.4926 56.3072 92.4951 56.2982 92.4972 56.2888C92.5033 56.2679 92.5115 56.2462 92.5201 56.227C92.5532 56.1251 92.5872 56.0257 92.6187 55.9247C92.6608 55.8035 92.698 55.6816 92.7332 55.5597C92.7684 55.4472 92.7995 55.3351 92.8306 55.223C92.8687 55.0855 92.9067 54.948 92.9402 54.8093C93.0004 54.5663 93.0564 54.3175 93.1088 54.0696C93.1252 53.9894 93.1415 53.9092 93.155 53.8253C93.1747 53.7402 93.1898 53.6535 93.2041 53.5651C93.2242 53.4624 93.2414 53.3556 93.2586 53.2513C93.8743 49.4287 93.4239 45.2227 92.5372 41.2282C91.6568 37.2587 90.3479 33.4971 89.2306 30.5296C89.2306 30.5296 87.5522 26.7 83.3413 21.6565C79.7491 17.3547 76.3245 14.94 75.3946 14.3242C75.2346 14.217 75.1483 14.1646 75.1483 14.1646C72.2572 12.6164 69.2619 11.5154 66.643 11.0547C62.4174 10.3113 54.8584 9.74958 46.9076 12.4638C40.6824 14.5865 36.6602 18.6906 34.0011 23.1408C30.1388 29.6012 29.1557 36.7878 28.4883 39.6858C28.3083 40.4586 26.7524 42.4454 25.7851 45.3577L25.786 45.3598C25.7103 45.5823 25.6428 45.8098 25.5765 46.043C25.5454 46.1551 25.5143 46.2672 25.4861 46.3806C25.4541 46.4992 25.4247 46.6175 25.3977 46.7369C25.396 46.7398 25.3944 46.7423 25.3952 46.7463C25.3727 46.8478 25.3482 46.9493 25.3265 47.0548C25.3159 47.1117 25.3032 47.1714 25.2909 47.2312C25.2524 47.4341 25.2144 47.6395 25.1841 47.8494C25.1632 47.9766 25.1469 48.1047 25.1309 48.2352C25.1178 48.3387 25.1056 48.4463 25.0953 48.5535C25.0908 48.6002 25.0847 48.6497 25.0806 48.6988C25.0708 48.808 25.063 48.9164 25.0552 49.0253C25.045 49.1611 25.0393 49.2978 25.0356 49.4336C25.0241 49.7049 25.0229 49.9847 25.029 50.267C25.0331 50.4082 25.0385 50.5465 25.0458 50.6913L25.0462 50.6933C25.0532 50.8181 25.0601 50.9433 25.072 51.0714C25.0761 51.1078 25.0781 51.1442 25.0822 51.1827C25.0937 51.3067 25.1076 51.4347 25.1215 51.5624C25.1465 51.7641 25.1735 51.9674 25.2078 52.1736C26.2413 58.4417 33.878 65.0612 46.7697 68.9473C50.927 70.2005 55.241 70.8604 59.5812 70.9811Z" fill="#BBC0CB"/>
<path d="M30.2548 36.9133C28.9585 36.9133 28.7215 35.9963 29.0283 34.9979C29.489 33.4996 29.308 34.9979 30.4907 34.9979C31.3359 34.9979 32.1192 33.7687 32.436 34.9979C32.8435 36.579 31.7528 36.9133 30.2548 36.9133Z" fill="white"/>
<path d="M29.2216 40.5271C27.9253 40.5271 27.6883 39.6101 27.9951 38.6117C28.4558 37.1134 28.2748 38.6117 29.4575 38.6117C30.3027 38.6117 31.086 37.3824 31.4028 38.6117C31.8103 40.1928 30.7196 40.5271 29.2216 40.5271Z" fill="white"/>
<path d="M29.8058 59.9334C33.4631 63.4472 39.1735 66.645 46.6694 68.9174C50.8582 70.1874 55.2058 70.8596 59.5812 70.9811C61.5561 71.0359 63.5343 70.9791 65.5015 70.7966C81.9855 69.2656 89.3161 62.9059 91.7582 58.0395C91.8294 57.8943 91.899 57.7494 91.9677 57.6026C92.0066 57.5187 92.0422 57.4323 92.079 57.3489C92.1752 57.132 92.2693 56.9144 92.3511 56.6914C92.3969 56.5666 92.4427 56.4418 92.4886 56.317C92.4927 56.3072 92.4951 56.2982 92.4972 56.2888C92.5389 56.1656 92.581 56.047 92.6187 55.9247C92.6608 55.8035 92.698 55.6816 92.7332 55.5597C92.7684 55.4472 92.7995 55.3351 92.8306 55.223C92.8687 55.0855 92.9067 54.948 92.9403 54.8093C93.0004 54.5663 93.0565 54.3175 93.1088 54.0696C93.1252 53.9894 93.1415 53.9092 93.1551 53.8253C93.1747 53.7402 93.1898 53.6535 93.2042 53.5651C93.2242 53.4624 93.2414 53.3556 93.2586 53.2513C92.3724 53.7742 91.3753 54.3265 90.278 54.8715C85.5708 57.2237 79.0719 59.4744 72.0437 58.7997C61.3908 57.7797 57.3689 50.9397 55.5241 48.8907C55.5241 17.1659 49.3784 46.6416 47.6723 48.7151C44.0468 53.1212 28.6962 55.975 25.786 45.3598C25.7103 45.5823 25.6428 45.8098 25.5765 46.043C25.5454 46.1551 25.5143 46.2672 25.4861 46.3806C25.4541 46.4992 25.4247 46.6175 25.3977 46.7369C25.396 46.7398 25.3944 46.7423 25.3952 46.7463C25.3727 46.8478 25.3482 46.9493 25.3265 47.0548C25.3159 47.1117 25.3032 47.1714 25.2909 47.2312C25.2524 47.4341 25.2164 47.6391 25.1841 47.8494C25.1632 47.9766 25.1469 48.1047 25.1309 48.2352C25.1178 48.3387 25.1056 48.4463 25.0953 48.5535C25.0908 48.6002 25.0847 48.6497 25.0806 48.6988C25.0708 48.808 25.063 48.9164 25.0552 49.0253C25.045 49.1611 25.0393 49.2978 25.0356 49.4336C25.0241 49.7049 25.0229 49.9847 25.029 50.267C25.0331 50.4082 25.0385 50.5465 25.0458 50.6913L25.0462 50.6933C25.0532 50.8181 25.0601 50.9433 25.072 51.0714C25.0761 51.1078 25.0781 51.1442 25.0822 51.1827C25.0937 51.3067 25.1076 51.4347 25.1215 51.5624C25.1465 51.7641 25.1735 51.9674 25.2078 52.1736C25.6358 54.7733 27.2 57.4328 29.8058 59.9334Z" fill="white"/>
<path d="M92.9368 54.8172C92.9057 54.9547 92.8681 55.0889 92.8304 55.2231C92.7993 55.3344 92.7682 55.4461 92.7322 55.5594C92.6979 55.6822 92.6614 55.8049 92.6181 55.9248C92.5813 56.0471 92.5379 56.1646 92.4966 56.2893C92.4958 56.2983 92.4925 56.3077 92.4892 56.3168C92.443 56.4432 92.3967 56.5671 92.3505 56.6915C92.2699 56.9149 92.1758 57.133 92.0792 57.3502C92.0412 57.4333 92.0056 57.5188 91.9675 57.6039C91.8984 57.7492 91.8297 57.8948 91.7581 58.0401C89.3167 62.9052 81.9849 69.2645 65.5005 70.7955C63.5337 70.98 61.5555 71.0357 59.5822 70.9817C55.2056 70.8585 50.8577 70.1875 46.6705 68.9175C39.1725 66.6452 33.4633 63.4469 29.8044 59.9336C27.2002 57.4321 25.636 54.7747 25.2077 52.1725C25.1725 51.9663 25.1467 51.7634 25.1226 51.5633C25.1082 51.4361 25.0943 51.3064 25.0821 51.184C25.0788 51.144 25.0747 51.1088 25.071 51.0711C25.0591 50.9439 25.0522 50.8175 25.0469 50.6931L25.0448 50.6906C25.0403 50.6088 25.0383 50.527 25.0342 50.4472C25.8312 51.6992 32.1162 63.8211 47.622 66.5988C79.3457 72.2817 89.1854 59.4647 92.9368 54.8172Z" fill="#F3F3F3"/>
<path d="M74.9676 14.501C72.0226 13.1259 68.9708 12.0351 65.7643 11.619C57.6653 10.5667 48.1536 11.4059 41.3242 16.2186C35.5548 20.3387 32.3541 27.0359 30.6668 33.7655C30.2364 35.4156 29.8624 37.2972 29.5159 38.9833C29.4017 39.5684 29.2749 40.1964 28.9819 40.7021C28.3629 41.8301 27.7308 42.8661 27.2222 44.0252C26.4007 45.8393 25.913 47.7811 25.87 49.7655C25.7685 53.6687 27.6641 56.7483 30.4184 59.3885C36.2336 64.8031 44.0343 67.6487 51.6485 69.5123C53.0964 69.7979 54.591 70.1109 56.0345 70.3769C56.2419 70.4157 56.379 70.6154 56.3401 70.8228C56.3049 71.0115 56.1368 71.1416 55.9506 71.135C52.9152 71.0008 49.9051 70.5864 46.9822 69.7705C38.0207 67.2748 23.8996 60.6569 24.1839 49.7434C24.2322 46.1552 25.5861 43.1165 27.3654 40.0954L27.4665 39.9092L27.5483 39.7402C27.7226 39.3618 27.7439 39.0373 27.8372 38.6364L28.1931 36.8771C29.619 29.7481 32.2252 22.4679 37.5392 17.2897C43.7434 11.144 52.9962 9.3945 61.4409 9.73941C63.8704 9.87852 66.3326 10.1698 68.6741 10.8515C71.0316 11.5478 73.252 12.583 75.3276 13.8288C75.7249 14.0988 75.4189 14.6909 74.9676 14.501Z" fill="#1C1D1E"/>
<path d="M37.1429 28.0916C36.8356 27.5176 40.1358 21.6992 44.4534 23.3521C46.0352 23.9576 45.6531 25.3659 44.6822 25.7448C43.7583 26.1052 42.3811 25.9665 41.2012 26.3552C38.901 27.1121 37.4501 28.6656 37.1429 28.0916Z" fill="#1C1D1E"/>
<path d="M74.0797 31.8933C74.5167 31.323 71.9599 24.397 66.9623 25.4272C65.1313 25.8048 65.2962 27.4066 66.2863 27.9925C67.2286 28.5498 68.7535 28.6447 69.969 29.2781C72.3396 30.5129 73.6427 32.4637 74.0797 31.8933Z" fill="#1C1D1E"/>
<path d="M80.1104 18.232C82.2322 20.2413 84.7087 22.787 87.9684 28.6213C88.1823 28.3472 88.3906 28.0375 88.5878 27.6995C89.9801 25.3441 90.9927 21.6049 91.2963 18.4369C91.4866 16.4653 91.4052 14.7158 90.969 13.6569C89.9609 11.2013 80.5715 16.9906 80.1104 18.232Z" fill="#FE0098"/>
<path d="M80.1104 18.232C82.2322 20.2413 84.7087 22.787 87.9684 28.6213C88.1823 28.3472 88.3906 28.0375 88.5878 27.6995C88.4655 25.4026 86.8301 22.8029 86.2643 20.8288C85.09 16.7325 88.3178 14.4679 89.4335 14.9621C90.0947 15.2555 90.9514 17.4685 91.2963 18.4369C91.4866 16.4653 91.4052 14.7158 90.969 13.6569C89.9609 11.2013 80.5715 16.9906 80.1104 18.232Z" fill="#FE0098"/>
<path d="M81.1425 18.1628C83.1113 20.0678 85.2781 22.4588 88.0198 27.1713C90.1862 23.4211 91.2561 16.3626 90.2639 13.947C90.2271 13.8574 90.0291 13.8312 89.9141 13.8235C87.7993 13.6831 82.5704 16.8519 81.1425 18.1628ZM87.9682 29.3844C87.949 29.3844 87.9294 29.3836 87.9101 29.3824C87.6548 29.3627 87.4269 29.2171 87.3021 28.9937C84.126 23.3078 81.7493 20.8337 79.5869 18.7868C79.3652 18.5765 79.2899 18.2541 79.3963 17.9673C79.8017 16.8744 82.9943 14.9867 83.6301 14.6196C85.1091 13.7649 87.8688 12.3268 89.7325 12.2945C91.0245 12.2732 91.5069 12.9569 91.6751 13.3673C93.0608 16.7415 91.3199 25.5577 88.5701 29.0902C88.4248 29.2768 88.2023 29.3844 87.9682 29.3844Z" fill="#1C1D1E"/>
<path d="M58.3701 44.4069C58.0013 48.8838 60.5759 52.798 64.1206 53.1504C67.6653 53.5022 70.8375 50.159 71.2064 45.6822C71.5758 41.2053 69.0012 37.2911 65.4565 36.9387C61.9118 36.5869 58.739 39.9307 58.3701 44.4069Z" fill="#1C1D1E"/>
<path d="M69.555 45.6221C68.9519 45.6221 68.2866 44.841 68.0092 43.7613C67.7057 42.5797 67.981 41.4881 68.6242 41.3228C68.6794 41.3085 68.7355 41.3015 68.7923 41.3015C69.3954 41.3015 70.0607 42.083 70.3381 43.1627C70.6417 44.3443 70.3663 45.4359 69.7231 45.6012C69.6679 45.6155 69.6119 45.6221 69.555 45.6221Z" fill="#747473"/>
<path d="M45.1698 42.0207C45.1345 46.4396 42.2754 50.0474 38.7826 50.0779C35.2899 50.1084 32.4871 46.5501 32.5218 42.1312C32.557 37.7118 35.4167 34.1045 38.9089 34.074C42.4017 34.0435 45.2044 37.6013 45.1698 42.0207Z" fill="#1C1D1E"/>
<path d="M35.5985 41.1584C35.5281 41.1584 35.4598 41.1466 35.3943 41.1212C34.8252 40.904 34.6734 39.794 35.0555 38.6422C35.3935 37.6239 36.0358 36.9132 36.5735 36.9132C36.6434 36.9132 36.7117 36.9255 36.7776 36.9504C37.3467 37.1681 37.4981 38.2777 37.116 39.4294C36.778 40.4482 36.1361 41.1584 35.5985 41.1584Z" fill="#747473"/>
<path d="M83.1756 52.7187C87.3644 50.0637 93.2634 49.6791 97.9919 50.8591C98.3204 50.9377 98.6465 51.0228 98.9726 51.107C99.1763 51.1598 99.2987 51.3677 99.2463 51.5714C99.1968 51.7625 99.011 51.882 98.82 51.8529C98.2611 51.7678 97.6588 51.6647 97.0999 51.5694C96.0783 51.4536 94.9728 51.3505 93.9405 51.319C93.002 51.3145 91.9566 51.3366 91.0283 51.4278C88.4683 51.6888 85.9189 52.3001 83.5749 53.3688C83.1498 53.6012 82.7685 52.9973 83.1756 52.7187Z" fill="#1C1D1E"/>
<path d="M81.5098 55.1898C86.3653 53.0452 93.2032 52.7345 98.6843 53.6877C99.0651 53.7511 99.4431 53.8199 99.8211 53.8879C100.057 53.9306 100.199 54.0985 100.138 54.2631C100.081 54.4174 99.8657 54.5139 99.6442 54.4905C98.9963 54.4217 98.2982 54.3384 97.6504 54.2614C96.4662 54.1679 95.1847 54.0846 93.9881 54.0592C92.9002 54.0555 91.6885 54.0734 90.6124 54.1471C87.6449 54.3579 84.6898 54.8517 81.9727 55.715C81.48 55.9027 81.038 55.4149 81.5098 55.1898Z" fill="#1C1D1E"/>
<path d="M82.2699 57.6222C86.9653 56.7499 92.397 57.9225 95.6301 61.6114C95.9402 61.9763 95.4296 62.4677 95.0778 62.1379C93.4195 60.5857 91.3554 59.5538 89.1648 59.0023C86.9624 58.4483 84.6307 58.2895 82.3645 58.3771C81.9013 58.3931 81.8129 57.7225 82.2699 57.6222Z" fill="#1C1D1E"/>
<path d="M55.2375 53.4236C55.2375 53.4236 55.1801 55.9612 54.6229 58.4226C54.0531 60.931 52.962 63.3582 50.8783 62.9368C49.3488 62.6301 48.4598 60.9112 47.9456 58.9652C47.1768 56.0651 47.2364 52.6594 47.2364 52.6594L55.2375 53.4236Z" fill="#5E5E5E"/>
<path d="M54.7209 57.4966C54.1703 60.5141 53.1157 63.434 51.1019 62.9271C49.6237 62.5581 48.7645 60.4903 48.2676 58.1494C48.5925 57.9667 48.9417 57.8489 49.3091 57.8055C50.0795 57.7156 50.8125 57.9685 51.4291 58.4725C51.9745 57.8328 52.6664 57.4133 53.4342 57.3235C53.8796 57.2717 54.3141 57.3348 54.7209 57.4966Z" fill="#FE0098"/>
<path d="M51.5983 64.0173C51.3929 64.0178 51.1845 63.9981 50.9734 63.9591C46.4051 63.1149 46.4442 54.1863 46.4637 53.1713C46.4718 52.743 46.8184 52.4013 47.2408 52.4013C47.246 52.4013 47.2508 52.4013 47.256 52.4018C47.6855 52.41 48.0269 52.768 48.0187 53.2016C47.9744 55.5897 48.4697 61.9002 51.2532 62.4147C51.7852 62.5129 52.2247 62.4002 52.6394 62.06C54.4233 60.5969 54.9286 55.6807 54.9734 53.9101C54.9839 53.4832 55.33 53.1444 55.7504 53.1444C55.7571 53.1444 55.7633 53.1444 55.77 53.1449C56.1995 53.1554 56.5389 53.5154 56.5279 53.9491C56.5103 54.6739 56.2786 61.0969 53.621 63.2781C53.0251 63.7671 52.3348 64.0173 51.5983 64.0173Z" fill="#1C1D1E"/>
<path d="M44.6555 52.1097C44.6555 52.1097 44.5374 55.3001 46.0248 56.1434C48.2922 57.4279 50.3295 55.9657 51.3857 54.6373C51.3857 54.6373 53.1232 58.2864 56.483 57.0502C58.4478 56.3272 59.367 53.717 59.367 53.717L51.0622 50.078L44.6555 52.1097Z" fill="white"/>
<path d="M51.4941 50.3145C51.4364 51.2519 51.5535 52.2551 51.9454 53.1123C52.3059 54.0561 50.8775 54.5037 50.6362 53.521C50.4578 52.6773 50.4803 51.8173 50.6284 50.9786C50.6783 50.7049 50.7364 50.4483 50.8207 50.1681C50.8755 49.9856 51.0682 49.8821 51.2507 49.9369C51.4168 49.9864 51.5154 50.1496 51.4941 50.3145Z" fill="#000072"/>
<path d="M42.4596 52.4012C42.7012 53.7641 42.9066 54.1125 43.8793 54.9826C47.4932 57.2475 50.2036 53.0796 51.1071 50.4737L51.8907 53.0796C52.914 57.397 58.3349 58.0802 60.3999 53.0796C60.5551 52.7038 61.0792 52.5219 61.4325 52.7116C61.7371 52.8737 61.6906 53.1756 61.6906 53.4338C61.2744 54.6923 61.1409 55.2876 60.2709 56.2733C57.103 59.7759 51.8202 58.2941 49.8482 54.152L51.7422 54.3811C50.9577 55.4055 49.959 56.2692 48.731 56.8297C46.2736 58.0502 42.3836 57.1674 41.6279 54.1964C41.2534 52.9188 41.2388 52.5334 41.4271 51.2396C41.4894 50.8511 41.6952 50.4103 42.0724 50.4737C42.3948 50.5273 42.4288 52.0839 42.4596 52.4012Z" fill="#1C1D1E"/>
<path d="M54.5552 94.3134H16.9712C15.6775 94.3134 14.6289 93.2647 14.6289 91.971V90.2493H49.9736L54.5552 94.3134Z" fill="#747473"/>
<path d="M54.5546 94.3126H16.9708C15.6778 94.3126 14.6289 93.264 14.6289 91.9707V90.2486H14.6499C14.8005 91.395 15.7827 92.2816 16.9708 92.2816H52.2662L54.5546 94.3126Z" fill="#686868"/>
<path d="M15.3911 91.0124V91.971C15.3911 93.0575 15.7425 94.09 16.9705 93.5503H52.5448L49.6833 91.0124H15.3911ZM54.555 95.0764H16.9705C14.4518 94.8644 14.6282 94.09 13.8652 91.971V90.2493C13.8652 89.8279 14.2068 89.4863 14.6282 89.4863H49.973C50.1595 89.4863 50.3396 89.555 50.4791 89.6786L55.0611 93.7426C55.298 93.9529 55.3806 94.2876 55.2681 94.5838C55.1556 94.8804 54.8716 95.0764 54.555 95.0764Z" fill="#1C1D1E"/>
<path d="M49.9742 90.2487L43.5318 89.9934L16.2904 88.9099H16.2751C14.6503 88.9099 13.1608 88.0041 12.4151 86.5586L0.876953 64.1457C0.94753 63.0284 1.44529 62.0309 2.20626 61.3137C2.96526 60.5968 3.98939 60.1562 5.11081 60.1521L34.7533 60.0208C37.4082 60.0093 39.8148 61.5788 40.8732 64.0144L47.413 79.0463L50.7426 86.7014C51.2749 87.9276 50.966 89.3543 49.9742 90.2487Z" fill="white"/>
<path d="M49.9736 90.2487L43.5312 89.9934C44.2714 86.4784 45.6653 80.1772 45.6653 80.1772C45.6653 80.1772 47.1951 81.306 47.4124 79.0463L50.7424 86.7014C51.2743 87.9276 50.9654 89.3543 49.9736 90.2487Z" fill="#5E5E5E"/>
<path d="M16.2899 88.146C16.2999 88.146 16.3098 88.1464 16.32 88.1468L49.6675 89.4741C50.2517 88.7986 50.406 87.8412 50.0427 87.0061L40.1737 64.3175C39.2388 62.1679 37.1244 60.7829 34.7816 60.7829C34.773 60.7829 34.7645 60.7829 34.7554 60.7829L5.11434 60.9143C3.34713 60.922 1.86538 62.2595 1.65663 63.9943L13.0923 86.2099C13.7088 87.405 14.9256 88.1464 16.2701 88.1464C16.2769 88.1464 16.2835 88.146 16.2899 88.146ZM49.9735 91.0125C49.9633 91.0125 49.9531 91.012 49.9432 91.0116L16.2755 89.6721H16.2701C14.3518 89.6721 12.6162 88.6149 11.736 86.9092L0.198813 64.4955C0.135887 64.3732 0.107125 64.2361 0.115758 64.099C0.280151 61.4691 2.47291 59.4004 5.10755 59.3886L34.7489 59.2572C34.7595 59.2572 34.771 59.2572 34.7816 59.2572C37.7324 59.2572 40.3955 61.0014 41.573 63.7091L51.4419 86.3977C52.1064 87.9251 51.7214 89.7007 50.4841 90.8161C50.3438 90.9429 50.1617 91.0125 49.9735 91.0125Z" fill="#1C1D1E"/>
<path d="M49.9741 90.0809L14.6292 90.2372H14.6082C12.9853 90.2372 11.4977 89.3313 10.7539 87.8875L9.15191 84.1422L1.1019 65.3261C0.325713 63.5087 1.65309 61.4871 3.62889 61.4797L32.9452 61.35C35.6897 61.3365 38.1765 62.9596 39.2713 65.475L45.6658 80.1772L49.9741 90.0809Z" fill="#747473"/>
<path d="M49.9745 90.0809L14.6296 90.2372H14.6086C12.9856 90.2372 11.4981 89.3313 10.7543 87.8879L9.15234 84.1422C11.6202 85.683 16.676 87.5483 26.4901 87.1895C38.9551 86.7337 44.2911 81.745 45.6662 80.1772L49.9745 90.0809Z" fill="#5E5E5E"/>
<path d="M32.9442 61.0631C35.7243 60.6568 38.9078 62.5295 39.5326 65.3612C39.5985 65.6652 39.1819 65.844 39.0077 65.5895C37.914 64.063 36.5692 62.7345 34.7796 62.097C34.1969 61.8769 33.5816 61.7329 32.9417 61.6347C32.6181 61.5856 32.6205 61.1089 32.9442 61.0631Z" fill="#1C1D1E"/>
<path d="M43.8219 74.9826C46.1904 79.8821 48.6089 84.766 50.682 89.7997C50.8845 90.2841 50.5024 90.852 49.9766 90.8438L14.632 91.0005C13.698 91.0153 12.3042 91.0872 11.4971 90.6052C10.6753 90.1138 10.4388 89.0665 10.0089 88.2061C8.20366 84.1114 6.27307 79.5298 4.49072 75.3966C3.5976 73.2617 1.77696 68.9612 0.882776 66.8263C0.737121 66.4417 0.286408 65.5027 0.20147 65.0891C-0.249037 63.3785 -0.122495 61.8286 2.47312 60.926C2.91785 60.7714 3.3979 60.728 3.86314 60.7452C6.19161 60.7923 8.51399 60.8618 10.8384 61.066C11.3028 61.1151 11.2941 61.7807 10.8418 61.8286C8.51915 62.0532 6.19763 62.1437 3.86964 62.2112C2.51092 62.1117 1.3643 63.3699 1.71866 64.7098C1.77508 64.9729 2.23188 65.9291 2.33924 66.2036C3.2689 68.3307 5.11765 72.6054 6.04493 74.7318C7.81771 78.8768 9.76822 83.4338 11.4971 87.5694C11.9586 88.5371 13.2844 89.5055 14.6253 89.4748L49.9701 89.3181L49.2737 90.3852C48.9832 89.771 48.703 89.1524 48.4329 88.5293C47.077 85.4149 45.8463 82.2477 44.5923 79.0908C44.0919 77.8273 43.6042 76.5582 43.1223 75.287C42.9553 74.8336 43.6063 74.5587 43.8219 74.9826Z" fill="#1C1D1E"/>
<path d="M70.4034 94.3134H52.316C51.0223 94.3134 49.9736 93.2647 49.9736 91.971V90.2493H73.4658C73.7424 90.2493 73.9666 90.4735 73.9666 90.7501C73.9666 92.7181 72.3714 94.3134 70.4034 94.3134Z" fill="#747473"/>
<path d="M73.9654 90.7502C73.9654 91.7342 73.5669 92.6249 72.9221 93.2697C72.2777 93.9141 71.387 94.3126 70.403 94.3126H52.3156C51.0227 94.3126 49.9736 93.264 49.9736 91.9707V90.2486H49.9945C50.1455 91.395 51.1274 92.2816 52.3156 92.2816H70.403C71.387 92.2816 72.2777 91.8831 72.9221 91.2383C73.2023 90.9581 73.4351 90.6299 73.6106 90.2695C73.8164 90.3325 73.9654 90.5231 73.9654 90.7502Z" fill="#747473"/>
<path d="M50.7361 91.0124V91.971C50.7361 92.8421 51.4443 93.5503 52.3154 93.5503H70.4028C71.8585 93.5503 73.0585 92.4342 73.1911 91.0124H50.7361ZM70.4028 95.0764H52.3154C50.6031 95.0764 49.21 93.6833 49.21 91.971V90.2493C49.21 89.8279 49.5516 89.4863 49.973 89.4863H73.4652C74.162 89.4863 74.729 90.0534 74.729 90.7501C74.729 93.1354 72.7881 95.0764 70.4028 95.0764Z" fill="#1C1D1E"/>
<path d="M67.9829 88.3701C67.0578 88.0248 66.0661 87.5747 65.0076 87.0101C64.6206 87.6054 63.0396 90.3876 58.9773 89.9531C57.1999 89.7624 54.9263 88.6409 54.5945 85.3776C54.5336 84.7578 54.5393 84.0598 54.6346 83.2762C54.8523 81.4682 55.5004 79.8812 56.4884 78.5805C59.1716 75.0467 64.3685 73.6356 70.2733 75.7087C70.2733 75.7087 70.9901 74.305 71.1849 72.7543L81.3897 75.6437L81.4282 75.6551C81.4282 75.6551 81.8496 93.5478 67.9829 88.3701Z" fill="#BBC0CB"/>
<path d="M67.9831 88.3701C67.058 88.0248 66.0663 87.5747 65.0078 87.0101C64.6208 87.6054 63.0398 90.3876 58.9775 89.9531C57.2001 89.7624 54.9265 88.6409 54.5947 85.3776C55.2567 86.2663 56.5308 87.4033 58.6874 87.3362C63.3696 87.1913 64.0484 83.133 66.1367 83.3008C68.2233 83.4685 71.1908 87.3174 76.344 84.7561C79.5152 83.1805 80.8601 79.317 81.3899 75.6437L81.4284 75.6551C81.4284 75.6551 81.8498 93.5478 67.9831 88.3701Z" fill="#747473"/>
<path d="M67.9831 88.3701C67.058 88.0248 66.0663 87.5747 65.0078 87.0101C64.6208 87.6054 63.0398 90.3876 58.9775 89.9531C58.9222 89.9473 58.8649 89.9396 58.8097 89.9318C58.804 89.9318 58.7999 89.9318 58.7962 89.9301C58.7447 89.9224 58.6915 89.9146 58.6399 89.9052C58.5826 89.8958 58.5237 89.8864 58.4665 89.8729C58.4206 89.8651 58.3768 89.8557 58.331 89.8442C58.2529 89.827 58.1747 89.8062 58.0962 89.7849C58.0487 89.7718 57.9992 89.7567 57.9513 89.7432C57.793 89.6937 57.633 89.6364 57.4767 89.5697C57.444 89.5582 57.4137 89.5431 57.381 89.5296C57.1846 89.4416 56.9903 89.3406 56.7996 89.2223C56.748 89.19 56.6965 89.1577 56.6449 89.1213C56.584 89.0812 56.5267 89.0394 56.4678 88.9957C56.4085 88.9535 56.3512 88.9077 56.2959 88.8602C56.2387 88.8124 56.1834 88.7649 56.1282 88.7134C56.0996 88.6884 56.073 88.6618 56.0464 88.6368C55.9641 88.5587 55.886 88.4748 55.8099 88.3889C55.7829 88.3586 55.7583 88.33 55.7334 88.2993C55.6074 88.1508 55.4912 87.9888 55.3807 87.8149C55.35 87.7654 55.3197 87.7138 55.289 87.6623C55.2088 87.5252 55.1344 87.3783 55.0661 87.2237C55.0354 87.157 55.0067 87.0882 54.9801 87.0179C54.9744 87.0027 54.9687 86.9872 54.9609 86.972C54.9343 86.9033 54.9094 86.8329 54.8848 86.7605C54.8697 86.7106 54.8541 86.6631 54.839 86.6116C54.8238 86.5678 54.8103 86.522 54.7989 86.4762C54.7932 86.4553 54.7874 86.4344 54.7817 86.4131C54.7666 86.3616 54.7531 86.3105 54.7416 86.2569C54.7359 86.2339 54.7322 86.211 54.7265 86.1902C54.7113 86.1272 54.6978 86.0642 54.6864 85.9995C54.6692 85.9136 54.654 85.824 54.6405 85.7323C54.6348 85.6943 54.6291 85.6542 54.6234 85.6125C54.614 85.5359 54.6045 85.4578 54.5947 85.3797C55.2584 86.2683 56.5324 87.4033 58.6874 87.3362C63.3696 87.1913 64.0484 83.133 66.1367 83.3008C66.4668 83.3274 66.8179 83.4456 67.1951 83.6154C67.2908 85.164 67.344 86.7908 67.9831 88.3701Z" fill="#E8E8E8"/>
<path d="M71.2419 88.3627C70.0149 87.9967 68.6994 87.5197 67.2955 86.9213C66.7821 87.5523 64.6851 90.5009 59.2967 90.0404C56.4915 89.7997 52.7523 88.1606 53.5365 82.9641C53.8252 81.0479 54.6848 79.3658 55.9954 77.9874C58.6085 76.2351 62.4286 74.7699 66.7088 77.088C71.7705 79.8329 69.1547 84.2493 71.2419 88.3627Z" fill="white"/>
<path d="M67.9831 88.3701C67.058 88.0248 66.0663 87.5747 65.0078 87.0101C64.6208 87.6054 63.0398 90.3876 58.9775 89.9531C58.9222 89.9473 58.8649 89.9396 58.8097 89.9318C58.804 89.9318 58.7999 89.9318 58.7962 89.9301C58.7447 89.9224 58.6915 89.9146 58.6399 89.9052C58.5826 89.8958 58.5237 89.8864 58.4665 89.8729C58.4206 89.8651 58.3768 89.8557 58.331 89.8442C58.2529 89.827 58.1747 89.8062 58.0962 89.7849C58.0487 89.7718 57.9992 89.7567 57.9513 89.7432C57.793 89.6937 57.633 89.6364 57.4767 89.5697C57.444 89.5582 57.4137 89.5431 57.381 89.5296C57.1846 89.4416 56.9903 89.3406 56.7996 89.2223C56.748 89.19 56.6965 89.1577 56.6449 89.1213C56.584 89.0812 56.5267 89.0394 56.4678 88.9957C56.4105 88.9515 56.3512 88.9077 56.2959 88.8602C56.2387 88.8124 56.1834 88.7649 56.1282 88.7134C56.0996 88.6884 56.073 88.6618 56.0464 88.6368C55.9641 88.5587 55.886 88.4748 55.8099 88.3889C55.7829 88.3586 55.7583 88.33 55.7334 88.2993C55.6074 88.1508 55.4912 87.9888 55.3807 87.8149C55.35 87.7654 55.3197 87.7138 55.289 87.6623C55.2088 87.5252 55.1344 87.3783 55.0661 87.2237C55.0354 87.157 55.0067 87.0882 54.9801 87.0179C54.9744 87.0027 54.9687 86.9872 54.9609 86.972C54.9343 86.9033 54.9094 86.8329 54.8848 86.7605C54.8697 86.7106 54.8541 86.6631 54.839 86.6116C54.8238 86.5678 54.8103 86.522 54.7989 86.4762C54.7932 86.4553 54.7874 86.4344 54.7817 86.4131C54.7666 86.3616 54.7531 86.3105 54.7416 86.2569C54.7359 86.2339 54.7322 86.211 54.7265 86.1902C54.7113 86.1272 54.6978 86.0642 54.6864 85.9995C54.6692 85.9136 54.654 85.824 54.6405 85.7323C54.6348 85.6943 54.6291 85.6542 54.6234 85.6125C54.614 85.5359 54.6045 85.4578 54.5947 85.3797C55.2584 86.2683 56.5324 87.4033 58.6874 87.3362C63.3696 87.1913 64.0484 83.133 66.1367 83.3008C66.4668 83.3274 66.8179 83.4456 67.1951 83.6154C67.2908 85.164 67.344 86.7908 67.9831 88.3701Z" fill="#F3F3F3"/>
<path d="M81.8083 75.6463C82.1692 79.027 81.6128 82.4961 80.0281 85.5303C76.6138 91.8639 70.0037 90.7412 64.6497 87.6837L65.6476 87.4267C64.0552 90.1594 61.012 91.2919 57.9806 90.5432C53.6646 89.4078 51.7291 83.4274 52.914 79.7635C54.8222 73.8535 62.5855 73.0457 68.2493 74.3464C69.023 74.5137 69.7807 74.7359 70.5258 74.9896L69.5938 75.3623C69.9886 74.7756 70.3319 74.0833 70.5822 73.4123C70.77 73.0617 70.716 72.3077 71.2819 72.4239C71.4545 72.4717 71.5666 72.6309 71.5626 72.8019C71.5392 73.9213 71.3265 74.9957 70.9525 76.0566C70.7782 76.4024 70.3744 76.5566 70.0205 76.4294C69.3323 76.1957 68.636 75.9912 67.9298 75.8381C65.8427 75.3918 63.6121 75.3672 61.577 75.9899C57.044 77.377 55.4334 78.2285 54.5917 80.9251C53.7031 83.6779 54.9972 88.2262 58.3665 89.0674C60.7849 89.6471 63.1174 88.7797 64.369 86.5945C64.5842 86.2574 65.0232 86.1498 65.3673 86.3376C66.3182 86.8126 67.2817 87.2516 68.2653 87.608C69.2497 87.9582 70.2525 88.2254 71.2545 88.3727C78.7786 89.4606 80.3338 81.436 81.0457 75.6643C81.0805 75.2138 81.7498 75.1909 81.8083 75.6463Z" fill="#1C1D1E"/>
<path d="M66.4122 83.6027C66.3087 84.9063 66.1692 86.1091 65.684 87.3656C65.5297 87.7645 65.078 87.9609 64.6811 87.8009C64.2294 87.6258 64.0568 87.0518 64.3334 86.6558C64.6251 86.2286 64.8743 85.7004 65.0915 85.1607C65.3084 84.6154 65.5027 84.0393 65.661 83.4755C65.7862 83.0377 66.4396 83.1519 66.4122 83.6027Z" fill="#1C1D1E"/>
<path d="M73.7421 78.0413C72.529 77.2852 71.2557 76.9264 69.9236 76.3876C68.9109 75.9273 69.6585 74.4732 70.6228 75.0313C71.7946 75.7673 73.1517 76.4686 74.1905 77.4243C74.3497 77.5635 74.3661 77.8057 74.2269 77.9648C74.1034 78.1064 73.898 78.1342 73.7421 78.0413Z" fill="#1C1D1E"/>
<path d="M83.2109 108.82C82.148 112.143 80.3906 116.005 77.0256 115.617C75.7158 115.468 70.4494 109.002 69.3782 106.246C68.1021 102.958 67.7108 100.124 67.954 97.7241C68.907 88.263 79.7366 85.5706 85.2439 88.5877L93.8402 80.2797C95.5829 82.7797 97.1147 86.4117 97.7599 90.2573C99.1431 98.4649 96.4861 107.637 83.2109 108.82Z" fill="#BBC0CB"/>
<path d="M83.2202 109.742C80.3552 111.988 80.3981 117.049 77.0312 116.655C75.7206 116.504 70.451 109.927 69.3791 107.124C68.1023 103.78 67.7107 100.898 67.954 98.4573C69.9278 98.1544 72.4852 98.5175 75.6065 100.464C84.7977 106.199 89.7122 104.046 92.5859 102.432C95.9524 100.54 97.2658 94.9442 97.7779 90.8633C99.5727 100.464 93.4114 112.64 83.2202 109.742Z" fill="#747473"/>
<path d="M85.3964 89.1406C77.3689 86.1222 69.4676 90.6329 68.5589 97.9211C68.099 101.063 68.7457 104.327 69.8439 107.332C70.9909 109.815 72.6794 112.151 74.4513 114.354C75.0899 115.099 75.8225 116 76.6019 116.512C76.5916 116.508 76.5798 116.506 76.5684 116.504C76.5604 116.503 76.5319 116.503 76.5589 116.505L76.6479 116.514C78.8325 116.739 80.1116 114.487 80.8806 113.023C81.3657 112.058 81.7568 111.037 82.1118 110.003C82.2187 109.693 82.5345 109.487 82.8879 109.463C84.8685 110.002 86.112 109.96 87.758 109.462C98.8412 106.182 99.1331 93.0336 96.0316 84.8883C95.4756 83.4111 94.7938 81.9675 93.9494 80.6186C93.4229 79.735 94.9078 79.0206 95.5059 79.9062C98.9238 85.5765 100.414 92.6193 99.0963 98.8979C97.4876 106.263 92.9541 111.865 84.3425 112.399L83.9485 112.399C82.887 112.399 81.4516 117.426 77.0378 118.058C76.747 118.052 76.4458 118.043 76.1593 117.982C75.744 117.893 75.4278 117.66 75.1219 117.428C73.4081 115.947 72.1392 114.159 70.8713 112.403C69.785 110.809 68.7045 109.191 68.0129 107.419C67.021 104.566 66.4181 101.556 66.6293 98.5761C66.9973 92.7868 71.2152 87.6818 78.1399 86.7864C79.4962 86.6136 80.9008 86.6184 82.2533 86.8913C83.5966 87.1681 84.9041 87.6945 85.8998 88.5189C86.2677 88.8252 85.842 89.3315 85.3964 89.1406Z" fill="#1C1D1E"/>
<path d="M77.6228 112.507C77.6803 112.961 78.0261 115.154 76.4643 116.421C73.7346 118.635 66.4139 117.464 63.0047 111.123C60.5944 106.639 60.6882 101.307 65.1742 99.6126C68.232 98.4574 72.111 101.81 73.767 105.873C73.767 105.873 74.523 107.13 75.8233 108.904C77.3582 110.998 77.6228 112.507 77.6228 112.507Z" fill="white"/>
<path d="M77.4086 117.884C74.9556 119.893 69.0471 119.328 65.0469 115.055C68.8593 117.643 73.3565 117.841 75.1197 115.925C77.8495 112.955 72.4292 102.988 72.2929 102.738C73.1966 103.825 73.9703 105.106 74.5146 106.459C74.5146 106.459 75.3251 107.823 76.7211 109.743C78.3679 112.011 78.6512 113.646 78.6512 113.646C78.7114 114.138 79.0833 116.513 77.4086 117.884Z" fill="#F3F3F3"/>
<path d="M79.523 112.943C81.0738 118.643 74.7151 119.999 69.8541 118.342C65.4405 116.933 62.2423 113.433 60.863 109.51C59.5811 106.079 59.7535 101.47 63.5056 99.2993C64.5758 98.6752 65.8836 98.233 67.167 98.3764C70.1449 98.6897 72.5891 100.862 74.0234 103.049C74.5777 103.936 75.0093 104.883 75.2234 105.875C75.2709 106.095 75.1099 106.307 74.8637 106.349C74.672 106.383 74.4847 106.302 74.3894 106.161C72.7917 103.927 71.0546 101.441 68.2832 100.34C67.3093 99.9846 66.3473 99.9234 65.4908 100.294C62.8085 101.306 61.9012 103.876 62.18 106.333C62.6705 110.755 65.7591 115.151 70.5142 116.764C73.3441 117.785 78.0398 117.823 78.5199 114.394C78.6013 113.959 78.6329 113.518 78.6363 113.038C78.6377 112.816 78.8408 112.637 79.0895 112.638C79.2993 112.64 79.4746 112.769 79.523 112.943Z" fill="#1C1D1E"/>
<path d="M84.8296 106.252C85.0654 107.613 85.1964 108.95 85.1791 110.323C85.0991 111.577 82.1283 111.562 82.083 110.307C82.2652 109.599 82.6155 108.909 82.796 108.187C82.9897 107.544 83.1587 106.888 83.2947 106.243C83.4151 105.691 84.7323 105.704 84.8296 106.252Z" fill="#1C1D1E"/>
<path d="M52.5733 78.2278C51.3295 77.5331 49.9937 76.8625 48.6558 76.4092C47.6288 76.0132 48.2699 74.53 49.2629 75.0095C50.6242 75.7542 51.8172 76.6379 53.0103 77.6027C53.3687 77.9018 52.9743 78.4619 52.5733 78.2278Z" fill="#1C1D1E"/>
<path d="M72.8488 110.977C74.0197 112.364 74.2995 114.212 73.1033 115.196C71.4466 116.558 68.7981 115.304 67.6823 113.982C66.5671 112.661 66.0502 110.166 68.1587 109.339C69.6811 108.741 71.6779 109.591 72.8488 110.977Z" fill="#FE0098"/>
<path d="M54.2915 92.2816C54.2915 92.6417 53.9994 92.9342 53.6389 92.9342C53.2785 92.9342 52.9863 92.6417 52.9863 92.2816C52.9863 91.9212 53.2785 91.629 53.6389 91.629C53.9994 91.629 54.2915 91.9212 54.2915 92.2816Z" fill="#1C1D1E"/>
<path d="M59.9432 92.9342H56.499V91.629H59.9432V92.9342Z" fill="#1C1D1E"/>
<path d="M69.308 92.6265H68.2995C68.1297 92.6265 67.9922 92.4886 67.9922 92.3188C67.9922 92.149 68.1297 92.0111 68.2995 92.0111H69.308C69.4778 92.0111 69.6157 92.149 69.6157 92.3188C69.6157 92.4886 69.4778 92.6265 69.308 92.6265Z" fill="#1C1D1E"/>
<path d="M61.4642 87.1763C61.6041 87.5805 62.1012 88.7523 62.618 88.5928C63.6147 88.1771 64.2628 89.6054 63.2927 90.0812C63.0742 90.195 62.8025 90.1426 62.5746 90.1176C62.1569 90.0726 61.776 89.8603 61.5334 89.6103C61.0882 89.1512 60.9278 88.6263 60.8047 88.0605C60.7679 87.6877 60.4974 86.9586 61.0714 86.8907C61.258 86.8801 61.4168 87.0049 61.4642 87.1763Z" fill="#1C1D1E"/>
<path d="M57.6371 87.189C57.7803 87.9038 58.0499 89.0339 58.8703 89.1783C60.0695 89.4054 59.5282 91.1307 58.4079 90.6324C57.0541 90.0596 56.7759 88.4864 56.8745 87.1911C56.9166 86.7275 57.5925 86.7304 57.6371 87.189Z" fill="#1C1D1E"/>
<path d="M76.1317 95.9606C75.946 95.9606 75.8265 95.8256 75.7839 95.5032C75.6268 94.3134 76.9705 91.7628 79.026 90.6957C80.4662 89.9486 81.8106 89.6954 82.8793 89.6954C84.1693 89.6954 85.058 90.064 85.2298 90.3774C85.5886 91.0324 83.5527 91.2681 79.9895 93.313C78.2204 94.3285 76.7769 95.9606 76.1317 95.9606Z" fill="#BBC0CB"/>
<path d="M16.5181 63.6858C9.76109 63.6858 3.52089 63.5119 5.12031 63.1916C7.52136 62.7108 14.4759 62.3855 20.6409 62.3855C25.0462 62.3855 29.0476 62.5517 30.6989 62.9461C32.8228 63.4534 24.3257 63.6858 16.5181 63.6858Z" fill="white"/>
<path d="M81.7043 47.4966C75.0374 47.4966 73.1482 44.1876 74.7263 42.9792C77.0953 41.1659 79.8723 44.7063 85.955 44.7063C90.3015 44.7063 91.5536 43.2186 93.1828 44.7063C95.2784 46.62 89.4077 47.4966 81.7043 47.4966Z" fill="white"/>
<path d="M82.8076 41.3015C77.5763 41.3015 76.0939 39.2655 77.3322 38.5219C79.1911 37.4062 81.3701 39.5846 86.1431 39.5846C89.5536 39.5846 90.5361 38.6692 91.8146 39.5846C93.4589 40.7622 88.8523 41.3015 82.8076 41.3015Z" fill="white"/>
<path d="M55.1346 27.1041C51.6012 27.1041 48.338 25.4126 49.1744 22.2963C50.4299 17.6197 54.0667 14.4555 57.2905 14.4555C59.5941 14.4555 61.6866 16.0714 62.5501 19.9082C63.6607 24.8435 59.2174 27.1041 55.1346 27.1041Z" fill="white"/>
<path d="M40.8497 44.0225C40.251 43.4258 39.2803 43.5326 38.6815 44.1294L38.5883 44.2224L38.4952 44.1294C37.8964 43.5326 36.9257 43.4258 36.327 44.0225C35.7282 44.6192 35.7282 45.587 36.327 46.184L36.4202 46.2767L38.3025 48.1533C38.4604 48.3106 38.7163 48.3106 38.8741 48.1533L40.7565 46.2767L40.8497 46.184C41.4484 45.587 41.4484 44.6192 40.8497 44.0225Z" fill="white"/>
<path d="M65.9034 46.7799C65.3877 46.0845 64.3675 46.0156 63.6473 46.496L63.5352 46.5709L63.4549 46.4625C62.9392 45.7672 61.9556 45.4876 61.2354 45.9681C60.5152 46.4485 60.3494 47.4019 60.865 48.0976L60.9454 48.2057L62.5667 50.3924C62.7026 50.5757 62.9667 50.6216 63.1566 50.495L65.421 48.984L65.5331 48.9095C66.2533 48.4287 66.4192 47.4753 65.9034 46.7799Z" fill="white"/>
<path d="M66.8899 105.828C67.204 106.539 67.1487 107.369 66.6059 107.766C66.0635 108.164 65.1067 107.802 64.6848 106.845C64.2626 105.889 64.6301 104.916 65.2803 104.763C65.9306 104.61 66.5759 105.117 66.8899 105.828Z" fill="#FE0098"/>
<path d="M69.9192 105.605C70.0958 106.317 69.8916 107.095 69.2919 107.403C68.6924 107.712 67.8273 107.251 67.5901 106.294C67.3526 105.337 67.8862 104.463 68.5464 104.399C69.2066 104.334 69.7425 104.894 69.9192 105.605Z" fill="#FE0098"/>
<path d="M65.6719 108.906C65.968 109.439 65.9246 110.06 65.4275 110.354C64.9298 110.649 64.0436 110.374 63.6453 109.658C63.2471 108.941 63.5779 108.215 64.1767 108.104C64.7756 107.992 65.3759 108.374 65.6719 108.906Z" fill="#FE0098"/>
<path d="M73.3613 107.869C73.4102 108.454 73.1044 109.027 72.514 109.165C71.923 109.304 71.2122 108.797 71.1464 108.011C71.0805 107.224 71.6998 106.633 72.3072 106.695C72.9147 106.757 73.3124 107.284 73.3613 107.869Z" fill="#FE0098"/>
<path d="M89.589 30.395C93.3928 38.3193 96.8099 51.2855 92.0115 59.3493C88.6201 64.7937 82.4969 67.8112 76.5345 69.5713C72.9577 70.5614 69.2607 71.2922 65.5371 71.176C65.1034 71.158 65.015 70.5365 65.4532 70.4199C67.8418 69.8262 70.2353 69.4891 72.5903 68.9433C74.5898 68.5182 76.7243 67.9044 78.6407 67.1815C83.2816 65.4062 87.864 62.757 90.5398 58.4622C94.1166 52.2977 92.6203 44.2503 90.8524 37.6896C90.2174 35.3538 89.4994 33.0348 88.875 30.6638C88.8206 30.4588 88.9425 30.249 89.1475 30.195C89.3263 30.1475 89.5096 30.2355 89.589 30.395Z" fill="#1C1D1E"/>
<path d="M55.9792 49.6124C55.7553 50.5976 52.6092 52.1038 50.9389 51.8583C49.146 51.5953 47.3824 49.5868 47.2461 48.5908C47.0861 47.4246 48.7119 46.2709 52.2282 46.9001C55.1045 47.4144 56.2243 48.5322 55.9792 49.6124Z" fill="#FE0098"/>
<path fill-rule="evenodd" clip-rule="evenodd" d="M48.6767 47.8108C48.0512 48.08 48.0291 48.3809 48.0429 48.4816L48.0429 48.4819C48.0542 48.5645 48.1209 48.7618 48.3062 49.0516C48.4815 49.326 48.7296 49.6307 49.0304 49.9215C49.6483 50.519 50.39 50.9652 51.0558 51.0629L51.056 51.0629C51.6585 51.1514 52.6884 50.9144 53.6666 50.466C54.1374 50.2502 54.546 50.0079 54.8367 49.7804C54.9821 49.6666 55.0828 49.5683 55.1454 49.492C55.1783 49.4519 55.1934 49.4267 55.199 49.4165C55.2288 49.2599 55.1999 49.0083 54.7774 48.6761C54.3149 48.3124 53.462 47.9376 52.0869 47.6917L52.0867 47.6917C50.4163 47.3928 49.3058 47.54 48.6767 47.8108ZM52.3699 46.1087C50.5241 45.7784 49.0637 45.8934 48.0409 46.3337C47.0145 46.7755 46.3037 47.6345 46.4497 48.6999M52.37 46.1087C53.8711 46.3771 55.0163 46.8182 55.7715 47.412C56.5501 48.0243 56.9735 48.8652 56.7635 49.7905L56.7635 49.7907C56.6975 50.081 56.5424 50.3244 56.3887 50.5118C56.2299 50.7055 56.035 50.8846 55.8278 51.0467C55.4135 51.371 54.8892 51.6746 54.3367 51.9279C53.2684 52.4175 51.8901 52.8108 50.8223 52.6539C49.6952 52.4886 48.6587 51.799 47.9126 51.0775C47.5313 50.7088 47.2009 50.3082 46.9512 49.9177C46.7114 49.5426 46.5066 49.1155 46.4497 48.7002" fill="#1C1D1E"/>
<path d="M51.0191 49.2942C50.9933 49.2942 50.9671 49.2934 50.9417 49.2917C50.6893 49.2758 49.7822 49.2083 49.743 48.971C49.7037 48.7333 49.9717 48.5332 50.817 48.5119C50.8571 48.5107 50.8959 48.5103 50.9336 48.5103C51.6168 48.5103 51.893 48.6727 51.927 48.8785C51.9609 49.0831 51.4511 49.2942 51.0191 49.2942Z" fill="#F3F3F3"/>
<ellipse cx="19.4558" cy="66.5919" rx="1.41974" ry="2.19414" transform="rotate(-28.9069 19.4558 66.5919)" fill="#1C1D1E"/>
<path d="M23.0445 77.1905C23.0611 77.2591 23.0861 77.3598 23.1175 77.4878C23.1535 77.6152 23.2019 77.7689 23.2593 77.9453C23.3214 78.1201 23.3964 78.3164 23.4819 78.5301C23.8378 79.3756 24.3365 80.5053 24.9825 81.5949C25.3075 82.1379 25.6753 82.6673 26.0762 83.1346C26.4752 83.6014 26.915 84.0055 27.3501 84.2794C27.5648 84.4206 27.7777 84.5267 27.9703 84.6077C28.1639 84.6869 28.3384 84.7407 28.4824 84.7724C28.5548 84.7872 28.6189 84.8004 28.6751 84.8117C28.7311 84.8181 28.7789 84.8237 28.8174 84.8284C28.8947 84.837 28.9357 84.8419 28.9357 84.8419L28.8671 84.2061C28.8671 84.2061 28.8352 84.2029 28.7757 84.1965C28.7457 84.1936 28.7092 84.19 28.6655 84.1856C28.6224 84.1773 28.5727 84.1672 28.5168 84.1565C28.4055 84.1323 28.2701 84.0957 28.1163 84.0368C27.9633 83.9761 27.7912 83.8963 27.6106 83.7832C27.2481 83.5637 26.8481 83.2277 26.4656 82.8122C26.0806 82.398 25.7159 81.9061 25.3776 81.3964C24.6971 80.3762 24.1412 79.2789 23.7382 78.4533C23.5372 78.0416 23.3592 77.7003 23.231 77.4609C23.1022 77.2223 23.0242 77.0849 23.0242 77.0849C23.0242 77.0849 23.0311 77.1217 23.0445 77.1905Z" fill="#448D35"/>
<path d="M23.8564 72.7664C23.6382 72.2412 23.1765 71.791 22.5965 71.6091C21.7012 71.3274 20.8681 71.7891 20.7348 72.6396C20.5561 73.7807 22.0304 75.3031 22.6196 76.3108C22.7337 76.5065 22.9362 76.8838 22.7419 76.9916C22.5473 77.0991 22.2696 76.7635 22.1302 76.5816C21.411 75.6459 20.5922 73.7607 19.3915 73.3833C18.4966 73.1017 17.6631 73.5633 17.5298 74.4143C17.4438 74.9654 17.6737 75.5433 18.089 75.9597C17.5886 76.0878 17.2077 76.4738 17.1213 77.0253C16.9883 77.876 17.6061 78.7939 18.5012 79.0753C19.7013 79.4529 21.0061 78.2357 21.9367 77.8185C22.1174 77.7373 22.4692 77.5996 22.6132 77.8138C22.7572 78.0275 22.4614 78.2484 22.2992 78.3574C21.4645 78.9169 19.6751 79.4136 19.4964 80.5542C19.3633 81.405 19.9812 82.3229 20.8761 82.6045C21.4559 82.7866 22.0088 82.6559 22.3633 82.311C22.5819 82.8358 23.0434 83.2861 23.6234 83.4681C24.5187 83.7497 25.352 83.2883 25.4851 82.4375C25.6636 81.2967 24.1899 79.774 23.6005 78.7665C23.4859 78.5705 23.2838 78.1933 23.478 78.0856C23.6726 77.978 23.9503 78.3136 24.0899 78.4958C24.8085 79.4316 25.6281 81.3164 26.8284 81.6939C27.7233 81.9755 28.557 81.5137 28.6901 80.6629C28.7761 80.1118 28.546 79.5336 28.1309 79.1175C28.6313 78.9893 29.0122 78.6034 29.0988 78.0517C29.2316 77.2011 28.614 76.2831 27.7189 76.0016C26.5186 75.6242 25.2137 76.841 24.2836 77.2587C24.1025 77.3398 23.7507 77.4775 23.6067 77.2634C23.4627 77.0496 23.7583 76.8285 23.9206 76.72C24.7552 76.16 26.5453 75.6639 26.7235 74.5229C26.8568 73.6723 26.2387 72.7543 25.3438 72.4727C24.7638 72.2903 24.2111 72.4212 23.8564 72.7664Z" fill="#5ABE34"/>
<path d="M24.5297 73.4419C24.4823 73.4589 24.4339 73.4758 24.3856 73.4928C24.197 73.5697 24.0135 73.6557 23.8821 73.7301C23.7996 73.7744 23.7398 73.811 23.7032 73.8338L23.7977 73.1481L23.6788 73.8259C23.6524 73.7835 23.609 73.7146 23.5474 73.6252C23.4508 73.4789 23.3101 73.2908 23.1622 73.1084C23.1237 73.0639 23.0848 73.0197 23.0466 72.9758C23.0075 72.9333 22.9732 72.8875 22.9324 72.8497C22.8536 72.7723 22.7828 72.6972 22.7173 72.6381C22.5819 72.5255 22.4913 72.4503 22.4913 72.4503C22.4913 72.4503 22.5797 72.5278 22.7123 72.6434C22.7761 72.7043 22.8446 72.7809 22.921 72.8598C22.9603 72.8984 22.9934 72.9445 23.0311 72.988C23.0679 73.0324 23.1048 73.0773 23.1424 73.1224C23.2844 73.3072 23.4188 73.4974 23.511 73.6444C23.605 73.7902 23.6604 73.8909 23.6604 73.8909C23.6677 73.8874 23.5583 74.5114 23.5583 74.5114C23.531 74.4681 23.4908 74.4052 23.4372 74.3274C23.3409 74.1814 23.1997 73.9933 23.0523 73.8109C23.0134 73.7663 22.9747 73.7224 22.9367 73.6783C22.8976 73.6358 22.8631 73.5902 22.8225 73.5521C22.7435 73.475 22.6727 73.3999 22.6074 73.3405C22.4717 73.2283 22.3812 73.153 22.3812 73.153C22.3812 73.153 22.4698 73.2303 22.6025 73.3463C22.666 73.407 22.7347 73.4834 22.8112 73.5627C22.8502 73.6011 22.8835 73.6474 22.9212 73.6904C22.9579 73.7351 22.9952 73.78 23.0323 73.8251C23.1746 74.0101 23.3089 74.1999 23.4007 74.3469C23.4839 74.475 23.5341 74.5638 23.5453 74.5843L23.4378 75.1975C23.4108 75.1549 23.3742 75.098 23.3276 75.0301C23.231 74.8838 23.0901 74.696 22.9424 74.5134C22.9037 74.469 22.8648 74.4249 22.827 74.381C22.7877 74.3382 22.7532 74.2927 22.7128 74.2548C22.6338 74.1777 22.563 74.1026 22.4978 74.0432C22.3619 73.9306 22.2715 73.8557 22.2715 73.8557C22.2715 73.8557 22.3597 73.933 22.4926 74.0487C22.5561 74.1095 22.625 74.1861 22.701 74.265C22.7403 74.3035 22.7738 74.3497 22.8114 74.3933C22.848 74.4376 22.8855 74.4827 22.9228 74.5276C23.0647 74.7126 23.1992 74.9026 23.291 75.0496C23.3575 75.1526 23.4033 75.2308 23.4252 75.269L23.3175 75.8838C23.2913 75.8431 23.259 75.7929 23.2177 75.733C23.1209 75.5865 22.9802 75.3985 22.8326 75.2163C22.7939 75.1719 22.7548 75.1275 22.717 75.0836C22.6776 75.0409 22.6434 74.9956 22.6027 74.9575C22.5237 74.8803 22.4529 74.8053 22.3877 74.7459C22.2519 74.6337 22.1615 74.5583 22.1615 74.5583C22.1615 74.5583 22.25 74.6357 22.3825 74.7514C22.4462 74.8124 22.5147 74.8889 22.5912 74.9679C22.6302 75.0062 22.6635 75.0525 22.7013 75.096C22.7381 75.1405 22.7752 75.1851 22.8127 75.2303C22.9546 75.4153 23.0889 75.6054 23.1809 75.7523C23.2395 75.8426 23.2806 75.9116 23.3047 75.9541L23.1526 76.8237C23.1134 77.0448 23.0223 77.257 22.9488 77.2979C22.8751 77.3389 22.6252 77.3152 22.3906 77.2452L21.4681 76.9711C21.4381 76.9316 21.389 76.867 21.3271 76.7787C21.2251 76.6373 21.1004 76.4421 20.9835 76.2428C20.9564 76.1923 20.9293 76.1417 20.9029 76.0918C20.8773 76.0416 20.8472 75.9938 20.8273 75.9445C20.7852 75.8466 20.741 75.7565 20.7108 75.6773C20.6578 75.5173 20.6223 75.4105 20.6223 75.4105C20.6223 75.4105 20.6545 75.518 20.7028 75.6787C20.731 75.7586 20.7722 75.85 20.8122 75.9492C20.8307 75.9991 20.8594 76.0474 20.8837 76.0986C20.909 76.1497 20.9349 76.201 20.9607 76.2525C21.072 76.4552 21.192 76.6545 21.2911 76.7995C21.3315 76.8603 21.3655 76.9092 21.3938 76.949L20.7416 76.755C20.7142 76.7198 20.6584 76.6471 20.588 76.5463C20.486 76.4049 20.3608 76.2097 20.2442 76.0106C20.2169 75.9598 20.1902 75.9093 20.1634 75.8594C20.1378 75.8092 20.1077 75.7614 20.0881 75.7123C20.0457 75.6142 20.0017 75.5238 19.9713 75.4449C19.9182 75.2849 19.883 75.1783 19.883 75.1783C19.883 75.1783 19.9152 75.2854 19.9637 75.4463C19.9915 75.5262 20.0329 75.6174 20.0727 75.7168C20.0916 75.7667 20.12 75.8154 20.1442 75.8662C20.1696 75.9171 20.1954 75.9686 20.2211 76.0201C20.3328 76.223 20.4529 76.4221 20.552 76.5671C20.5972 76.6355 20.6364 76.6911 20.6657 76.7322L20.0154 76.5389C20.0003 76.5202 19.9362 76.4395 19.8487 76.3137C19.7465 76.1725 19.6217 75.9769 19.5049 75.778C19.4778 75.7274 19.4509 75.6767 19.4241 75.6268C19.3987 75.5768 19.3688 75.5288 19.3489 75.4795C19.3063 75.3815 19.2626 75.2914 19.2322 75.2125C19.1791 75.0521 19.1437 74.9457 19.1437 74.9457C19.1437 74.9457 19.1758 75.0528 19.2242 75.2135C19.2526 75.2936 19.2938 75.385 19.3336 75.484C19.3523 75.534 19.3811 75.5828 19.4053 75.6336C19.4303 75.6844 19.4561 75.7359 19.4821 75.7877C19.5934 75.9904 19.7136 76.1895 19.8127 76.3345C19.8645 76.4128 19.9078 76.4742 19.9381 76.5162L19.2759 76.3192C19.2825 76.3146 19.2095 76.224 19.1096 76.0813C19.0074 75.9401 18.8824 75.7447 18.7658 75.5456C18.7387 75.495 18.7116 75.4445 18.685 75.3944C18.6594 75.3441 18.6293 75.2963 18.6096 75.2469C18.5673 75.1492 18.5231 75.059 18.4929 74.9799C18.4398 74.8199 18.4046 74.7133 18.4046 74.7133C18.4046 74.7133 18.4366 74.8206 18.4852 74.9815C18.5133 75.061 18.5545 75.1524 18.5943 75.2518C18.613 75.3018 18.6417 75.3502 18.666 75.4014C18.6912 75.452 18.717 75.5035 18.7427 75.555C18.8541 75.7578 18.9745 75.9571 19.0734 76.1023C19.1333 76.1927 19.181 76.2593 19.2105 76.2999L18.4916 76.0858L19.2069 76.3233C19.168 76.342 19.1049 76.3741 19.0237 76.4203C18.8908 76.4921 18.7222 76.6008 18.5609 76.7177C18.5219 76.7486 18.4834 76.7801 18.4455 76.8109C18.4083 76.8428 18.3677 76.8693 18.336 76.9038C18.2702 76.9693 18.2058 77.0277 18.1565 77.0832C18.0644 77.1999 18.0033 77.2778 18.0033 77.2778C18.0033 77.2778 18.0669 77.2024 18.1628 77.0891C18.214 77.0358 18.2808 76.9801 18.3484 76.917C18.3811 76.8842 18.4228 76.8588 18.4606 76.8286C18.4996 76.7995 18.5392 76.7698 18.5791 76.7401C18.7443 76.6294 18.9151 76.5274 19.0504 76.4604C19.183 76.3908 19.2764 76.3528 19.2764 76.3528C19.2717 76.3447 19.9306 76.5631 19.9306 76.5631C19.8905 76.583 19.8331 76.6129 19.763 76.6525C19.6301 76.7248 19.4616 76.8334 19.3 76.9501C19.2615 76.9815 19.2229 77.0125 19.1846 77.0433C19.1473 77.0752 19.107 77.1019 19.0751 77.1362C19.0095 77.202 18.9448 77.2601 18.8955 77.3156C18.8037 77.4325 18.7426 77.5104 18.7426 77.5104C18.7426 77.5104 18.8063 77.435 18.9023 77.3216C18.9535 77.2683 19.0201 77.2123 19.0875 77.1494C19.1203 77.117 19.1619 77.0912 19.2 77.0612C19.239 77.0321 19.2785 77.002 19.3182 76.9725C19.4832 76.862 19.6546 76.7598 19.7893 76.693C19.9062 76.6317 19.9883 76.5967 20.0076 76.5889L20.6547 76.8034C20.6157 76.8231 20.5637 76.85 20.5023 76.8851C20.3692 76.9572 20.2008 77.0656 20.0395 77.1825C20.0006 77.2139 19.9618 77.2451 19.9236 77.2757C19.8864 77.3076 19.8461 77.3343 19.8144 77.3684C19.7486 77.4343 19.6841 77.4923 19.6346 77.548C19.5428 77.6649 19.4817 77.7428 19.4817 77.7428C19.4817 77.7428 19.5454 77.6674 19.6412 77.5542C19.6926 77.5007 19.7592 77.4451 19.8268 77.382C19.8593 77.349 19.901 77.3236 19.9388 77.2934C19.9782 77.2643 20.018 77.2344 20.0573 77.2049C20.2225 77.0942 20.3941 76.9922 20.5288 76.9254C20.6227 76.8763 20.6944 76.8439 20.73 76.8283L21.3791 77.0434C21.3414 77.0627 21.2958 77.0866 21.2416 77.1177C21.1083 77.1896 20.9402 77.2982 20.7788 77.4151C20.7401 77.4463 20.7013 77.4775 20.6632 77.5081C20.6258 77.5402 20.5854 77.5665 20.5537 77.601C20.4881 77.6668 20.4234 77.7249 20.374 77.7806C20.2821 77.8976 20.221 77.9754 20.221 77.9754C20.221 77.9754 20.2847 77.9 20.3805 77.7868C20.4319 77.7333 20.4985 77.6773 20.5661 77.6146C20.5988 77.5814 20.6403 77.5562 20.6786 77.526C20.7176 77.4969 20.7573 77.467 20.7966 77.4375C20.9618 77.3268 21.133 77.2248 21.2679 77.1578C21.3502 77.1148 21.4137 77.0855 21.4532 77.068L22.3708 77.3726C22.6042 77.4499 22.8378 77.5785 22.8922 77.6593C22.9468 77.7402 22.9661 77.9875 22.9352 78.2115L22.8143 79.0906C22.7795 79.1144 22.7215 79.1523 22.6418 79.1988C22.5144 79.2774 22.3362 79.3687 22.1522 79.4515C22.1048 79.4697 22.058 79.4884 22.0114 79.5063C21.9641 79.5231 21.9204 79.5455 21.8731 79.5567C21.7805 79.5821 21.6953 79.6104 21.6195 79.6274C21.4647 79.6529 21.3616 79.6698 21.3616 79.6698C21.3616 79.6698 21.4662 79.6561 21.6227 79.6357C21.6997 79.6212 21.7858 79.5956 21.8806 79.5727C21.9287 79.563 21.9734 79.5423 22.0218 79.5272C22.0692 79.5102 22.1176 79.4933 22.1659 79.4764C22.3541 79.3994 22.5376 79.3134 22.6689 79.239C22.7243 79.209 22.7687 79.1831 22.8044 79.1617L22.7192 79.7836C22.6877 79.8052 22.623 79.8484 22.5319 79.9017C22.4044 79.9801 22.2263 80.0716 22.0425 80.1542C21.995 80.1726 21.9479 80.1911 21.9016 80.2092C21.8543 80.226 21.8103 80.2481 21.7633 80.2596C21.6706 80.2849 21.5855 80.3133 21.5099 80.3305C21.3549 80.3558 21.2517 80.3727 21.2517 80.3727C21.2517 80.3727 21.3563 80.359 21.5131 80.3384C21.5896 80.3239 21.6762 80.2983 21.7707 80.2756C21.8186 80.2656 21.8634 80.245 21.9117 80.2299C21.9592 80.2129 22.0073 80.1962 22.0558 80.179C22.2445 80.1021 22.4279 80.0161 22.5593 79.9417C22.6215 79.9081 22.6719 79.8782 22.709 79.8559L22.6236 80.4761C22.6072 80.4878 22.5352 80.5383 22.4219 80.6044C22.2947 80.6828 22.1163 80.7742 21.9322 80.8566C21.8851 80.8751 21.838 80.8936 21.7913 80.9116C21.7444 80.9285 21.7004 80.9506 21.6534 80.962C21.5606 80.9876 21.4756 81.0157 21.3995 81.033C21.245 81.0583 21.1418 81.0752 21.1418 81.0752C21.1418 81.0752 21.2462 81.0617 21.4027 81.0408C21.4795 81.0266 21.5663 81.0008 21.6608 80.978C21.7087 80.9681 21.7537 80.9477 21.8018 80.9324C21.8491 80.9156 21.8976 80.8989 21.9459 80.8819C22.1344 80.8048 22.3178 80.7184 22.4492 80.6444C22.5207 80.6057 22.5757 80.5728 22.6135 80.5496L22.5265 81.181C22.5209 81.1738 22.441 81.2317 22.3118 81.3071C22.1848 81.3853 22.0064 81.4767 21.8225 81.5593C21.775 81.5778 21.7281 81.596 21.6814 81.6141C21.6343 81.6311 21.5908 81.6533 21.5433 81.6647C21.4507 81.6901 21.3655 81.7184 21.2897 81.7354C21.1347 81.7612 21.0319 81.7777 21.0319 81.7777C21.0319 81.7777 21.1363 81.7642 21.2929 81.7433C21.3696 81.729 21.4562 81.7035 21.5507 81.6807C21.5989 81.671 21.6436 81.6503 21.6919 81.6348C21.7394 81.6183 21.7879 81.6011 21.8362 81.5842C22.0245 81.5076 22.2079 81.4213 22.3391 81.347C22.4218 81.3022 22.482 81.266 22.5182 81.2432L22.4239 81.9287L22.5427 81.251C22.569 81.2934 22.6124 81.3623 22.6739 81.452C22.7708 81.5983 22.9114 81.7865 23.0592 81.9685C23.0981 82.0131 23.1368 82.0575 23.1748 82.1012C23.2139 82.1437 23.2482 82.1894 23.2891 82.2273C23.3679 82.3047 23.4387 82.3797 23.5041 82.4389C23.6399 82.5515 23.7303 82.6265 23.7303 82.6265C23.7303 82.6265 23.6417 82.5491 23.5089 82.4334C23.4454 82.3726 23.3766 82.2958 23.3006 82.2169C23.2616 82.1786 23.2278 82.1322 23.1903 82.089C23.1535 82.0445 23.1162 81.9996 23.0791 81.9545C22.9368 81.7695 22.8025 81.5794 22.7107 81.4327C22.6165 81.2868 22.5611 81.1861 22.5611 81.1861C22.5537 81.1896 22.6633 80.5653 22.6633 80.5653C22.6904 80.6088 22.7308 80.672 22.784 80.7493C22.8809 80.8956 23.0217 81.0837 23.1693 81.2663C23.208 81.3106 23.2469 81.3548 23.2849 81.3985C23.3241 81.4414 23.3583 81.4868 23.3989 81.5244C23.4779 81.602 23.5485 81.6768 23.6142 81.7362C23.7498 81.849 23.8402 81.924 23.8402 81.924C23.8402 81.924 23.7519 81.8469 23.6192 81.7309C23.5554 81.67 23.4868 81.5936 23.4105 81.5145C23.3712 81.4759 23.338 81.43 23.3004 81.3863C23.2636 81.3418 23.2263 81.297 23.1892 81.2519C23.0471 81.0671 22.9126 80.8771 22.8208 80.7301C22.7376 80.602 22.6873 80.5132 22.6762 80.4926L22.7838 79.8792C22.8107 79.9221 22.8473 79.979 22.8939 80.0468C22.9906 80.1929 23.1311 80.3807 23.279 80.5636C23.3177 80.6079 23.3566 80.6521 23.3946 80.6958C23.4335 80.7385 23.4682 80.7843 23.5086 80.8221C23.5876 80.8993 23.6584 80.9743 23.7238 81.0335C23.8595 81.1463 23.9499 81.2213 23.9499 81.2213C23.9499 81.2213 23.8617 81.144 23.7289 81.0282C23.6651 80.9673 23.5966 80.8907 23.5204 80.812C23.4811 80.7734 23.4478 80.7271 23.4103 80.6838C23.3732 80.6392 23.3362 80.5945 23.2991 80.5494C23.1568 80.3644 23.0224 80.1742 22.9304 80.0274C22.8639 79.9243 22.8182 79.8461 22.7963 79.8079L22.9039 79.1931C22.9299 79.2341 22.9626 79.2839 23.004 79.3442C23.1005 79.4904 23.2412 79.6781 23.3891 79.8609C23.4278 79.9053 23.4667 79.9494 23.5045 79.9933C23.5436 80.0358 23.578 80.0814 23.6187 80.1194C23.6977 80.1966 23.7685 80.2717 23.8339 80.3309C23.9698 80.4435 24.06 80.5186 24.06 80.5186C24.06 80.5186 23.9714 80.4413 23.839 80.3255C23.7752 80.2646 23.7067 80.188 23.6302 80.1091C23.5912 80.0707 23.5577 80.0242 23.5202 79.9809C23.4833 79.9365 23.4463 79.8918 23.4089 79.8465C23.2669 79.6617 23.1323 79.4717 23.0403 79.3245C22.9819 79.2344 22.941 79.1652 22.9167 79.1229L23.0691 78.2531C23.1078 78.032 23.1991 77.8195 23.2729 77.7789C23.3462 77.7383 23.5959 77.7618 23.8306 77.8315L24.7533 78.1058C24.7833 78.1453 24.8326 78.2098 24.8939 78.2982C24.9961 78.4394 25.1211 78.6348 25.2377 78.8339C25.265 78.8847 25.2921 78.9352 25.3187 78.9853C25.3443 79.0352 25.3742 79.0832 25.3939 79.1327C25.4364 79.2302 25.4802 79.3207 25.5107 79.4001C25.5639 79.5598 25.5991 79.6665 25.5991 79.6665C25.5991 79.6665 25.5672 79.5592 25.5186 79.3982C25.4904 79.3184 25.4492 79.227 25.4092 79.1277C25.3907 79.0779 25.3618 79.0293 25.3378 78.9783C25.3125 78.9273 25.2867 78.8758 25.2608 78.8245C25.1494 78.6217 25.0293 78.4226 24.9303 78.2775C24.8898 78.2168 24.8557 78.1675 24.828 78.128L25.4801 78.3221C25.5075 78.3573 25.5634 78.4299 25.6337 78.5308C25.7359 78.672 25.8606 78.8673 25.9772 79.0664C26.0043 79.1169 26.0314 79.1679 26.058 79.2175C26.0836 79.2678 26.1138 79.3156 26.1334 79.3651C26.1758 79.4628 26.2198 79.5531 26.2499 79.6323C26.3032 79.792 26.3384 79.8987 26.3384 79.8987C26.3384 79.8987 26.3065 79.7914 26.2579 79.6304C26.2297 79.5506 26.1887 79.4594 26.1487 79.3602C26.1301 79.3105 26.1013 79.2617 26.077 79.2105C26.0518 79.1599 26.026 79.1084 26.0003 79.0569C25.8889 78.8541 25.7686 78.6552 25.6699 78.5099C25.6242 78.4415 25.5851 78.3859 25.5557 78.3443L26.206 78.538C26.2211 78.5567 26.2853 78.6374 26.3728 78.7632C26.4752 78.9047 26.5999 79.0999 26.7165 79.299C26.7436 79.3495 26.7705 79.4003 26.7975 79.45C26.8227 79.5002 26.8529 79.5484 26.8725 79.5975C26.9151 79.6954 26.9591 79.7857 26.9892 79.8645C27.0421 80.0246 27.0776 80.1315 27.0776 80.1315C27.0776 80.1315 27.0454 80.024 26.9972 79.8631C26.9688 79.7834 26.9276 79.692 26.8878 79.593C26.8691 79.5429 26.8404 79.4941 26.8162 79.4434C26.7909 79.3923 26.7654 79.341 26.7394 79.2893C26.6278 79.0867 26.508 78.8872 26.4088 78.7425C26.3572 78.6644 26.3138 78.6025 26.2833 78.5607L26.9455 78.7578C26.9392 78.7622 27.012 78.8529 27.1116 78.9954C27.2143 79.1371 27.339 79.3323 27.4558 79.5316C27.4827 79.5819 27.51 79.6327 27.5364 79.6826C27.562 79.7328 27.5922 79.7806 27.6118 79.8301C27.6544 79.9276 27.6979 80.0179 27.7285 80.0971C27.7816 80.257 27.8171 80.3639 27.8171 80.3639C27.8171 80.3639 27.7847 80.2566 27.7363 80.0959C27.7081 80.016 27.6669 79.9242 27.6271 79.8252C27.6084 79.7751 27.5797 79.7268 27.5557 79.6758C27.5302 79.6249 27.5046 79.5732 27.4785 79.5217C27.3671 79.3189 27.2472 79.1201 27.148 78.9747C27.0882 78.8843 27.0403 78.8178 27.0107 78.7769L27.73 78.9909L27.0145 78.7536C27.0532 78.7347 27.1167 78.7031 27.1977 78.6567C27.3311 78.5848 27.499 78.476 27.6605 78.3593C27.6995 78.3279 27.738 78.2969 27.7762 78.2659C27.8134 78.2344 27.8537 78.2077 27.8854 78.1732C27.9515 78.1074 28.0157 78.0493 28.065 77.9938C28.1571 77.877 28.2184 77.799 28.2184 77.799C28.2184 77.799 28.1545 77.8746 28.0587 77.9878C28.007 78.0411 27.9406 78.0968 27.873 78.16C27.8406 78.193 27.7988 78.218 27.7608 78.2484C27.7218 78.2775 27.6823 78.3072 27.6425 78.3371C27.4775 78.4476 27.3064 78.5496 27.1712 78.6163C27.0384 78.6861 26.945 78.7241 26.945 78.7241C26.9497 78.7323 26.2906 78.5136 26.2906 78.5136C26.3305 78.4939 26.3884 78.4644 26.4587 78.4243C26.5918 78.3522 26.7597 78.2438 26.9214 78.1269C26.9604 78.0955 26.9987 78.0647 27.0371 78.0335C27.0741 78.0018 27.1144 77.975 27.1463 77.9408C27.2118 77.8752 27.2766 77.8169 27.3259 77.7614C27.4177 77.6444 27.4793 77.5666 27.4793 77.5666C27.4793 77.5666 27.4152 77.642 27.3193 77.7552C27.2682 77.8089 27.2016 77.8644 27.134 77.9276C27.1012 77.9604 27.0599 77.9854 27.0217 78.016C26.9827 78.0451 26.943 78.075 26.9034 78.1043C26.7382 78.2149 26.5669 78.3172 26.4321 78.3839C26.3153 78.4453 26.2332 78.4802 26.2138 78.488L25.5669 78.2738C25.606 78.254 25.6577 78.2269 25.7194 78.1921C25.8525 78.12 26.0206 78.0114 26.1822 77.8947C26.221 77.8629 26.2596 77.8323 26.2978 77.8013C26.3348 77.7696 26.3755 77.7429 26.407 77.7086C26.4729 77.6426 26.5373 77.5847 26.5868 77.529C26.6786 77.412 26.74 77.3344 26.74 77.3344C26.74 77.3344 26.6759 77.4098 26.5803 77.5232C26.5288 77.5763 26.4625 77.632 26.3947 77.6954C26.3621 77.728 26.3206 77.7532 26.2824 77.7834C26.2432 77.8127 26.2037 77.8424 26.1641 77.8721C25.9991 77.9825 25.8278 78.0848 25.6928 78.1517C25.5992 78.2007 25.527 78.2331 25.4915 78.2487L24.8426 78.0333C24.8798 78.0141 24.9252 77.9903 24.98 77.9594C25.113 77.8876 25.2813 77.7788 25.4428 77.6621C25.4818 77.6307 25.5201 77.5995 25.5585 77.5687C25.5955 77.537 25.636 77.51 25.6677 77.4759C25.7335 77.41 25.7978 77.3518 25.847 77.2963C25.9393 77.1794 26.0003 77.1017 26.0003 77.1017C26.0003 77.1017 25.9366 77.1772 25.8407 77.2904C25.7893 77.3439 25.723 77.3996 25.6551 77.4626C25.6226 77.4956 25.5811 77.5208 25.5429 77.551C25.5039 77.5801 25.4646 77.61 25.4248 77.6394C25.2596 77.7501 25.0885 77.8521 24.9535 77.9191C24.8713 77.9621 24.8077 77.9915 24.7682 78.0089L23.8508 77.7042C23.617 77.6268 23.3836 77.4984 23.3293 77.4177C23.2747 77.3367 23.2552 77.0896 23.2861 76.866L23.4073 75.9861C23.4419 75.9626 23.4999 75.9246 23.5794 75.8779C23.7068 75.7997 23.8852 75.7083 24.0693 75.6255C24.1166 75.6072 24.1637 75.5888 24.21 75.5707C24.2575 75.5537 24.3008 75.5317 24.3483 75.5203C24.4409 75.4949 24.5259 75.4664 24.6017 75.4493C24.7566 75.4236 24.8599 75.4071 24.8599 75.4071C24.8599 75.4071 24.7555 75.421 24.5989 75.4415C24.5222 75.4558 24.4356 75.4813 24.3409 75.5043C24.2927 75.514 24.2482 75.5345 24.2001 75.5502C24.1522 75.5667 24.1039 75.5837 24.0558 75.6008C23.8673 75.6776 23.6837 75.7637 23.5523 75.8382C23.4969 75.8678 23.4528 75.8939 23.4171 75.9153L23.5024 75.2932C23.5337 75.2717 23.5984 75.2285 23.6897 75.175C23.8168 75.0966 23.9951 75.0054 24.1792 74.923C24.2264 74.9043 24.2734 74.8861 24.3199 74.8678C24.3671 74.851 24.4109 74.829 24.4582 74.8174C24.5508 74.792 24.636 74.7637 24.7118 74.7467C24.8665 74.7211 24.9697 74.7042 24.9697 74.7042C24.9697 74.7042 24.8656 74.7179 24.7086 74.7388C24.6318 74.7531 24.5453 74.7786 24.4507 74.8014C24.4028 74.8113 24.3578 74.8318 24.31 74.8473C24.2623 74.864 24.214 74.881 24.1654 74.8977C23.977 74.9749 23.7935 75.0608 23.6623 75.1351C23.5999 75.1688 23.5495 75.1983 23.5125 75.2211L23.5977 74.6011C23.6142 74.5891 23.6864 74.5385 23.7996 74.4726C23.927 74.3944 24.1052 74.3027 24.2893 74.2203C24.3363 74.2018 24.3834 74.1834 24.4302 74.1653C24.477 74.1485 24.521 74.1263 24.5683 74.1151C24.6609 74.0893 24.7459 74.0612 24.8217 74.0442C24.9764 74.0186 25.0796 74.0017 25.0796 74.0017C25.0796 74.0017 24.9755 74.0155 24.8187 74.0361C24.7417 74.0506 24.6554 74.0759 24.5606 74.0989C24.5127 74.1088 24.468 74.1295 24.4196 74.1446C24.3722 74.1616 24.324 74.1783 24.2753 74.1952C24.0871 74.2722 23.9036 74.3582 23.7722 74.4326C23.7008 74.4712 23.6453 74.5042 23.6079 74.5273L23.695 73.896C23.7006 73.9036 23.7805 73.8457 23.9097 73.7699C24.0368 73.6915 24.2151 73.6002 24.3989 73.5176C24.4462 73.4994 24.4933 73.4809 24.5398 73.4626C24.5871 73.4458 24.6309 73.4239 24.6782 73.4122C24.7708 73.3869 24.8559 73.3585 24.9315 73.3413C25.0865 73.316 25.1897 73.2991 25.1897 73.2991C25.1897 73.2991 25.0855 73.3128 24.9286 73.3337C24.852 73.3477 24.7653 73.3735 24.6707 73.3963C24.6226 73.4059 24.5778 73.4266 24.5297 73.4419Z" fill="#448D35"/>
</svg>
